<svg version="1.1" viewBox="0.0 0.0 960.0 540.0" fill="none" stroke="none" stroke-linecap="square" stroke-miterlimit="10" xmlns:xlink="http://www.w3.org/1999/xlink" xmlns="http://www.w3.org/2000/svg"><clipPath id="g21c4a356397_0_0.0"><path d="m0 0l960.0 0l0 540.0l-960.0 0l0 -540.0z" clip-rule="nonzero"/></clipPath><g clip-path="url(#g21c4a356397_0_0.0)"><path fill="#f3e2d9" d="m0 0l960.0 0l0 540.0l-960.0 0z" fill-rule="evenodd"/><path fill="#e06f3e" d="m0 0.062992126l960.0 0l0 539.874l-960.0 0zm13.836971 13.836971l0 512.2001l932.32605 0l0 -512.2001z" fill-rule="evenodd"/><path fill="#000000" fill-opacity="0.0" d="m328.4596 94.89501l556.6614 0l0 269.3228l-556.6614 0z" fill-rule="evenodd"/><path fill="#000000" d="m339.92834 123.44859q0 -7.765625 3.359375 -13.84375q3.359375 -6.09375 9.359375 -9.484375q6.015625 -3.390625 13.625 -3.390625q9.34375 0 15.984375 4.921875q6.640625 4.921875 8.875 13.4375l-14.03125 0q-1.5625 -3.28125 -4.4375 -5.0q-2.875 -1.71875 -6.53125 -1.71875q-5.90625 0 -9.5625 4.109375q-3.65625 4.109375 -3.65625 10.96875q0 6.875 3.65625 10.984375q3.65625 4.09375 9.5625 4.09375q3.65625 0 6.53125 -1.703125q2.875 -1.71875 4.4375 -5.015625l14.03125 0q-2.234375 8.515625 -8.875 13.40625q-6.640625 4.890625 -15.984375 4.890625q-7.609375 0 -13.625 -3.390625q-6.0 -3.40625 -9.359375 -9.453125q-3.359375 -6.046875 -3.359375 -13.8125zm56.51306 5.375q0 -6.421875 2.421875 -11.265625q2.421875 -4.859375 6.59375 -7.46875q4.1875 -2.609375 9.34375 -2.609375q4.40625 0 7.71875 1.796875q3.328125 1.78125 5.125 4.6875l0 -5.890625l12.765625 0l0 41.65625l-12.765625 0l0 -5.890625q-1.859375 2.90625 -5.1875 4.703125q-3.328125 1.78125 -7.734375 1.78125q-5.078125 0 -9.265625 -2.640625q-4.171875 -2.65625 -6.59375 -7.546875q-2.421875 -4.890625 -2.421875 -11.3125zm31.203125 0.078125q0 -4.78125 -2.65625 -7.53125q-2.640625 -2.765625 -6.453125 -2.765625q-3.8125 0 -6.46875 2.71875q-2.640625 2.71875 -2.640625 7.5q0 4.78125 2.640625 7.578125q2.65625 2.796875 6.46875 2.796875q3.8125 0 6.453125 -2.75q2.65625 -2.765625 2.65625 -7.546875zm34.78534 -34.421875l0 55.25l-12.765625 0l0 -55.25l12.765625 0zm15.67984 9.265625q-3.359375 0 -5.484375 -1.96875q-2.125 -1.984375 -2.125 -4.90625q0 -2.984375 2.125 -4.953125q2.125 -1.984375 5.484375 -1.984375q3.28125 0 5.40625 1.984375q2.140625 1.96875 2.140625 4.953125q0 2.921875 -2.140625 4.90625q-2.125 1.96875 -5.40625 1.96875zm6.34375 4.328125l0 41.65625l-12.765625 0l0 -41.65625l12.765625 0zm22.02359 5.890625q1.796875 -2.90625 5.15625 -4.6875q3.359375 -1.796875 7.6875 -1.796875q5.15625 0 9.328125 2.609375q4.1875 2.609375 6.609375 7.46875q2.421875 4.84375 2.421875 11.265625q0 6.421875 -2.421875 11.3125q-2.421875 4.890625 -6.609375 7.546875q-4.171875 2.640625 -9.328125 2.640625q-4.40625 0 -7.6875 -1.75q-3.28125 -1.75 -5.15625 -4.671875l0 5.828125l-12.765625 0l0 -55.25l12.765625 0l0 19.484375zm18.21875 14.859375q0 -4.78125 -2.65625 -7.5q-2.640625 -2.71875 -6.53125 -2.71875q-3.796875 0 -6.453125 2.765625q-2.65625 2.75 -2.65625 7.53125q0 4.78125 2.65625 7.546875q2.65625 2.75 6.453125 2.75q3.8125 0 6.5 -2.796875q2.6875 -2.796875 2.6875 -7.578125zm58.97284 -0.59375q0 1.796875 -0.21875 3.734375l-28.890625 0q0.296875 3.875 2.5 5.9375q2.203125 2.046875 5.421875 2.046875q4.765625 0 6.640625 -4.03125l13.578125 0q-1.046875 4.109375 -3.765625 7.390625q-2.71875 3.28125 -6.828125 5.15625q-4.109375 1.859375 -9.1875 1.859375q-6.125 0 -10.90625 -2.609375q-4.765625 -2.609375 -7.453125 -7.453125q-2.6875 -4.859375 -2.6875 -11.359375q0 -6.5 2.640625 -11.34375q2.65625 -4.859375 7.4375 -7.46875q4.78125 -2.609375 10.96875 -2.609375q6.046875 0 10.75 2.546875q4.703125 2.53125 7.34375 7.234375q2.65625 4.703125 2.65625 10.96875zm-13.0625 -3.359375q0 -3.28125 -2.234375 -5.21875q-2.234375 -1.953125 -5.59375 -1.953125q-3.21875 0 -5.421875 1.875q-2.203125 1.859375 -2.71875 5.296875l15.96875 0zm32.55072 -9.859375q2.25 -3.4375 5.609375 -5.40625q3.359375 -1.984375 7.453125 -1.984375l0 13.515625l-3.5 0q-4.78125 0 -7.171875 2.0625q-2.390625 2.046875 -2.390625 7.1875l0 19.34375l-12.765625 0l0 -41.65625l12.765625 0l0 6.9375z" fill-rule="nonzero"/><path fill="#000000" d="m627.50037 150.24547q-2.84375 0 -4.671875 -1.75q-1.828125 -1.75 -1.828125 -4.359375q0 -2.625 1.828125 -4.375q1.828125 -1.75 4.671875 -1.75q2.765625 0 4.546875 1.75q1.796875 1.75 1.796875 4.375q0 2.609375 -1.796875 4.359375q-1.78125 1.75 -4.546875 1.75zm0 -30.90625q-2.84375 0 -4.671875 -1.75q-1.828125 -1.75 -1.828125 -4.359375q0 -2.625 1.828125 -4.375q1.828125 -1.75 4.671875 -1.75q2.765625 0 4.546875 1.75q1.796875 1.75 1.796875 4.375q0 2.609375 -1.796875 4.359375q-1.78125 1.75 -4.546875 1.75z" fill-rule="nonzero"/><path fill="#e06f3e" d="m380.2721 175.3746l-14.890625 28.921875l0 12.609375l-13.015625 0l0 -12.609375l-14.90625 -28.921875l14.90625 0l6.625 14.71875l6.625 -14.71875l14.65625 0zm18.66278 41.9375q-4.984375 0 -8.984375 -2.046875q-3.984375 -2.0625 -6.25 -5.890625q-2.25 -3.84375 -2.25 -9.015625q0 -5.15625 2.25 -9.0q2.265625 -3.84375 6.25 -5.890625q4.0 -2.0625 8.984375 -2.0625q4.984375 0 8.96875 2.0625q3.984375 2.046875 6.234375 5.890625q2.265625 3.84375 2.265625 9.0q0 5.171875 -2.265625 9.015625q-2.25 3.828125 -6.234375 5.890625q-3.984375 2.046875 -8.96875 2.046875zm0 -11.25q1.8125 0 3.046875 -1.4375q1.234375 -1.4375 1.234375 -4.265625q0 -2.8125 -1.234375 -4.25q-1.234375 -1.4375 -3.046875 -1.4375q-1.828125 0 -3.0625 1.4375q-1.21875 1.4375 -1.21875 4.25q0 2.828125 1.203125 4.265625q1.203125 1.4375 3.078125 1.4375zm56.602234 -22.234375l0 33.078125l-13.03125 0l0 -5.046875q-1.515625 2.34375 -4.078125 3.8125q-2.546875 1.46875 -6.0625 1.46875q-5.6875 0 -8.890625 -3.8125q-3.1875 -3.8125 -3.1875 -10.328125l0 -19.171875l12.953125 0l0 17.53125q0 2.34375 1.265625 3.734375q1.265625 1.375 3.375 1.375q2.171875 0 3.390625 -1.375q1.234375 -1.390625 1.234375 -3.734375l0 -17.53125l13.03125 0zm18.883362 6.09375q2.0 -2.875 4.875 -4.59375q2.875 -1.734375 5.984375 -1.734375l0 13.890625l-3.703125 0q-3.6875 0 -5.421875 1.296875q-1.734375 1.296875 -1.734375 4.578125l0 13.546875l-13.015625 0l0 -33.078125l13.015625 0l0 6.09375zm56.957764 -14.546875l0 10.328125l-11.03125 0l0 31.203125l-13.015625 0l0 -31.203125l-10.90625 0l0 -10.328125l34.953125 0zm16.538513 14.546875q2.0 -2.875 4.875 -4.59375q2.875 -1.734375 5.984375 -1.734375l0 13.890625l-3.703125 0q-3.6875 0 -5.421875 1.296875q-1.734375 1.296875 -1.734375 4.578125l0 13.546875l-13.015625 0l0 -33.078125l13.015625 0l0 6.09375zm49.392456 -6.09375l0 33.078125l-13.03125 0l0 -5.046875q-1.515625 2.34375 -4.078125 3.8125q-2.546875 1.46875 -6.0625 1.46875q-5.6875 0 -8.890625 -3.8125q-3.1875 -3.8125 -3.1875 -10.328125l0 -19.171875l12.953125 0l0 17.53125q0 2.34375 1.265625 3.734375q1.265625 1.375 3.375 1.375q2.171875 0 3.390625 -1.375q1.234375 -1.390625 1.234375 -3.734375l0 -17.53125l13.03125 0zm20.586487 33.484375q-4.6875 0 -8.296875 -1.515625q-3.609375 -1.53125 -5.71875 -4.21875q-2.109375 -2.703125 -2.40625 -6.109375l12.484375 0q0.234375 1.46875 1.265625 2.171875q1.03125 0.703125 2.609375 0.703125q1.0 0 1.578125 -0.4375q0.59375 -0.4375 0.59375 -1.09375q0 -1.109375 -1.234375 -1.578125q-1.234375 -0.46875 -4.15625 -1.0625q-3.578125 -0.703125 -5.90625 -1.515625q-2.3125 -0.828125 -4.046875 -2.8125q-1.71875 -2.0 -1.71875 -5.515625q0 -3.046875 1.609375 -5.546875q1.609375 -2.5 4.78125 -3.9375q3.171875 -1.4375 7.6875 -1.4375q6.6875 0 10.46875 3.296875q3.78125 3.28125 4.546875 8.5625l-11.5625 0q-0.296875 -1.359375 -1.234375 -2.078125q-0.9375 -0.734375 -2.515625 -0.734375q-1.0 0 -1.53125 0.375q-0.53125 0.375 -0.53125 1.140625q0 1.0 1.234375 1.5q1.234375 0.5 3.9375 1.03125q3.578125 0.703125 6.03125 1.578125q2.46875 0.875 4.28125 3.015625q1.828125 2.140625 1.828125 5.90625q0 2.921875 -1.703125 5.28125q-1.703125 2.34375 -4.90625 3.6875q-3.1875 1.34375 -7.46875 1.34375zm39.82129 -11.5l0 11.09375l-4.921875 0q-13.609375 0 -13.609375 -13.546875l0 -8.6875l-4.109375 0l0 -10.84375l4.109375 0l0 -7.984375l13.015625 0l0 7.984375l5.40625 0l0 10.84375l-5.40625 0l0 8.921875q0 1.171875 0.5625 1.703125q0.5625 0.515625 1.84375 0.515625l3.109375 0zm37.011658 -5.734375q0 1.34375 -0.171875 2.578125l-20.9375 0q0.296875 4.28125 3.578125 4.28125q2.109375 0 3.046875 -1.9375l13.78125 0q-0.703125 3.515625 -2.96875 6.3125q-2.25 2.78125 -5.6875 4.390625q-3.421875 1.609375 -7.53125 1.609375q-4.921875 0 -8.765625 -2.046875q-3.84375 -2.0625 -5.984375 -5.890625q-2.140625 -3.84375 -2.140625 -9.015625q0 -5.15625 2.140625 -9.0q2.140625 -3.84375 5.984375 -5.890625q3.84375 -2.0625 8.765625 -2.0625q4.9375 0 8.765625 2.03125q3.84375 2.015625 5.984375 5.78125q2.140625 3.75 2.140625 8.859375zm-13.1875 -3.109375q0 -1.640625 -1.0625 -2.484375q-1.046875 -0.859375 -2.640625 -0.859375q-3.453125 0 -4.046875 3.34375l7.75 0zm15.538452 3.390625q0 -5.21875 1.78125 -9.0625q1.796875 -3.84375 4.90625 -5.859375q3.109375 -2.03125 6.984375 -2.03125q3.21875 0 5.53125 1.328125q2.328125 1.3125 3.5625 3.609375l0 -14.84375l13.015625 0l0 43.40625l-13.015625 0l0 -4.515625q-1.234375 2.28125 -3.5625 3.609375q-2.3125 1.3125 -5.53125 1.3125q-3.875 0 -6.984375 -2.015625q-3.109375 -2.03125 -4.90625 -5.875q-1.78125 -3.84375 -1.78125 -9.0625zm22.8125 0q0 -2.640625 -1.34375 -4.09375q-1.34375 -1.46875 -3.453125 -1.46875q-2.125 0 -3.46875 1.46875q-1.34375 1.453125 -1.34375 4.09375q0 2.640625 1.34375 4.109375q1.34375 1.46875 3.46875 1.46875q2.109375 0 3.453125 -1.46875q1.34375 -1.46875 1.34375 -4.109375zm41.826538 6.6875l12.546875 0l0 9.859375l-25.5625 0l0 -41.53125l13.015625 0l0 31.671875zm23.226929 -25.859375q-3.40625 0 -5.453125 -1.8125q-2.046875 -1.828125 -2.046875 -4.578125q0 -2.828125 2.046875 -4.671875q2.046875 -1.84375 5.453125 -1.84375q3.34375 0 5.390625 1.84375q2.0625 1.84375 2.0625 4.671875q0 2.75 -2.0625 4.578125q-2.046875 1.8125 -5.390625 1.8125zm6.453125 2.640625l0 33.078125l-13.015625 0l0 -33.078125l13.015625 0zm29.043518 -0.234375q5.6875 0 8.875 3.8125q3.203125 3.8125 3.203125 10.3125l0 19.1875l-12.96875 0l0 -17.53125q0 -2.359375 -1.265625 -3.734375q-1.25 -1.375 -3.359375 -1.375q-2.171875 0 -3.40625 1.375q-1.234375 1.375 -1.234375 3.734375l0 17.53125l-13.015625 0l0 -33.078125l13.015625 0l0 5.046875q1.53125 -2.359375 4.078125 -3.8125q2.546875 -1.46875 6.078125 -1.46875zm38.883423 33.3125l-8.15625 -13.203125l0 13.203125l-13.015625 0l0 -43.40625l13.015625 0l0 22.703125l8.265625 -12.375l15.140625 0l-12.375 16.65625l12.671875 16.421875l-15.546875 0z" fill-rule="nonzero"/><path fill="#e06f3e" d="m360.97522 268.8121l0 11.09375l-4.921875 0q-13.609375 0 -13.609375 -13.546875l0 -8.6875l-4.109375 0l0 -10.84375l4.109375 0l0 -7.984375l13.015625 0l0 7.984375l5.40625 0l0 10.84375l-5.40625 0l0 8.921875q0 1.171875 0.5625 1.703125q0.5625 0.515625 1.84375 0.515625l3.109375 0zm20.714722 11.5q-4.984375 0 -8.984375 -2.046875q-3.984375 -2.0625 -6.25 -5.890625q-2.25 -3.84375 -2.25 -9.015625q0 -5.15625 2.25 -9.0q2.265625 -3.84375 6.25 -5.890625q4.0 -2.0625 8.984375 -2.0625q4.984375 0 8.96875 2.0625q3.984375 2.046875 6.234375 5.890625q2.265625 3.84375 2.265625 9.0q0 5.171875 -2.265625 9.015625q-2.25 3.828125 -6.234375 5.890625q-3.984375 2.046875 -8.96875 2.046875zm0 -11.25q1.8125 0 3.046875 -1.4375q1.234375 -1.4375 1.234375 -4.265625q0 -2.8125 -1.234375 -4.25q-1.234375 -1.4375 -3.046875 -1.4375q-1.828125 0 -3.0625 1.4375q-1.21875 1.4375 -1.21875 4.25q0 2.828125 1.203125 4.265625q1.203125 1.4375 3.078125 1.4375zm52.433167 10.84375l-7.796875 -14.90625l-0.0625 0l0 14.90625l-13.015625 0l0 -41.53125l19.359375 0q5.03125 0 8.609375 1.796875q3.578125 1.78125 5.359375 4.859375q1.796875 3.078125 1.796875 6.953125q0 4.171875 -2.3125 7.40625q-2.3125 3.21875 -6.65625 4.625l9.03125 15.890625l-14.3125 0zm-7.859375 -23.578125l5.15625 0q1.890625 0 2.828125 -0.84375q0.9375 -0.859375 0.9375 -2.671875q0 -1.640625 -0.96875 -2.578125q-0.96875 -0.953125 -2.796875 -0.953125l-5.15625 0l0 7.046875zm58.299683 6.75q0 1.34375 -0.171875 2.578125l-20.9375 0q0.296875 4.28125 3.578125 4.28125q2.109375 0 3.046875 -1.9375l13.78125 0q-0.703125 3.515625 -2.96875 6.3125q-2.25 2.78125 -5.6875 4.390625q-3.421875 1.609375 -7.53125 1.609375q-4.921875 0 -8.765625 -2.046875q-3.84375 -2.0625 -5.984375 -5.890625q-2.140625 -3.84375 -2.140625 -9.015625q0 -5.15625 2.140625 -9.0q2.140625 -3.84375 5.984375 -5.890625q3.84375 -2.0625 8.765625 -2.0625q4.9375 0 8.765625 2.03125q3.84375 2.015625 5.984375 5.78125q2.140625 3.75 2.140625 8.859375zm-13.1875 -3.109375q0 -1.640625 -1.0625 -2.484375q-1.046875 -0.859375 -2.640625 -0.859375q-3.453125 0 -4.046875 3.34375l7.75 0zm30.319733 -23.46875l0 43.40625l-13.015625 0l0 -43.40625l13.015625 0zm12.434174 7.6875q-3.40625 0 -5.453125 -1.8125q-2.046875 -1.828125 -2.046875 -4.578125q0 -2.828125 2.046875 -4.671875q2.046875 -1.84375 5.453125 -1.84375q3.34375 0 5.390625 1.84375q2.0625 1.84375 2.0625 4.671875q0 2.75 -2.0625 4.578125q-2.046875 1.8125 -5.390625 1.8125zm6.453125 2.640625l0 33.078125l-13.015625 0l0 -33.078125l13.015625 0zm4.106018 16.53125q0 -5.21875 1.78125 -9.0625q1.796875 -3.84375 4.90625 -5.859375q3.109375 -2.03125 6.984375 -2.03125q3.21875 0 5.5625 1.328125q2.359375 1.3125 3.578125 3.609375l0 -4.515625l12.96875 0l0 33.078125l-12.96875 0l0 -4.515625q-1.21875 2.28125 -3.578125 3.609375q-2.34375 1.3125 -5.5625 1.3125q-3.875 0 -6.984375 -2.015625q-3.109375 -2.03125 -4.90625 -5.875q-1.78125 -3.84375 -1.78125 -9.0625zm22.8125 0q0 -2.640625 -1.34375 -4.09375q-1.34375 -1.46875 -3.453125 -1.46875q-2.125 0 -3.46875 1.46875q-1.34375 1.453125 -1.34375 4.09375q0 2.640625 1.34375 4.109375q1.34375 1.46875 3.46875 1.46875q2.109375 0 3.453125 -1.46875q1.34375 -1.46875 1.34375 -4.109375zm31.85498 -12.015625q1.234375 -2.296875 3.546875 -3.609375q2.3125 -1.328125 5.546875 -1.328125q3.875 0 6.984375 2.03125q3.109375 2.015625 4.890625 5.859375q1.796875 3.84375 1.796875 9.0625q0 5.21875 -1.796875 9.0625q-1.78125 3.84375 -4.890625 5.875q-3.109375 2.015625 -6.984375 2.015625q-3.234375 0 -5.546875 -1.3125q-2.3125 -1.328125 -3.546875 -3.609375l0 4.515625l-13.015625 0l0 -43.40625l13.015625 0l0 14.84375zm9.5625 12.015625q0 -2.640625 -1.359375 -4.09375q-1.34375 -1.46875 -3.453125 -1.46875q-2.109375 0 -3.46875 1.46875q-1.34375 1.453125 -1.34375 4.09375q0 2.640625 1.34375 4.109375q1.359375 1.46875 3.46875 1.46875q2.109375 0 3.453125 -1.46875q1.359375 -1.46875 1.359375 -4.109375zm30.32373 -26.859375l0 43.40625l-13.015625 0l0 -43.40625l13.015625 0zm37.88733 26.578125q0 1.34375 -0.171875 2.578125l-20.9375 0q0.296875 4.28125 3.578125 4.28125q2.109375 0 3.046875 -1.9375l13.78125 0q-0.703125 3.515625 -2.96875 6.3125q-2.25 2.78125 -5.6875 4.390625q-3.421875 1.609375 -7.53125 1.609375q-4.921875 0 -8.765625 -2.046875q-3.84375 -2.0625 -5.984375 -5.890625q-2.140625 -3.84375 -2.140625 -9.015625q0 -5.15625 2.140625 -9.0q2.140625 -3.84375 5.984375 -5.890625q3.84375 -2.0625 8.765625 -2.0625q4.9375 0 8.765625 2.03125q3.84375 2.015625 5.984375 5.78125q2.140625 3.75 2.140625 8.859375zm-13.1875 -3.109375q0 -1.640625 -1.0625 -2.484375q-1.046875 -0.859375 -2.640625 -0.859375q-3.453125 0 -4.046875 3.34375l7.75 0z" fill-rule="nonzero"/><path fill="#e06f3e" d="m356.6471 343.3121q-7.453125 0 -12.296875 -3.484375q-4.84375 -3.484375 -5.25 -10.234375l13.84375 0q0.296875 3.578125 3.171875 3.578125q1.046875 0 1.78125 -0.5q0.734375 -0.5 0.734375 -1.5625q0 -1.453125 -1.59375 -2.359375q-1.578125 -0.921875 -4.921875 -2.09375q-3.984375 -1.40625 -6.59375 -2.75q-2.609375 -1.359375 -4.484375 -3.9375q-1.875 -2.578125 -1.8125 -6.625q0 -4.046875 2.078125 -6.890625q2.078125 -2.84375 5.6875 -4.3125q3.609375 -1.46875 8.125 -1.46875q7.625 0 12.109375 3.53125q4.484375 3.515625 4.71875 9.90625l-14.015625 0q-0.0625 -1.765625 -0.890625 -2.515625q-0.8125 -0.765625 -1.984375 -0.765625q-0.8125 0 -1.34375 0.5625q-0.53125 0.546875 -0.53125 1.546875q0 1.40625 1.546875 2.3125q1.5625 0.90625 4.96875 2.203125q3.921875 1.46875 6.46875 2.8125q2.5625 1.34375 4.4375 3.75q1.875 2.40625 1.875 6.046875q0 3.8125 -1.875 6.84375q-1.875 3.015625 -5.453125 4.71875q-3.578125 1.6875 -8.5 1.6875zm52.42575 -17.234375q0 1.34375 -0.171875 2.578125l-20.9375 0q0.296875 4.28125 3.578125 4.28125q2.109375 0 3.046875 -1.9375l13.78125 0q-0.703125 3.515625 -2.96875 6.3125q-2.25 2.78125 -5.6875 4.390625q-3.421875 1.609375 -7.53125 1.609375q-4.921875 0 -8.765625 -2.046875q-3.84375 -2.0625 -5.984375 -5.890625q-2.140625 -3.84375 -2.140625 -9.015625q0 -5.15625 2.140625 -9.0q2.140625 -3.84375 5.984375 -5.890625q3.84375 -2.0625 8.765625 -2.0625q4.9375 0 8.765625 2.03125q3.84375 2.015625 5.984375 5.78125q2.140625 3.75 2.140625 8.859375zm-13.1875 -3.109375q0 -1.640625 -1.0625 -2.484375q-1.046875 -0.859375 -2.640625 -0.859375q-3.453125 0 -4.046875 3.34375l7.75 0zm30.319733 -7.046875q2.0 -2.875 4.875 -4.59375q2.875 -1.734375 5.984375 -1.734375l0 13.890625l-3.703125 0q-3.6875 0 -5.421875 1.296875q-1.734375 1.296875 -1.734375 4.578125l0 13.546875l-13.015625 0l0 -33.078125l13.015625 0l0 6.09375zm31.142456 14.609375l5.28125 -20.703125l13.84375 0l-11.03125 33.078125l-16.234375 0l-11.03125 -33.078125l13.84375 0l5.328125 20.703125zm29.155212 -23.34375q-3.40625 0 -5.453125 -1.8125q-2.046875 -1.828125 -2.046875 -4.578125q0 -2.828125 2.046875 -4.671875q2.046875 -1.84375 5.453125 -1.84375q3.34375 0 5.390625 1.84375q2.0625 1.84375 2.0625 4.671875q0 2.75 -2.0625 4.578125q-2.046875 1.8125 -5.390625 1.8125zm6.453125 2.640625l0 33.078125l-13.015625 0l0 -33.078125l13.015625 0zm4.1060486 16.53125q0 -5.15625 2.140625 -9.0q2.140625 -3.84375 5.984375 -5.890625q3.84375 -2.0625 8.7655945 -2.0625q6.453125 0 10.875 3.640625q4.4375 3.640625 5.609375 10.09375l-13.78125 0q-0.765625 -2.578125 -3.0 -2.578125q-1.578125 0 -2.4843445 1.46875q-0.90625 1.453125 -0.90625 4.328125q0 2.875 0.90625 4.34375q0.9062195 1.46875 2.4843445 1.46875q2.234375 0 3.0 -2.578125l13.78125 0q-1.171875 6.453125 -5.609375 10.09375q-4.421875 3.625 -10.875 3.625q-4.9218445 0 -8.7655945 -2.046875q-3.84375 -2.0625 -5.984375 -5.890625q-2.140625 -3.84375 -2.140625 -9.015625zm69.5029 -0.28125q0 1.34375 -0.171875 2.578125l-20.9375 0q0.296875 4.28125 3.578125 4.28125q2.109375 0 3.046875 -1.9375l13.78125 0q-0.703125 3.515625 -2.96875 6.3125q-2.25 2.78125 -5.6875 4.390625q-3.421875 1.609375 -7.53125 1.609375q-4.921875 0 -8.765625 -2.046875q-3.84375 -2.0625 -5.984375 -5.890625q-2.140625 -3.84375 -2.140625 -9.015625q0 -5.15625 2.140625 -9.0q2.140625 -3.84375 5.984375 -5.890625q3.84375 -2.0625 8.765625 -2.0625q4.9375 0 8.765625 2.03125q3.84375 2.015625 5.984375 5.78125q2.140625 3.75 2.140625 8.859375zm-13.1875 -3.109375q0 -1.640625 -1.0625 -2.484375q-1.046875 -0.859375 -2.640625 -0.859375q-3.453125 0 -4.046875 3.34375l7.75 0z" fill-rule="nonzero"/><path fill="#000000" fill-opacity="0.0" d="m328.45932 378.15747l551.9055 0l0 38.015747l-551.9055 0z" fill-rule="evenodd"/><path fill="#000000" d="m344.97495 392.93686q-1.109375 0 -1.984375 0.375q-0.875 0.375 -1.5 1.09375q-0.609375 0.71875 -0.9375 1.734375q-0.328125 1.0 -0.328125 2.265625q0 1.6875 0.515625 2.921875q0.53125 1.234375 1.578125 1.90625q1.046875 0.671875 2.609375 0.671875q0.890625 0 1.671875 -0.140625q0.796875 -0.15625 1.546875 -0.390625l0 1.34375q-0.734375 0.28125 -1.53125 0.40625q-0.796875 0.140625 -1.90625 0.140625q-2.03125 0 -3.390625 -0.84375q-1.359375 -0.84375 -2.046875 -2.375q-0.671875 -1.546875 -0.671875 -3.640625q0 -1.515625 0.421875 -2.765625q0.421875 -1.25 1.234375 -2.15625q0.8125 -0.921875 2.0 -1.421875q1.203125 -0.5 2.734375 -0.5q1.015625 0 1.953125 0.203125q0.9375 0.203125 1.6875 0.578125l-0.609375 1.3125q-0.640625 -0.296875 -1.40625 -0.5q-0.75 -0.21875 -1.640625 -0.21875zm14.438751 7.125q0 1.234375 -0.328125 2.203125q-0.3125 0.96875 -0.921875 1.640625q-0.59375 0.65625 -1.453125 1.015625q-0.84375 0.34375 -1.921875 0.34375q-1.0 0 -1.828125 -0.34375q-0.828125 -0.359375 -1.4375 -1.015625q-0.609375 -0.671875 -0.953125 -1.640625q-0.328125 -0.96875 -0.328125 -2.203125q0 -1.640625 0.5625 -2.78125q0.5625 -1.15625 1.59375 -1.765625q1.03125 -0.609375 2.453125 -0.609375q1.375 0 2.390625 0.609375q1.03125 0.609375 1.59375 1.765625q0.578125 1.15625 0.578125 2.78125zm-7.59375 0q0 1.203125 0.3125 2.09375q0.328125 0.875 0.984375 1.359375q0.671875 0.484375 1.71875 0.484375q1.03125 0 1.703125 -0.484375q0.671875 -0.484375 0.984375 -1.359375q0.328125 -0.890625 0.328125 -2.09375q0 -1.1875 -0.328125 -2.046875q-0.3125 -0.875 -0.984375 -1.34375q-0.65625 -0.484375 -1.71875 -0.484375q-1.5625 0 -2.28125 1.03125q-0.71875 1.03125 -0.71875 2.84375zm14.94165 -5.15625q1.765625 0 2.671875 0.875q0.921875 0.875 0.921875 2.796875l0 6.5l-1.5 0l0 -6.40625q0 -1.25 -0.578125 -1.859375q-0.5625 -0.625 -1.734375 -0.625q-1.65625 0 -2.328125 0.9375q-0.671875 0.9375 -0.671875 2.71875l0 5.234375l-1.515625 0l0 -9.984375l1.21875 0l0.234375 1.4375l0.078125 0q0.3125 -0.53125 0.796875 -0.890625q0.5 -0.359375 1.109375 -0.546875q0.609375 -0.1875 1.296875 -0.1875zm11.441528 0q1.765625 0 2.671875 0.875q0.921875 0.875 0.921875 2.796875l0 6.5l-1.5 0l0 -6.40625q0 -1.25 -0.578125 -1.859375q-0.5625 -0.625 -1.734375 -0.625q-1.65625 0 -2.328125 0.9375q-0.671875 0.9375 -0.671875 2.71875l0 5.234375l-1.515625 0l0 -9.984375l1.21875 0l0.234375 1.4375l0.078125 0q0.3125 -0.53125 0.796875 -0.890625q0.5 -0.359375 1.109375 -0.546875q0.609375 -0.1875 1.296875 -0.1875zm10.550903 0q1.28125 0 2.1875 0.578125q0.90625 0.5625 1.390625 1.578125q0.484375 1.015625 0.484375 2.375l0 0.9375l-6.890625 0q0.015625 1.75 0.859375 2.671875q0.859375 0.921875 2.390625 0.921875q0.953125 0 1.671875 -0.171875q0.734375 -0.171875 1.53125 -0.515625l0 1.328125q-0.765625 0.34375 -1.515625 0.5q-0.734375 0.15625 -1.75 0.15625q-1.4375 0 -2.515625 -0.59375q-1.0625 -0.59375 -1.65625 -1.71875q-0.59375 -1.140625 -0.59375 -2.796875q0 -1.609375 0.546875 -2.78125q0.546875 -1.1875 1.53125 -1.828125q0.984375 -0.640625 2.328125 -0.640625zm-0.015625 1.25q-1.21875 0 -1.9375 0.796875q-0.71875 0.78125 -0.859375 2.203125l5.296875 0q-0.015625 -0.890625 -0.28125 -1.5625q-0.265625 -0.6875 -0.8125 -1.0625q-0.546875 -0.375 -1.40625 -0.375zm10.647797 9.109375q-1.34375 0 -2.375 -0.546875q-1.03125 -0.5625 -1.609375 -1.703125q-0.578125 -1.140625 -0.578125 -2.875q0 -1.8125 0.609375 -2.96875q0.609375 -1.15625 1.671875 -1.703125q1.0625 -0.5625 2.421875 -0.5625q0.75 0 1.4375 0.15625q0.703125 0.15625 1.15625 0.375l-0.453125 1.265625q-0.453125 -0.171875 -1.0625 -0.3125q-0.59375 -0.15625 -1.109375 -0.15625q-1.03125 0 -1.734375 0.453125q-0.6875 0.4375 -1.03125 1.3125q-0.328125 0.859375 -0.328125 2.125q0 1.203125 0.328125 2.0625q0.328125 0.859375 0.984375 1.3125q0.671875 0.453125 1.65625 0.453125q0.796875 0 1.4375 -0.171875q0.640625 -0.171875 1.15625 -0.390625l0 1.34375q-0.5 0.25 -1.125 0.390625q-0.609375 0.140625 -1.453125 0.140625zm8.155151 -1.25q0.375 0 0.765625 -0.0625q0.390625 -0.0625 0.640625 -0.15625l0 1.1875q-0.265625 0.109375 -0.734375 0.1875q-0.46875 0.09375 -0.90625 0.09375q-0.796875 0 -1.453125 -0.28125q-0.640625 -0.28125 -1.03125 -0.9375q-0.375 -0.671875 -0.375 -1.84375l0 -5.921875l-1.421875 0l0 -0.734375l1.421875 -0.59375l0.609375 -2.171875l0.90625 0l0 2.3125l2.921875 0l0 1.1875l-2.921875 0l0 5.875q0 0.9375 0.421875 1.40625q0.4375 0.453125 1.15625 0.453125zm4.946808 -8.921875l0 9.984375l-1.515625 0l0 -9.984375l1.515625 0zm-0.734375 -3.734375q0.359375 0 0.625 0.25q0.28125 0.234375 0.28125 0.75q0 0.5 -0.28125 0.75q-0.265625 0.234375 -0.625 0.234375q-0.390625 0 -0.65625 -0.234375q-0.265625 -0.25 -0.265625 -0.75q0 -0.515625 0.265625 -0.75q0.265625 -0.25 0.65625 -0.25zm8.66275 3.546875q1.765625 0 2.671875 0.875q0.921875 0.875 0.921875 2.796875l0 6.5l-1.5 0l0 -6.40625q0 -1.25 -0.578125 -1.859375q-0.5625 -0.625 -1.734375 -0.625q-1.65625 0 -2.328125 0.9375q-0.671875 0.9375 -0.671875 2.71875l0 5.234375l-1.515625 0l0 -9.984375l1.21875 0l0.234375 1.4375l0.078125 0q0.3125 -0.53125 0.796875 -0.890625q0.5 -0.359375 1.109375 -0.546875q0.609375 -0.1875 1.296875 -0.1875zm9.488403 14.65625q-1.96875 0 -3.03125 -0.734375q-1.0625 -0.734375 -1.0625 -2.0625q0 -0.9375 0.59375 -1.609375q0.59375 -0.65625 1.65625 -0.875q-0.390625 -0.171875 -0.671875 -0.53125q-0.28125 -0.375 -0.28125 -0.84375q0 -0.546875 0.3125 -0.953125q0.3125 -0.421875 0.9375 -0.8125q-0.78125 -0.3125 -1.28125 -1.078125q-0.484375 -0.765625 -0.484375 -1.765625q0 -1.078125 0.4375 -1.828125q0.453125 -0.765625 1.296875 -1.171875q0.859375 -0.40625 2.0625 -0.40625q0.265625 0 0.53125 0.03125q0.265625 0.015625 0.515625 0.0625q0.25 0.03125 0.421875 0.09375l3.421875 0l0 0.96875l-1.828125 0.234375q0.265625 0.359375 0.4375 0.859375q0.1875 0.5 0.1875 1.109375q0 1.484375 -1.015625 2.375q-1.0 0.875 -2.765625 0.875q-0.421875 0 -0.859375 -0.078125q-0.4375 0.25 -0.671875 0.546875q-0.234375 0.296875 -0.234375 0.703125q0 0.28125 0.171875 0.453125q0.1875 0.171875 0.515625 0.25q0.34375 0.078125 0.8125 0.078125l1.765625 0q1.625 0 2.484375 0.6875q0.875 0.6875 0.875 2.0q0 1.65625 -1.34375 2.53125q-1.34375 0.890625 -3.90625 0.890625zm0.046875 -1.1875q1.25 0 2.0625 -0.25q0.8125 -0.25 1.21875 -0.71875q0.40625 -0.46875 0.40625 -1.109375q0 -0.609375 -0.28125 -0.921875q-0.265625 -0.296875 -0.796875 -0.390625q-0.53125 -0.109375 -1.296875 -0.109375l-1.71875 0q-0.6875 0 -1.1875 0.203125q-0.5 0.203125 -0.765625 0.609375q-0.265625 0.421875 -0.265625 1.03125q0 0.8125 0.671875 1.234375q0.6875 0.421875 1.953125 0.421875zm0.390625 -7.984375q1.09375 0 1.640625 -0.546875q0.546875 -0.546875 0.546875 -1.59375q0 -1.109375 -0.5625 -1.671875q-0.546875 -0.5625 -1.640625 -0.5625q-1.03125 0 -1.59375 0.578125q-0.5625 0.578125 -0.5625 1.6875q0 1.015625 0.5625 1.5625q0.5625 0.546875 1.609375 0.546875zm17.679138 -7.453125q-1.109375 0 -1.984375 0.375q-0.875 0.375 -1.5 1.09375q-0.609375 0.71875 -0.9375 1.734375q-0.328125 1.0 -0.328125 2.265625q0 1.6875 0.515625 2.921875q0.53125 1.234375 1.578125 1.90625q1.046875 0.671875 2.609375 0.671875q0.890625 0 1.671875 -0.140625q0.796875 -0.15625 1.546875 -0.390625l0 1.34375q-0.734375 0.28125 -1.53125 0.40625q-0.796875 0.140625 -1.90625 0.140625q-2.03125 0 -3.390625 -0.84375q-1.359375 -0.84375 -2.046875 -2.375q-0.671875 -1.546875 -0.671875 -3.640625q0 -1.515625 0.421875 -2.765625q0.421875 -1.25 1.234375 -2.15625q0.8125 -0.921875 2.0 -1.421875q1.203125 -0.5 2.734375 -0.5q1.015625 0 1.953125 0.203125q0.9375 0.203125 1.6875 0.578125l-0.609375 1.3125q-0.640625 -0.296875 -1.40625 -0.5q-0.75 -0.21875 -1.640625 -0.21875zm14.438751 7.125q0 1.234375 -0.328125 2.203125q-0.3125 0.96875 -0.921875 1.640625q-0.59375 0.65625 -1.453125 1.015625q-0.84375 0.34375 -1.921875 0.34375q-1.0 0 -1.828125 -0.34375q-0.828125 -0.359375 -1.4375 -1.015625q-0.609375 -0.671875 -0.953125 -1.640625q-0.328125 -0.96875 -0.328125 -2.203125q0 -1.640625 0.5625 -2.78125q0.5625 -1.15625 1.59375 -1.765625q1.03125 -0.609375 2.453125 -0.609375q1.375 0 2.390625 0.609375q1.03125 0.609375 1.59375 1.765625q0.578125 1.15625 0.578125 2.78125zm-7.59375 0q0 1.203125 0.3125 2.09375q0.328125 0.875 0.984375 1.359375q0.671875 0.484375 1.71875 0.484375q1.03125 0 1.703125 -0.484375q0.671875 -0.484375 0.984375 -1.359375q0.328125 -0.890625 0.328125 -2.09375q0 -1.1875 -0.328125 -2.046875q-0.3125 -0.875 -0.984375 -1.34375q-0.65625 -0.484375 -1.71875 -0.484375q-1.5625 0 -2.28125 1.03125q-0.71875 1.03125 -0.71875 2.84375zm14.94165 -5.15625q1.765625 0 2.671875 0.875q0.921875 0.875 0.921875 2.796875l0 6.5l-1.5 0l0 -6.40625q0 -1.25 -0.578125 -1.859375q-0.5625 -0.625 -1.734375 -0.625q-1.65625 0 -2.328125 0.9375q-0.671875 0.9375 -0.671875 2.71875l0 5.234375l-1.515625 0l0 -9.984375l1.21875 0l0.234375 1.4375l0.078125 0q0.3125 -0.53125 0.796875 -0.890625q0.5 -0.359375 1.109375 -0.546875q0.609375 -0.1875 1.296875 -0.1875zm13.160278 7.4375q0 0.953125 -0.484375 1.609375q-0.46875 0.65625 -1.359375 0.984375q-0.890625 0.328125 -2.109375 0.328125q-1.046875 0 -1.8125 -0.171875q-0.765625 -0.15625 -1.34375 -0.46875l0 -1.390625q0.609375 0.296875 1.453125 0.546875q0.859375 0.25 1.734375 0.25q1.296875 0 1.875 -0.421875q0.59375 -0.421875 0.59375 -1.140625q0 -0.40625 -0.234375 -0.71875q-0.234375 -0.3125 -0.78125 -0.609375q-0.546875 -0.296875 -1.515625 -0.65625q-0.953125 -0.359375 -1.65625 -0.71875q-0.6875 -0.359375 -1.078125 -0.875q-0.375 -0.53125 -0.375 -1.359375q0 -1.265625 1.015625 -1.9375q1.03125 -0.6875 2.703125 -0.6875q0.90625 0 1.6875 0.1875q0.796875 0.171875 1.46875 0.46875l-0.5 1.21875q-0.625 -0.265625 -1.328125 -0.4375q-0.703125 -0.1875 -1.421875 -0.1875q-1.046875 0 -1.609375 0.34375q-0.5625 0.34375 -0.5625 0.9375q0 0.46875 0.25 0.78125q0.265625 0.296875 0.84375 0.5625q0.578125 0.25 1.515625 0.609375q0.9375 0.34375 1.609375 0.71875q0.6875 0.375 1.046875 0.90625q0.375 0.515625 0.375 1.328125zm10.687744 -7.25l0 9.984375l-1.25 0l-0.21875 -1.40625l-0.078125 0q-0.3125 0.515625 -0.8125 0.875q-0.484375 0.359375 -1.09375 0.53125q-0.609375 0.1875 -1.3125 0.1875q-1.171875 0 -1.984375 -0.375q-0.796875 -0.390625 -1.203125 -1.1875q-0.40625 -0.8125 -0.40625 -2.0625l0 -6.546875l1.53125 0l0 6.4375q0 1.234375 0.5625 1.859375q0.5625 0.609375 1.71875 0.609375q1.109375 0 1.765625 -0.40625q0.671875 -0.421875 0.953125 -1.234375q0.296875 -0.828125 0.296875 -2.015625l0 -5.25l1.53125 0zm14.035278 -0.1875q1.640625 0 2.484375 0.875q0.84375 0.859375 0.84375 2.75l0 6.546875l-1.5 0l0 -6.46875q0 -1.203125 -0.53125 -1.8125q-0.515625 -0.609375 -1.546875 -0.609375q-1.453125 0 -2.109375 0.84375q-0.65625 0.828125 -0.65625 2.46875l0 5.578125l-1.5 0l0 -6.46875q0 -0.8125 -0.234375 -1.34375q-0.234375 -0.546875 -0.6875 -0.8125q-0.453125 -0.265625 -1.15625 -0.265625q-1.0 0 -1.609375 0.40625q-0.59375 0.40625 -0.859375 1.21875q-0.265625 0.8125 -0.265625 1.984375l0 5.28125l-1.515625 0l0 -9.984375l1.21875 0l0.234375 1.40625l0.078125 0q0.296875 -0.515625 0.75 -0.859375q0.46875 -0.359375 1.03125 -0.546875q0.5625 -0.1875 1.203125 -0.1875q1.125 0 1.890625 0.4375q0.78125 0.421875 1.125 1.28125l0.078125 0q0.5 -0.859375 1.359375 -1.28125q0.859375 -0.4375 1.875 -0.4375zm10.271606 0q1.28125 0 2.1875 0.578125q0.90625 0.5625 1.390625 1.578125q0.484375 1.015625 0.484375 2.375l0 0.9375l-6.890625 0q0.015625 1.75 0.859375 2.671875q0.859375 0.921875 2.390625 0.921875q0.953125 0 1.671875 -0.171875q0.734375 -0.171875 1.53125 -0.515625l0 1.328125q-0.765625 0.34375 -1.515625 0.5q-0.734375 0.15625 -1.75 0.15625q-1.4375 0 -2.515625 -0.59375q-1.0625 -0.59375 -1.65625 -1.71875q-0.59375 -1.140625 -0.59375 -2.796875q0 -1.609375 0.546875 -2.78125q0.546875 -1.1875 1.53125 -1.828125q0.984375 -0.640625 2.328125 -0.640625zm-0.015625 1.25q-1.21875 0 -1.9375 0.796875q-0.71875 0.78125 -0.859375 2.203125l5.296875 0q-0.015625 -0.890625 -0.28125 -1.5625q-0.265625 -0.6875 -0.8125 -1.0625q-0.546875 -0.375 -1.40625 -0.375zm11.179016 -1.25q0.3125 0 0.640625 0.03125q0.328125 0.03125 0.578125 0.09375l-0.1875 1.40625q-0.25 -0.0625 -0.5625 -0.09375q-0.296875 -0.046875 -0.546875 -0.046875q-0.609375 0 -1.140625 0.25q-0.53125 0.234375 -0.9375 0.6875q-0.390625 0.453125 -0.625 1.09375q-0.234375 0.625 -0.234375 1.390625l0 5.359375l-1.515625 0l0 -9.984375l1.25 0l0.171875 1.84375l0.0625 0q0.3125 -0.5625 0.75 -1.015625q0.4375 -0.46875 1.015625 -0.734375q0.578125 -0.28125 1.28125 -0.28125zm9.54657 7.4375q0 0.953125 -0.484375 1.609375q-0.46875 0.65625 -1.359375 0.984375q-0.890625 0.328125 -2.109375 0.328125q-1.046875 0 -1.8125 -0.171875q-0.765625 -0.15625 -1.34375 -0.46875l0 -1.390625q0.609375 0.296875 1.453125 0.546875q0.859375 0.25 1.734375 0.25q1.296875 0 1.875 -0.421875q0.59375 -0.421875 0.59375 -1.140625q0 -0.40625 -0.234375 -0.71875q-0.234375 -0.3125 -0.78125 -0.609375q-0.546875 -0.296875 -1.515625 -0.65625q-0.953125 -0.359375 -1.65625 -0.71875q-0.6875 -0.359375 -1.078125 -0.875q-0.375 -0.53125 -0.375 -1.359375q0 -1.265625 1.015625 -1.9375q1.03125 -0.6875 2.703125 -0.6875q0.90625 0 1.6875 0.1875q0.796875 0.171875 1.46875 0.46875l-0.5 1.21875q-0.625 -0.265625 -1.328125 -0.4375q-0.703125 -0.1875 -1.421875 -0.1875q-1.046875 0 -1.609375 0.34375q-0.5625 0.34375 -0.5625 0.9375q0 0.46875 0.25 0.78125q0.265625 0.296875 0.84375 0.5625q0.578125 0.25 1.515625 0.609375q0.9375 0.34375 1.609375 0.71875q0.6875 0.375 1.046875 0.90625q0.375 0.515625 0.375 1.328125zm15.408997 2.71875l-1.78125 -5.8125q-0.109375 -0.375 -0.21875 -0.734375q-0.109375 -0.359375 -0.203125 -0.6875q-0.078125 -0.34375 -0.140625 -0.625q-0.0625 -0.28125 -0.109375 -0.5l-0.0625 0q-0.046875 0.21875 -0.109375 0.5q-0.0625 0.28125 -0.15625 0.625q-0.078125 0.328125 -0.1875 0.703125q-0.09375 0.375 -0.21875 0.75l-1.859375 5.78125l-1.703125 0l-2.75 -9.984375l1.5625 0l1.4375 5.515625q0.15625 0.546875 0.28125 1.078125q0.140625 0.53125 0.234375 1.0q0.09375 0.46875 0.140625 0.8125l0.0625 0q0.0625 -0.234375 0.125 -0.546875q0.078125 -0.3125 0.15625 -0.671875q0.09375 -0.359375 0.1875 -0.71875q0.109375 -0.375 0.203125 -0.6875l1.84375 -5.78125l1.625 0l1.78125 5.765625q0.140625 0.4375 0.265625 0.921875q0.125 0.46875 0.234375 0.921875q0.109375 0.4375 0.15625 0.78125l0.078125 0q0.03125 -0.3125 0.125 -0.765625q0.109375 -0.453125 0.234375 -1.0q0.140625 -0.546875 0.28125 -1.109375l1.46875 -5.515625l1.53125 0l-2.75 9.984375l-1.765625 0zm7.847351 -9.96875l0 9.984375l-1.515625 0l0 -9.984375l1.515625 0zm-0.734375 -3.734375q0.359375 0 0.625 0.25q0.28125 0.234375 0.28125 0.75q0 0.5 -0.28125 0.75q-0.265625 0.234375 -0.625 0.234375q-0.390625 0 -0.65625 -0.234375q-0.265625 -0.25 -0.265625 -0.75q0 -0.515625 0.265625 -0.75q0.265625 -0.25 0.65625 -0.25zm7.147156 12.65625q0.375 0 0.765625 -0.0625q0.390625 -0.0625 0.640625 -0.15625l0 1.1875q-0.265625 0.109375 -0.734375 0.1875q-0.46875 0.09375 -0.90625 0.09375q-0.796875 0 -1.453125 -0.28125q-0.640625 -0.28125 -1.03125 -0.9375q-0.375 -0.671875 -0.375 -1.84375l0 -5.921875l-1.421875 0l0 -0.734375l1.421875 -0.59375l0.609375 -2.171875l0.90625 0l0 2.3125l2.921875 0l0 1.1875l-2.921875 0l0 5.875q0 0.9375 0.421875 1.40625q0.4375 0.453125 1.15625 0.453125zm4.9467773 -13.109375l0 4.234375q0 0.359375 -0.03125 0.734375q-0.015625 0.359375 -0.046875 0.671875l0.09375 0q0.3125 -0.53125 0.78125 -0.890625q0.484375 -0.359375 1.09375 -0.53125q0.609375 -0.1875 1.296875 -0.1875q1.203125 0 2.0 0.390625q0.8125 0.375 1.21875 1.171875q0.40625 0.796875 0.40625 2.078125l0 6.5l-1.5 0l0 -6.40625q0 -1.25 -0.578125 -1.859375q-0.5625 -0.625 -1.734375 -0.625q-1.109375 0 -1.765625 0.421875q-0.65625 0.421875 -0.953125 1.25q-0.28125 0.8125 -0.28125 2.0l0 5.21875l-1.515625 0l0 -14.171875l1.515625 0zm19.084656 14.171875l-1.546875 0l0 -11.953125l-4.203125 0l0 -1.359375l9.921875 0l0 1.359375l-4.171875 0l0 11.953125zm10.494263 -10.171875q0.3125 0 0.640625 0.03125q0.328125 0.03125 0.578125 0.09375l-0.1875 1.40625q-0.25 -0.0625 -0.5625 -0.09375q-0.296875 -0.046875 -0.546875 -0.046875q-0.609375 0 -1.140625 0.25q-0.53125 0.234375 -0.9375 0.6875q-0.390625 0.453125 -0.625 1.09375q-0.234375 0.625 -0.234375 1.390625l0 5.359375l-1.515625 0l0 -9.984375l1.25 0l0.171875 1.84375l0.0625 0q0.3125 -0.5625 0.75 -1.015625q0.4375 -0.46875 1.015625 -0.734375q0.578125 -0.28125 1.28125 -0.28125zm11.343384 0.1875l0 9.984375l-1.25 0l-0.21875 -1.40625l-0.078125 0q-0.3125 0.515625 -0.8125 0.875q-0.484375 0.359375 -1.09375 0.53125q-0.609375 0.1875 -1.3125 0.1875q-1.171875 0 -1.984375 -0.375q-0.796875 -0.390625 -1.203125 -1.1875q-0.40625 -0.8125 -0.40625 -2.0625l0 -6.546875l1.53125 0l0 6.4375q0 1.234375 0.5625 1.859375q0.5625 0.609375 1.71875 0.609375q1.109375 0 1.765625 -0.40625q0.671875 -0.421875 0.953125 -1.234375q0.296875 -0.828125 0.296875 -2.015625l0 -5.25l1.53125 0zm9.644653 7.25q0 0.953125 -0.484375 1.609375q-0.46875 0.65625 -1.359375 0.984375q-0.890625 0.328125 -2.109375 0.328125q-1.046875 0 -1.8125 -0.171875q-0.765625 -0.15625 -1.34375 -0.46875l0 -1.390625q0.609375 0.296875 1.453125 0.546875q0.859375 0.25 1.734375 0.25q1.296875 0 1.875 -0.421875q0.59375 -0.421875 0.59375 -1.140625q0 -0.40625 -0.234375 -0.71875q-0.234375 -0.3125 -0.78125 -0.609375q-0.546875 -0.296875 -1.515625 -0.65625q-0.953125 -0.359375 -1.65625 -0.71875q-0.6875 -0.359375 -1.078125 -0.875q-0.375 -0.53125 -0.375 -1.359375q0 -1.265625 1.015625 -1.9375q1.03125 -0.6875 2.703125 -0.6875q0.90625 0 1.6875 0.1875q0.796875 0.171875 1.46875 0.46875l-0.5 1.21875q-0.625 -0.265625 -1.328125 -0.4375q-0.703125 -0.1875 -1.421875 -0.1875q-1.046875 0 -1.609375 0.34375q-0.5625 0.34375 -0.5625 0.9375q0 0.46875 0.25 0.78125q0.265625 0.296875 0.84375 0.5625q0.578125 0.25 1.515625 0.609375q0.9375 0.34375 1.609375 0.71875q0.6875 0.375 1.046875 0.90625q0.375 0.515625 0.375 1.328125zm5.656494 1.671875q0.375 0 0.765625 -0.0625q0.390625 -0.0625 0.640625 -0.15625l0 1.1875q-0.265625 0.109375 -0.734375 0.1875q-0.46875 0.09375 -0.90625 0.09375q-0.796875 0 -1.453125 -0.28125q-0.640625 -0.28125 -1.03125 -0.9375q-0.375 -0.671875 -0.375 -1.84375l0 -5.921875l-1.421875 0l0 -0.734375l1.421875 -0.59375l0.609375 -2.171875l0.90625 0l0 2.3125l2.921875 0l0 1.1875l-2.921875 0l0 5.875q0 0.9375 0.421875 1.40625q0.4375 0.453125 1.15625 0.453125zm7.2749634 -9.109375q1.28125 0 2.1875 0.578125q0.90625 0.5625 1.390625 1.578125q0.484375 1.015625 0.484375 2.375l0 0.9375l-6.890625 0q0.015625 1.75 0.859375 2.671875q0.859375 0.921875 2.390625 0.921875q0.953125 0 1.671875 -0.171875q0.734375 -0.171875 1.53125 -0.515625l0 1.328125q-0.765625 0.34375 -1.515625 0.5q-0.734375 0.15625 -1.75 0.15625q-1.4375 0 -2.515625 -0.59375q-1.0625 -0.59375 -1.65625 -1.71875q-0.59375 -1.140625 -0.59375 -2.796875q0 -1.609375 0.546875 -2.78125q0.546875 -1.1875 1.53125 -1.828125q0.984375 -0.640625 2.328125 -0.640625zm-0.015625 1.25q-1.21875 0 -1.9375 0.796875q-0.71875 0.78125 -0.859375 2.203125l5.296875 0q-0.015625 -0.890625 -0.28125 -1.5625q-0.265625 -0.6875 -0.8125 -1.0625q-0.546875 -0.375 -1.40625 -0.375zm10.194641 9.109375q-1.890625 0 -3.0 -1.296875q-1.109375 -1.296875 -1.109375 -3.84375q0 -2.578125 1.125 -3.890625q1.140625 -1.328125 3.015625 -1.328125q0.796875 0 1.390625 0.21875q0.59375 0.203125 1.015625 0.5625q0.421875 0.34375 0.71875 0.796875l0.109375 0q-0.03125 -0.28125 -0.078125 -0.765625q-0.03125 -0.5 -0.03125 -0.8125l0 -4.0l1.515625 0l0 14.171875l-1.21875 0l-0.234375 -1.421875l-0.0625 0q-0.28125 0.453125 -0.71875 0.8125q-0.421875 0.359375 -1.03125 0.578125q-0.59375 0.21875 -1.40625 0.21875zm0.25 -1.265625q1.59375 0 2.25 -0.90625q0.671875 -0.90625 0.671875 -2.703125l0 -0.28125q0 -1.90625 -0.640625 -2.921875q-0.625 -1.015625 -2.28125 -1.015625q-1.40625 0 -2.09375 1.078125q-0.6875 1.0625 -0.6875 2.90625q0 1.84375 0.6875 2.84375q0.6875 1.0 2.09375 1.0zm20.213562 -2.46875q0 1.1875 -0.59375 2.03125q-0.59375 0.828125 -1.65625 1.265625q-1.046875 0.4375 -2.46875 0.4375q-0.765625 0 -1.4375 -0.078125q-0.671875 -0.078125 -1.234375 -0.203125q-0.5625 -0.140625 -1.0 -0.34375l0 -1.484375q0.6875 0.28125 1.671875 0.53125q0.984375 0.234375 2.0625 0.234375q1.0 0 1.6875 -0.265625q0.6875 -0.265625 1.046875 -0.765625q0.359375 -0.515625 0.359375 -1.234375q0 -0.671875 -0.296875 -1.125q-0.296875 -0.46875 -1.0 -0.84375q-0.6875 -0.390625 -1.890625 -0.8125q-0.84375 -0.296875 -1.5 -0.65625q-0.640625 -0.359375 -1.078125 -0.8125q-0.4375 -0.46875 -0.671875 -1.0625q-0.21875 -0.609375 -0.21875 -1.375q0 -1.0625 0.546875 -1.828125q0.546875 -0.765625 1.5 -1.171875q0.96875 -0.40625 2.21875 -0.40625q1.0625 0 1.96875 0.203125q0.90625 0.203125 1.65625 0.546875l-0.484375 1.328125q-0.71875 -0.296875 -1.53125 -0.5q-0.796875 -0.203125 -1.65625 -0.203125q-0.859375 0 -1.453125 0.25q-0.578125 0.25 -0.890625 0.703125q-0.296875 0.453125 -0.296875 1.078125q0 0.703125 0.28125 1.171875q0.296875 0.46875 0.953125 0.828125q0.65625 0.359375 1.734375 0.75q1.171875 0.421875 1.984375 0.90625q0.828125 0.484375 1.25 1.171875q0.4375 0.6875 0.4375 1.734375zm6.3237305 -6.625q1.28125 0 2.1875 0.578125q0.90625 0.5625 1.390625 1.578125q0.484375 1.015625 0.484375 2.375l0 0.9375l-6.890625 0q0.015625 1.75 0.859375 2.671875q0.859375 0.921875 2.390625 0.921875q0.953125 0 1.671875 -0.171875q0.734375 -0.171875 1.53125 -0.515625l0 1.328125q-0.765625 0.34375 -1.515625 0.5q-0.734375 0.15625 -1.75 0.15625q-1.4375 0 -2.515625 -0.59375q-1.0625 -0.59375 -1.65625 -1.71875q-0.59375 -1.140625 -0.59375 -2.796875q0 -1.609375 0.546875 -2.78125q0.546875 -1.1875 1.53125 -1.828125q0.984375 -0.640625 2.328125 -0.640625zm-0.015625 1.25q-1.21875 0 -1.9375 0.796875q-0.71875 0.78125 -0.859375 2.203125l5.296875 0q-0.015625 -0.890625 -0.28125 -1.5625q-0.265625 -0.6875 -0.8125 -1.0625q-0.546875 -0.375 -1.40625 -0.375zm11.179077 -1.25q0.3125 0 0.640625 0.03125q0.328125 0.03125 0.578125 0.09375l-0.1875 1.40625q-0.25 -0.0625 -0.5625 -0.09375q-0.296875 -0.046875 -0.546875 -0.046875q-0.609375 0 -1.140625 0.25q-0.53125 0.234375 -0.9375 0.6875q-0.390625 0.453125 -0.625 1.09375q-0.234375 0.625 -0.234375 1.390625l0 5.359375l-1.515625 0l0 -9.984375l1.25 0l0.171875 1.84375l0.0625 0q0.3125 -0.5625 0.75 -1.015625q0.4375 -0.46875 1.015625 -0.734375q0.578125 -0.28125 1.28125 -0.28125zm5.296509 10.171875l-3.796875 -9.984375l1.625 0l2.1875 6.046875q0.234375 0.609375 0.46875 1.359375q0.234375 0.75 0.328125 1.203125l0.0625 0q0.109375 -0.453125 0.359375 -1.203125q0.265625 -0.75 0.46875 -1.359375l2.203125 -6.046875l1.609375 0l-3.796875 9.984375l-1.71875 0zm8.631531 -9.984375l0 9.984375l-1.515625 0l0 -9.984375l1.515625 0zm-0.734375 -3.734375q0.359375 0 0.625 0.25q0.28125 0.234375 0.28125 0.75q0 0.5 -0.28125 0.75q-0.265625 0.234375 -0.625 0.234375q-0.390625 0 -0.65625 -0.234375q-0.265625 -0.25 -0.265625 -0.75q0 -0.515625 0.265625 -0.75q0.265625 -0.25 0.65625 -0.25zm7.9283447 13.90625q-1.34375 0 -2.375 -0.546875q-1.03125 -0.5625 -1.609375 -1.703125q-0.578125 -1.140625 -0.578125 -2.875q0 -1.8125 0.609375 -2.96875q0.609375 -1.15625 1.671875 -1.703125q1.0625 -0.5625 2.421875 -0.5625q0.75 0 1.4375 0.15625q0.703125 0.15625 1.15625 0.375l-0.453125 1.265625q-0.453125 -0.171875 -1.0625 -0.3125q-0.59375 -0.15625 -1.109375 -0.15625q-1.03125 0 -1.734375 0.453125q-0.6875 0.4375 -1.03125 1.3125q-0.328125 0.859375 -0.328125 2.125q0 1.203125 0.328125 2.0625q0.328125 0.859375 0.984375 1.3125q0.671875 0.453125 1.65625 0.453125q0.796875 0 1.4375 -0.171875q0.640625 -0.171875 1.15625 -0.390625l0 1.34375q-0.5 0.25 -1.125 0.390625q-0.609375 0.140625 -1.453125 0.140625zm8.780151 -10.359375q1.28125 0 2.1875 0.578125q0.90625 0.5625 1.390625 1.578125q0.484375 1.015625 0.484375 2.375l0 0.9375l-6.890625 0q0.015625 1.75 0.859375 2.671875q0.859375 0.921875 2.390625 0.921875q0.953125 0 1.671875 -0.171875q0.734375 -0.171875 1.53125 -0.515625l0 1.328125q-0.765625 0.34375 -1.515625 0.5q-0.734375 0.15625 -1.75 0.15625q-1.4375 0 -2.515625 -0.59375q-1.0625 -0.59375 -1.65625 -1.71875q-0.59375 -1.140625 -0.59375 -2.796875q0 -1.609375 0.546875 -2.78125q0.546875 -1.1875 1.53125 -1.828125q0.984375 -0.640625 2.328125 -0.640625zm-0.015625 1.25q-1.21875 0 -1.9375 0.796875q-0.71875 0.78125 -0.859375 2.203125l5.296875 0q-0.015625 -0.890625 -0.28125 -1.5625q-0.265625 -0.6875 -0.8125 -1.0625q-0.546875 -0.375 -1.40625 -0.375zm15.197205 -4.390625q2.578125 0 3.765625 1.0q1.1875 1.0 1.1875 2.890625q0 0.84375 -0.28125 1.609375q-0.265625 0.75 -0.890625 1.328125q-0.609375 0.578125 -1.625 0.921875q-1.0 0.328125 -2.46875 0.328125l-1.609375 0l0 5.234375l-1.546875 0l0 -13.3125l3.46875 0zm-0.140625 1.3125l-1.78125 0l0 5.4375l1.4375 0q1.28125 0 2.125 -0.265625q0.859375 -0.28125 1.28125 -0.890625q0.4375 -0.625 0.4375 -1.640625q0 -1.328125 -0.859375 -1.984375q-0.84375 -0.65625 -2.640625 -0.65625zm12.19165 1.828125q0.3125 0 0.640625 0.03125q0.328125 0.03125 0.578125 0.09375l-0.1875 1.40625q-0.25 -0.0625 -0.5625 -0.09375q-0.296875 -0.046875 -0.546875 -0.046875q-0.609375 0 -1.140625 0.25q-0.53125 0.234375 -0.9375 0.6875q-0.390625 0.453125 -0.625 1.09375q-0.234375 0.625 -0.234375 1.390625l0 5.359375l-1.515625 0l0 -9.984375l1.25 0l0.171875 1.84375l0.0625 0q0.3125 -0.5625 0.75 -1.015625q0.4375 -0.46875 1.015625 -0.734375q0.578125 -0.28125 1.28125 -0.28125zm11.702759 5.15625q0 1.234375 -0.328125 2.203125q-0.3125 0.96875 -0.921875 1.640625q-0.59375 0.65625 -1.453125 1.015625q-0.84375 0.34375 -1.921875 0.34375q-1.0 0 -1.828125 -0.34375q-0.828125 -0.359375 -1.4375 -1.015625q-0.609375 -0.671875 -0.953125 -1.640625q-0.328125 -0.96875 -0.328125 -2.203125q0 -1.640625 0.5625 -2.78125q0.5625 -1.15625 1.59375 -1.765625q1.03125 -0.609375 2.453125 -0.609375q1.375 0 2.390625 0.609375q1.03125 0.609375 1.59375 1.765625q0.578125 1.15625 0.578125 2.78125zm-7.59375 0q0 1.203125 0.3125 2.09375q0.328125 0.875 0.984375 1.359375q0.671875 0.484375 1.71875 0.484375q1.03125 0 1.703125 -0.484375q0.671875 -0.484375 0.984375 -1.359375q0.328125 -0.890625 0.328125 -2.09375q0 -1.1875 -0.328125 -2.046875q-0.3125 -0.875 -0.984375 -1.34375q-0.65625 -0.484375 -1.71875 -0.484375q-1.5625 0 -2.28125 1.03125q-0.71875 1.03125 -0.71875 2.84375zm12.4104 5.015625l-3.796875 -9.984375l1.625 0l2.1875 6.046875q0.234375 0.609375 0.46875 1.359375q0.234375 0.75 0.328125 1.203125l0.0625 0q0.109375 -0.453125 0.359375 -1.203125q0.265625 -0.75 0.46875 -1.359375l2.203125 -6.046875l1.609375 0l-3.796875 9.984375l-1.71875 0zm8.631531 -9.984375l0 9.984375l-1.515625 0l0 -9.984375l1.515625 0zm-0.734375 -3.734375q0.359375 0 0.625 0.25q0.28125 0.234375 0.28125 0.75q0 0.5 -0.28125 0.75q-0.265625 0.234375 -0.625 0.234375q-0.390625 0 -0.65625 -0.234375q-0.265625 -0.25 -0.265625 -0.75q0 -0.515625 0.265625 -0.75q0.265625 -0.25 0.65625 -0.25zm7.4752197 13.90625q-1.890625 0 -3.0 -1.296875q-1.109375 -1.296875 -1.109375 -3.84375q0 -2.578125 1.125 -3.890625q1.140625 -1.328125 3.015625 -1.328125q0.796875 0 1.390625 0.21875q0.59375 0.203125 1.015625 0.5625q0.421875 0.34375 0.71875 0.796875l0.109375 0q-0.03125 -0.28125 -0.078125 -0.765625q-0.03125 -0.5 -0.03125 -0.8125l0 -4.0l1.515625 0l0 14.171875l-1.21875 0l-0.234375 -1.421875l-0.0625 0q-0.28125 0.453125 -0.71875 0.8125q-0.421875 0.359375 -1.03125 0.578125q-0.59375 0.21875 -1.40625 0.21875zm0.25 -1.265625q1.59375 0 2.25 -0.90625q0.671875 -0.90625 0.671875 -2.703125l0 -0.28125q0 -1.90625 -0.640625 -2.921875q-0.625 -1.015625 -2.28125 -1.015625q-1.40625 0 -2.09375 1.078125q-0.6875 1.0625 -0.6875 2.90625q0 1.84375 0.6875 2.84375q0.6875 1.0 2.09375 1.0zm11.46106 -9.09375q1.28125 0 2.1875 0.578125q0.90625 0.5625 1.390625 1.578125q0.484375 1.015625 0.484375 2.375l0 0.9375l-6.890625 0q0.015625 1.75 0.859375 2.671875q0.859375 0.921875 2.390625 0.921875q0.953125 0 1.671875 -0.171875q0.734375 -0.171875 1.53125 -0.515625l0 1.328125q-0.765625 0.34375 -1.515625 0.5q-0.734375 0.15625 -1.75 0.15625q-1.4375 0 -2.515625 -0.59375q-1.0625 -0.59375 -1.65625 -1.71875q-0.59375 -1.140625 -0.59375 -2.796875q0 -1.609375 0.546875 -2.78125q0.546875 -1.1875 1.53125 -1.828125q0.984375 -0.640625 2.328125 -0.640625zm-0.015625 1.25q-1.21875 0 -1.9375 0.796875q-0.71875 0.78125 -0.859375 2.203125l5.296875 0q-0.015625 -0.890625 -0.28125 -1.5625q-0.265625 -0.6875 -0.8125 -1.0625q-0.546875 -0.375 -1.40625 -0.375zm11.179077 -1.25q0.3125 0 0.640625 0.03125q0.328125 0.03125 0.578125 0.09375l-0.1875 1.40625q-0.25 -0.0625 -0.5625 -0.09375q-0.296875 -0.046875 -0.546875 -0.046875q-0.609375 0 -1.140625 0.25q-0.53125 0.234375 -0.9375 0.6875q-0.390625 0.453125 -0.625 1.09375q-0.234375 0.625 -0.234375 1.390625l0 5.359375l-1.515625 0l0 -9.984375l1.25 0l0.171875 1.84375l0.0625 0q0.3125 -0.5625 0.75 -1.015625q0.4375 -0.46875 1.015625 -0.734375q0.578125 -0.28125 1.28125 -0.28125zm9.546509 7.4375q0 0.953125 -0.484375 1.609375q-0.46875 0.65625 -1.359375 0.984375q-0.890625 0.328125 -2.109375 0.328125q-1.046875 0 -1.8125 -0.171875q-0.765625 -0.15625 -1.34375 -0.46875l0 -1.390625q0.609375 0.296875 1.453125 0.546875q0.859375 0.25 1.734375 0.25q1.296875 0 1.875 -0.421875q0.59375 -0.421875 0.59375 -1.140625q0 -0.40625 -0.234375 -0.71875q-0.234375 -0.3125 -0.78125 -0.609375q-0.546875 -0.296875 -1.515625 -0.65625q-0.953125 -0.359375 -1.65625 -0.71875q-0.6875 -0.359375 -1.078125 -0.875q-0.375 -0.53125 -0.375 -1.359375q0 -1.265625 1.015625 -1.9375q1.03125 -0.6875 2.703125 -0.6875q0.90625 0 1.6875 0.1875q0.796875 0.171875 1.46875 0.46875l-0.5 1.21875q-0.625 -0.265625 -1.328125 -0.4375q-0.703125 -0.1875 -1.421875 -0.1875q-1.046875 0 -1.609375 0.34375q-0.5625 0.34375 -0.5625 0.9375q0 0.46875 0.25 0.78125q0.265625 0.296875 0.84375 0.5625q0.578125 0.25 1.515625 0.609375q0.9375 0.34375 1.609375 0.71875q0.6875 0.375 1.046875 0.90625q0.375 0.515625 0.375 1.328125z" fill-rule="nonzero"/><path fill="#4e1d16" d="m165.15314 441.7884l-143.66727 0.40570068c-6.841299 25.687134 88.12552 31.016327 136.16212 31.514221l7.505142 -31.919922z" fill-rule="evenodd"/><path fill="#000000" d="m95.44934 278.46393c-8.685318 0 -14.512405 2.0653076 -14.512405 2.0653076l0 13.922302l35.5895 0l0 -11.672607c-7.726425 -3.337677 -15.065605 -4.3150024 -21.077095 -4.3150024z" fill-rule="evenodd"/><path fill="#4e1d16" d="m211.16133 365.24332c0 0 -56.777252 22.847351 -48.516068 46.02661c0.5716553 1.6411743 2.102188 2.3603516 4.3150024 2.3603516c13.701035 0 53.623978 -27.549591 53.623978 -27.549591l-9.422913 -20.837372z" fill-rule="evenodd"/><path fill="#e4976d" d="m221.50626 353.64444l-67.52786 41.85916c0 0 33.76393 32.98944 59.045395 32.98944c9.44136 0 17.702545 -4.6100464 22.57074 -17.223114l-14.088272 -57.62549z" fill-rule="evenodd"/><path fill="#ffffff" d="m162.2396 304.778c-22.662964 0 -36.861877 64.70651 -36.861877 64.70651l37.267548 41.7854c9.164764 -34.354004 65.20441 -55.117615 65.20441 -55.117615c0 0 -50.692 -48.01819 -62.696533 -51.023926c-0.9957733 -0.23971558 -1.9546661 -0.3503723 -2.9135437 -0.3503723z" fill-rule="evenodd"/><path stroke="#000000" stroke-width="1.0" stroke-linejoin="round" stroke-linecap="butt" d="m162.2396 304.778c-22.662964 0 -36.861877 64.70651 -36.861877 64.70651l37.267548 41.7854c9.164764 -34.354004 65.20441 -55.117615 65.20441 -55.117615c0 0 -50.692 -48.01819 -62.696533 -51.023926c-0.9957733 -0.23971558 -1.9546661 -0.3503723 -2.9135437 -0.3503723z" fill-rule="evenodd"/><path fill="#000000" fill-opacity="0.1698" d="m160.30338 332.21698l-34.92566 37.267548l31.422028 35.27603c25.189255 -24.433197 3.5036316 -72.54358 3.5036316 -72.54358z" fill-rule="evenodd"/><path fill="#4e1d16" d="m-28.689802 363.12268c-3.3007889 0 -6.011492 0.9404602 -7.855509 3.116394c-8.3349495 9.920807 62.456814 58.289337 62.456814 58.289337l12.742149 -22.847351c0 0 -46.081955 -38.55838 -67.34345 -38.55838z" fill-rule="evenodd"/><path fill="#e4976d" d="m-2.61542 338.0625c0 0 -24.931093 33.007904 -39.351295 55.449554c-4.997284 7.744873 -8.666874 14.254242 -9.754845 17.757874c-0.7560463 2.489441 -1.751812 8.076813 -2.7475815 15.508179c-4.0015144 28.34253 -9.091 83.29419 -7.265423 94.37674c0.6822853 4.591614 8.353394 13.922302 11.930782 14.678345c0.11064148 0.018432617 0.2397232 0.036865234 0.38724518 0.036865234c1.6596107 0 6.02993 -1.4567261 6.02993 -1.4567261c0 0 1.3645706 3.4851685 4.462517 3.4851685c0.25816345 0 0.5163269 -0.018432617 0.7929268 -0.07373047c1.4936523 -0.3319702 7.5973454 -3.411438 7.5973454 -3.411438c0 0 2.710703 1.9177856 4.9604034 1.9177856c0.36880302 0 0.70072556 -0.055358887 1.0326481 -0.16601562c3.005745 -1.1616821 5.2554455 -4.4993896 5.2554455 -4.4993896c0 0 7.6711054 -0.7560425 8.500913 -1.9177856c0.8298063 -1.2539062 4.7575603 -9.68103 3.2454672 -11.7647705c-1.4936523 -2.0837402 -6.6568966 -7.1732483 -6.6568966 -7.1732483c1.9177761 -9.422913 17.997593 -83.533905 17.997593 -83.533905l42.523003 -49.696228l-48.940178 -39.517273z" fill-rule="evenodd"/><path fill="#d47c56" d="m-41.966717 393.58582c-4.997284 7.671112 -8.759075 14.180481 -9.754845 17.684113c-0.7560463 2.489441 -1.751812 8.076813 -2.7475815 15.508179c0.4056816 0.23971558 0.9220085 0.4978943 1.3276901 0.6638489c1.1248512 0.44256592 2.3050194 0.64541626 3.4851913 0.64541626c5.7902107 0 11.986103 -4.9788513 15.0287285 -12.649963l-0.09220123 0c3.669592 -9.183197 1.4198914 -18.772064 -5.071045 -21.353699c-0.7560463 -0.23971558 -1.4198914 -0.40567017 -2.1759377 -0.4978943z" fill-rule="evenodd"/><path fill="#000000" fill-opacity="0.0" d="m3.8017545 427.276l-11.912342 -11.100983" fill-rule="evenodd"/><path stroke="#000000" stroke-width="1.0" stroke-linejoin="round" stroke-linecap="round" d="m3.8017545 427.276l-11.912342 -11.100983" fill-rule="evenodd"/><path fill="#ffffff" d="m85.17817 284.27258c0 0 -49.935947 12.686829 -61.442604 17.094025c-3.5773907 1.4198914 -10.842813 8.261169 -19.085564 17.020264c-6.601577 7.081024 -13.848558 15.342194 -20.431694 22.921112c-11.432898 13.3506775 -20.763618 24.931091 -20.763618 24.931091c0 0 22.921116 4.665344 41.6932 20.505463c12.92655 10.842804 33.505768 14.936523 33.505768 14.936523l0.09220123 25.59494l118.14609 0l-4.167465 -52.2041l12.428665 -69.94351l-53.36582 -17.518158l-26.609146 -3.3376465z" fill-rule="evenodd"/><path fill="#000000" fill-opacity="0.0" d="m28.566887 304.6305c0 0 24.433208 15.415985 19.675648 46.192596" fill-rule="evenodd"/><path stroke="#000000" stroke-width="1.0" stroke-linejoin="round" stroke-linecap="round" d="m28.566887 304.6305c0 0 24.433208 15.415985 19.675648 46.192596" fill-rule="evenodd"/><path fill="#000000" fill-opacity="0.1698" d="m48.92482 369.48453l-10.271168 32.196533l0 25.59494l16.762104 0c-5.587368 -17.850067 -6.4909363 -57.791473 -6.4909363 -57.791473z" fill-rule="evenodd"/><path fill="#e4976d" d="m215.73448 252.57394c-0.7560425 0 -1.3830109 0.05531311 -1.8071289 0.18440247c-0.5163269 0.0921936 -1.0879669 0.49787903 -1.6780548 1.1801605c-3.6696014 3.6695862 -11.248505 22.091309 -13.00032 33.671722c-6.9150543 53.107666 -10.842804 93.141235 -10.842804 93.141235c0 0 22.12819 38.005188 38.1158 38.005188c1.8071442 0 3.540512 -0.47946167 5.163254 -1.5674133c15.913849 -10.676849 2.8213348 -119.63974 2.8213348 -119.6582l0 0c0.5900879 0.9220276 1.3461304 1.4198914 2.0837402 1.5858765c0.16596985 0.036865234 0.31347656 0.036865234 0.46099854 0.036865234c3.761795 0 8.390274 -7.578888 10.474014 -12.705261c1.1617279 -3.0057373 -4.831314 -8.66687 -4.831314 -8.66687c3.0794983 -4.0937195 -2.0099792 -12.096741 -2.0099792 -12.096741c0 0 -3.337677 -6.2512207 -5.495163 -8.427155c-1.8993378 -1.8809052 -14.125168 -4.6838074 -19.454376 -4.6838074z" fill-rule="evenodd"/><path fill="#000000" fill-opacity="0.0" d="m189.07002 377.41382l-3.6696014 18.753632" fill-rule="evenodd"/><path stroke="#000000" stroke-width="1.0" stroke-linejoin="round" stroke-linecap="round" d="m189.07002 377.41382l-3.6696014 18.753632" fill-rule="evenodd"/><path fill="#d47c56" d="m225.32336 402.1605c-3.0241852 0 -6.435608 0.9220276 -9.644196 2.7660217c-7.2654266 4.1674805 -10.769058 11.432922 -8.021469 16.172028c1.512085 2.6369324 4.5731506 4.001526 8.224304 4.001526c3.0241852 0 6.454056 -0.9404602 9.717972 -2.82135c7.2469788 -4.185913 10.75061 -11.340698 8.003021 -16.19046c-1.5121002 -2.6000671 -4.6100464 -3.927765 -8.279633 -3.927765z" fill-rule="evenodd"/><path fill="#6978b1" d="m229.8412 247.26318l-25.263016 9.662628c0 0 0.6638489 30.352509 24.341019 43.86914c0.7744751 0.44256592 1.862442 0.64541626 3.0979462 0.64541626c1.5674133 0 3.3560944 -0.3319397 5.0894775 -0.97732544c5.495163 -2.1759644 8.242752 -6.3434143 5.495163 -8.353394c-13.424438 -9.662659 -12.76059 -44.846466 -12.76059 -44.846466z" fill-rule="evenodd"/><path fill="#e4976d" d="m215.73448 252.57394c-0.7560425 0 -1.3830109 0.05531311 -1.8071289 0.18440247c-0.5163269 0.0921936 -1.0879669 0.49787903 -1.7518158 1.1801605c1.1617279 2.5816345 1.9177704 4.333435 1.9177704 4.333435c0 0 0.36880493 -0.036865234 0.90356445 -0.036865234c0.88513184 0 2.2312622 0.0921936 3.0057526 0.6085205c2.0099792 1.2539368 3.6695862 6.2512207 3.6695862 6.2512207c1.8440247 1.2539368 4.425644 1.7518005 4.425644 1.7518005c-2.2496948 4.0937195 -5.0894775 10.676849 -2.0837402 13.682617c0.46099854 0.40567017 0.9957733 0.5900574 1.5858612 0.5900574c0.47943115 0 1.0142059 -0.11062622 1.585846 -0.33190918l0 0c-0.018432617 0 -3.5036316 5.1632385 -0.0921936 8.242737c0.49787903 0.4241333 1.0879669 0.608551 1.7518158 0.608551c1.4567719 0 3.2270203 -0.903595 4.9972687 -2.268158l0.16596985 0.23971558c0 0 -3.5773926 6.4171753 0.49787903 9.920807l2.0837402 1.5858765c0.16596985 0.036865234 0.31347656 0.036865234 0.46099854 0.036865234c3.761795 0 8.390274 -7.578888 10.474014 -12.705261l-0.0921936 0c1.2539215 -3.0057373 -4.8313293 -8.66687 -4.8313293 -8.66687c3.1717072 -4.0937195 -1.9177704 -12.096741 -1.9177704 -12.096741c0 0 -3.337677 -6.2512207 -5.587372 -8.427155c-1.8255768 -1.8809052 -14.032959 -4.6838074 -19.362167 -4.6838074z" fill-rule="evenodd"/><path fill="#ffffff" d="m259.8618 177.13525c0 0 -9.422928 18.255768 -64.78027 32.528442c-14.346451 3.6695862 -23.437439 17.001831 -20.92958 30.518463c2.3050232 12.428665 13.719482 21.113983 26.959503 21.113983c1.1432953 0 2.3050232 -0.05532837 3.466751 -0.20285034c10.861252 -1.2354736 20.19197 -1.7333679 28.21344 -1.7333679c33.874573 0 43.906006 8.998779 43.906006 8.998779l-8.408691 -45.602493l-8.427155 -45.620956z" fill-rule="evenodd"/><path fill="#6978b1" d="m195.08151 209.6637l0 0c-14.346451 3.6695862 -23.437439 17.001831 -20.92958 30.518463c2.3050232 12.428665 13.719482 21.113983 26.959503 21.113983c1.1432953 0 2.3050232 -0.05532837 3.466751 -0.20285034c0 0 -11.912338 -6.9150543 -15.084045 -23.750916c-3.0795135 -16.92807 5.587372 -27.67868 5.587372 -27.67868z" fill-rule="evenodd"/><path fill="#4e1d16" d="m273.76566 171.64009c-1.217041 0 -2.434082 0.11064148 -3.6511536 0.33192444c-16.835861 3.0794983 -26.424744 27.43895 -21.42746 54.43535c4.646927 25.041733 20.247284 43.518753 35.958313 43.518753c1.1801758 0 2.3787842 -0.11062622 3.55896 -0.31347656c16.854279 -3.097931 26.443176 -27.51271 21.42746 -54.45378c-4.628479 -25.060165 -20.191986 -43.51877 -35.86612 -43.51877z" fill-rule="evenodd"/><path fill="#6978b1" d="m277.02957 209.40553l-29.670212 2.5816193c0 4.5915985 0.40568542 9.422928 1.3276825 14.346451c0.9220123 4.997284 2.24971 9.588882 3.9277496 13.9223175l28.674454 -8.168991l-4.1674805 -22.681396z" fill-rule="evenodd"/><path fill="#000000" fill-opacity="0.0" d="m282.61694 269.7786c13.516632 -6.767517 20.597656 -28.692871 16.171997 -52.70195c-4.407196 -24.009094 -18.919586 -41.932922 -33.92987 -43.352814" fill-rule="evenodd"/><path stroke="#ffffff" stroke-width="1.0" stroke-linejoin="round" stroke-linecap="round" d="m282.61694 269.7786c13.516632 -6.767517 20.597656 -28.692871 16.171997 -52.70195c-4.407196 -24.009094 -18.919586 -41.932922 -33.92987 -43.352814" fill-rule="evenodd"/><path fill="#e4976d" d="m214.55432 258.4748c-6.2696533 0 -18.698334 1.4936523 -19.140884 4.7944336c-0.8298187 6.509369 3.8355408 24.341003 3.8355408 24.341003c0.4241333 0.036895752 0.8298187 0.05532837 1.2170563 0.05532837c13.737915 0 12.871231 -19.048676 12.871231 -19.067108l0 0c0.6085205 4.1674805 2.4709778 8.961914 4.7944336 8.961914c0.9035797 0 1.8809052 -0.71917725 2.8766785 -2.4525452c3.5036163 -6.1774597 -1.4199066 -15.25 -3.0057526 -16.264221c-0.33192444 -0.23971558 -1.6411743 -0.36880493 -3.4483032 -0.36880493z" fill-rule="evenodd"/><path fill="#000000" fill-opacity="0.0" d="m228.1816 263.26923c0 0 -8.759079 12.76059 -4.1674805 17.26001c4.573166 4.333435 16.669907 -14.84433 16.669907 -14.84433" fill-rule="evenodd"/><path stroke="#000000" stroke-width="1.0" stroke-linejoin="round" stroke-linecap="round" d="m228.1816 263.26923c0 0 -8.759079 12.76059 -4.1674805 17.26001c4.573166 4.333435 16.669907 -14.84433 16.669907 -14.84433" fill-rule="evenodd"/><path fill="#000000" fill-opacity="0.0" d="m227.18582 280.78738c0 0 -3.5036316 5.1632385 0 8.242737c3.4114227 3.0057678 11.672623 -5.6611023 15.508179 -11.248474" fill-rule="evenodd"/><path stroke="#000000" stroke-width="1.0" stroke-linejoin="round" stroke-linecap="round" d="m227.18582 280.78738c0 0 -3.5036316 5.1632385 0 8.242737c3.4114227 3.0057678 11.672623 -5.6611023 15.508179 -11.248474" fill-rule="evenodd"/><path fill="#000000" fill-opacity="0.0" d="m234.00868 287.61023c0 0 -3.5773926 6.3434143 0.49787903 9.920807" fill-rule="evenodd"/><path stroke="#000000" stroke-width="1.0" stroke-linejoin="round" stroke-linecap="round" d="m234.00868 287.61023c0 0 -3.5773926 6.3434143 0.49787903 9.920807" fill-rule="evenodd"/><path fill="#000000" fill-opacity="0.0" d="m226.09785 266.84662c0 0 -2.5816193 -0.49786377 -4.425644 -1.8255615" fill-rule="evenodd"/><path stroke="#4e1d16" stroke-width="0.1548556430446194" stroke-linejoin="round" stroke-linecap="round" d="m226.09785 266.84662c0 0 -2.5816193 -0.49786377 -4.425644 -1.8255615" fill-rule="evenodd"/><path fill="#000000" fill-opacity="0.0" d="m208.17403 259.10175c0 0 7.15477 -1.6780396 9.828598 -0.2581482c2.6738281 1.3461304 7.505142 13.424438 2.5078583 18.182007c-4.997284 4.757538 -7.8370667 -5.421417 -7.173218 -8.427155" fill-rule="evenodd"/><path stroke="#000000" stroke-width="1.0" stroke-linejoin="round" stroke-linecap="round" d="m208.17403 259.10175c0 0 7.15477 -1.6780396 9.828598 -0.2581482c2.6738281 1.3461304 7.505142 13.424438 2.5078583 18.182007c-4.997284 4.757538 -7.8370667 -5.421417 -7.173218 -8.427155" fill-rule="evenodd"/><path fill="#000000" fill-opacity="0.0" d="m209.16978 283.70093c0 0 4.5915985 -5.919281 4.1674805 -15.102478" fill-rule="evenodd"/><path stroke="#000000" stroke-width="1.0" stroke-linejoin="round" stroke-linecap="round" d="m209.16978 283.70093c0 0 4.5915985 -5.919281 4.1674805 -15.102478" fill-rule="evenodd"/><path fill="#4e1d16" d="m127.05577 210.06938c-4.665367 0 -8.998802 2.8029022 -11.432899 3.4298706c-0.2766037 0.05531311 -0.57164764 0.0921936 -0.9220123 0.0921936c-3.0979462 0 -9.256958 -2.526291 -14.752121 -2.526291c-1.2170563 0 -2.3972244 0.1290741 -3.5036316 0.42411804c-13.092514 3.5036316 -15.010292 8.003021 -15.010292 8.003021c0 0 -0.8113632 -0.11064148 -2.0837326 -0.11064148c-4.0937195 0 -12.926552 1.1801758 -14.014519 11.119415c-1.2539368 11.414459 6.3434143 14.346451 6.3434143 14.346451l14.08828 35.681717l37.101593 -35.681717c1.3645706 -1.8624573 2.8397827 -2.5078583 4.2227936 -2.5078583c3.3561172 0 6.2880936 3.8355408 6.2880936 3.8355408c10.418686 -5.919281 -0.9219971 -15.010284 -0.9219971 -15.010284c8.66687 -3.6695862 5.495163 -16.835861 -0.75605774 -20.007568c-1.5489655 -0.792923 -3.1163788 -1.0879669 -4.6469116 -1.0879669z" fill-rule="evenodd"/><path fill="#e4976d" d="m88.51584 262.18127l-3.3376694 22.091309c0 0 0 14.678345 15.342209 14.678345c4.849762 0 11.008774 -3.7433472 11.100975 -8.003021l0.9035721 -23.58496l-24.009087 -5.181671z" fill-rule="evenodd"/><path fill="#000000" fill-opacity="0.0377" d="m96.02098 263.8593l-1.1617279 8.832855c0 0 -1.8624573 15.231567 13.037193 15.231567c1.1801682 0 2.4709778 -0.09222412 3.8908691 -0.31350708l0.73760986 -20.247284l-16.503944 -3.5036316z" fill-rule="evenodd"/><path fill="#e4976d" d="m122.57481 235.3324c-0.018440247 0 -0.036880493 0 -0.036880493 0c-1.2539291 4.7944336 -5.6795654 5.808655 -9.238518 5.808655c-2.6184998 0 -4.776001 -0.5532074 -4.776001 -0.5532074c2.8397827 -2.4894257 1.0142136 -4.8313293 1.0142136 -4.8313293l0 0c-11.266937 1.6596222 -20.026016 4.2412415 -20.026016 4.2412415c9.588882 13.018753 -4.4993973 21.021774 -4.4993973 21.021774c0 0 8.943474 17.425964 25.484299 17.425964c2.360344 0 4.868202 -0.3503723 7.5420227 -1.1617432c16.669907 -5.181671 8.925041 -22.515427 8.925041 -22.515427c-1.7518158 -7.8370667 -1.346138 -14.346451 -1.346138 -14.346451c0.7929306 -4.9419556 -2.63694 -5.0894775 -3.0426254 -5.0894775z" fill-rule="evenodd"/><path fill="#e4976d" d="m82.246185 254.252c-3.39299 0 -6.2880936 1.862442 -6.8966217 4.683792c-0.82980347 3.5036316 1.917778 7.081024 6.159012 8.076782c0.7560501 0.18441772 1.4936523 0.2581787 2.1943817 0.2581787c3.39299 0 6.2880936 -1.8624573 6.988823 -4.7575684c0.82980347 -3.411438 -2.0099792 -7.007248 -6.251213 -8.003021c-0.7560501 -0.16596985 -1.49366 -0.25816345 -2.1943817 -0.25816345z" fill-rule="evenodd"/><path fill="#000000" fill-opacity="0.0" d="m79.517044 258.17975c0 0 6.177452 -0.82980347 7.0072556 5.1817017" fill-rule="evenodd"/><path stroke="#000000" stroke-width="1.0" stroke-linejoin="round" stroke-linecap="round" d="m79.517044 258.17975c0 0 6.177452 -0.82980347 7.0072556 5.1817017" fill-rule="evenodd"/><path fill="#d47c56" d="m100.6679 256.16977c-0.07376099 0 -0.14752197 0.018432617 -0.22128296 0.018432617c-2.6738205 0.07376099 -4.8313217 1.6596375 -4.7575607 3.5036316c0.07376099 1.7333984 2.1021805 3.0979614 4.5731583 3.0979614c0.14752197 0 0.29504395 -0.018432617 0.42412567 -0.018432617c2.7660217 -0.09222412 4.849762 -1.5858765 4.7575607 -3.4298706c0 -1.7702637 -2.120613 -3.1717224 -4.776001 -3.1717224z" fill-rule="evenodd"/><path fill="#d47c56" d="m126.18908 253.05339c-0.36880493 0 -0.73760223 0.07376099 -1.1432877 0.1290741c-2.6738281 0.4978943 -4.5915985 2.323471 -4.1674805 4.1674805c0.2766037 1.4567566 1.991539 2.4525452 4.1121597 2.4525452c0.42412567 0 0.8482437 -0.036895752 1.2908096 -0.11065674c0.7560501 -0.16595459 1.4198914 -0.42410278 2.0099792 -0.7560425c-0.49788666 -2.507843 -1.3276901 -4.167465 -1.3276901 -4.167465c-0.09220123 -0.5900879 -0.25816345 -1.1617279 -0.33192444 -1.6780548c-0.14752197 -0.018447876 -0.29504395 -0.036880493 -0.44256592 -0.036880493z" fill-rule="evenodd"/><path fill="#000000" fill-opacity="0.0" d="m113.37317 249.51288c0 0 2.4894257 7.5051575 7.412941 7.671112c0 0 1.5858536 3.7433472 -4.4256363 4.0014954" fill-rule="evenodd"/><path stroke="#000000" stroke-width="1.0" stroke-linejoin="round" stroke-linecap="round" d="m113.37317 249.51288c0 0 2.4894257 7.5051575 7.412941 7.671112c0 0 1.5858536 3.7433472 -4.4256363 4.0014954" fill-rule="evenodd"/><path fill="#fefefe" d="m104.5219 248.7015c-2.0284195 0 -4.333435 0.6269684 -6.324974 2.7291412l0 0.07376099c0.18440247 0.18440247 2.194374 2.3787842 5.1816864 2.3787842c1.1432877 0 2.4340973 -0.33192444 3.8171082 -1.1986084c0.9220123 -0.5900879 1.917778 -1.4198914 2.8397827 -2.5816193c0 0 -1.1801682 -0.68229675 -2.9135437 -1.0879669c-0.7744827 -0.18440247 -1.6596146 -0.31349182 -2.6000595 -0.31349182z" fill-rule="evenodd"/><path fill="#4e1d16" d="m104.5219 248.7015c-2.0284195 0 -4.333435 0.6269684 -6.324974 2.7291412l0 0.07376099c0.18440247 0.18440247 2.194374 2.3787842 5.1816864 2.3787842c1.1432877 0 2.4340973 -0.33192444 3.8171082 -1.1986084c0.16596222 -0.82980347 0.25816345 -1.6780548 0.16596222 -2.5816193c-0.07376099 -0.4241333 -0.16596222 -0.75605774 -0.2397232 -1.0879669c-0.7744827 -0.18440247 -1.6596146 -0.31349182 -2.6000595 -0.31349182z" fill-rule="evenodd"/><path fill="#fefefe" d="m120.509514 246.6731c-1.4936523 0 -3.1163864 0.57164 -4.554718 2.4156647l0 0.0921936c0.1290741 0.18440247 1.7702484 2.6000671 4.2043533 2.6000671c0.82980347 0 1.7333755 -0.27661133 2.710701 -1.0142059c0.6638489 -0.4978943 1.4198914 -1.2539368 2.2497025 -2.3419037c0 0 -0.9220123 -0.82980347 -2.2497025 -1.3276978c-0.70072174 -0.23971558 -1.5120926 -0.42411804 -2.3603363 -0.42411804z" fill-rule="evenodd"/><path fill="#4e1d16" d="m120.527954 246.63622c-1.4936523 0 -3.1348267 0.5900879 -4.5731583 2.4525452c0.1290741 0.2581482 1.7886887 2.6922607 4.2043533 2.6922607c0.82980347 0 1.7333755 -0.27661133 2.710701 -1.0142059c0.16596222 -0.75605774 0.25816345 -1.6780548 0.09220123 -2.5816345c0 -0.33192444 -0.09220123 -0.7560425 -0.09220123 -1.0879669c-0.70072174 -0.27659607 -1.4936523 -0.46099854 -2.341896 -0.46099854z" fill-rule="evenodd"/><path fill="#000000" fill-opacity="0.0" d="m91.613785 269.7786c0 0 9.40448 10.824402 23.750923 8.169006" fill-rule="evenodd"/><path stroke="#000000" stroke-width="1.0" stroke-linejoin="round" stroke-linecap="round" d="m91.613785 269.7786c0 0 9.40448 10.824402 23.750923 8.169006" fill-rule="evenodd"/><path fill="#000000" fill-opacity="0.0" d="m100.0225 245.2532c0 0 2.5078583 -2.9873047 6.251213 -0.90356445" fill-rule="evenodd"/><path stroke="#000000" stroke-width="1.0" stroke-linejoin="round" stroke-linecap="round" d="m100.0225 245.2532c0 0 2.5078583 -2.9873047 6.251213 -0.90356445" fill-rule="evenodd"/><path fill="#000000" fill-opacity="0.0" d="m117.208725 243.50139c0 0 2.489418 -2.9873047 6.251213 -0.9957733" fill-rule="evenodd"/><path stroke="#000000" stroke-width="1.0" stroke-linejoin="round" stroke-linecap="round" d="m117.208725 243.50139c0 0 2.489418 -2.9873047 6.251213 -0.9957733" fill-rule="evenodd"/><path fill="#000000" fill-opacity="0.0" d="m106.77159 266.109c0 0 3.1717072 3.0057678 6.6753387 1.5858765" fill-rule="evenodd"/><path stroke="#000000" stroke-width="1.0" stroke-linejoin="round" stroke-linecap="round" d="m106.77159 266.109c0 0 3.1717072 3.0057678 6.6753387 1.5858765" fill-rule="evenodd"/><path fill="#e06f3e" d="m71.67998 287.7762l-18.182 4.757538c16.596146 43.352814 14.84433 69.27969 7.505146 84.71408c-9.828606 20.505463 -29.596455 22.589203 -29.596455 22.589203l-5.587366 23.677155l-4.333437 18.679901l143.66727 -0.40570068c-1.5121002 -6.6015625 -3.0979462 -12.852783 -4.5915985 -18.2742c-3.0057526 -11.08252 -5.513611 -18.753632 -5.513611 -18.753632l-2.1575012 -27.512726l-0.16595459 -2.1759338c-5.587372 -49.43805 -9.017242 -77.87277 -9.017242 -77.87277l-19.675652 -5.587372l-16.577698 55.707703l-35.773903 -59.543243z" fill-rule="evenodd"/><path fill="#fabd53" d="m61.003124 377.24783c-9.828606 20.505463 -29.596455 22.589203 -29.596455 22.589203l-5.587366 23.677155l134.74223 0c-3.0057526 -11.08252 -5.513611 -18.753632 -5.513611 -18.753632l-2.1575012 -27.512726z" fill-rule="evenodd"/><path fill="#000000" fill-opacity="0.0" d="m107.36168 347.31946l2.7475815 94.87463" fill-rule="evenodd"/><path stroke="#000000" stroke-width="1.0" stroke-linejoin="round" stroke-linecap="round" d="m107.36168 347.31946l2.7475815 94.87463" fill-rule="evenodd"/><path fill="#000000" fill-opacity="0.0" d="m31.40667 399.76328l-9.920803 42.430817" fill-rule="evenodd"/><path stroke="#000000" stroke-width="0.1548556430446194" stroke-linejoin="round" stroke-linecap="round" d="m31.40667 399.76328l-9.920803 42.430817" fill-rule="evenodd"/><path fill="#fabd53" d="m68.674225 288.3663l-10.584648 3.0057373l13.830116 34.92566l11.100975 -3.337677l-14.346443 -34.59372z" fill-rule="evenodd"/><path fill="#fabd53" d="m128.29126 292.79193l-3.9277573 31.422028l13.424431 2.0837402l2.9319916 -29.928375l-12.428665 -3.5773926z" fill-rule="evenodd"/><path fill="#ffffff" d="m80.936935 280.52924l-9.017242 5.4951477l16.024498 18.347961l6.8228607 -6.2512207c0 0 1.9730988 0.9220276 4.5178375 0.9220276c0.42412567 0 0.8666916 -0.036895752 1.3276901 -0.09222412l-1.7518158 -4.757538l-17.923828 -13.664154z" fill-rule="evenodd"/><path fill="#000000" d="m98.86076 294.1934l-4.093712 3.9277344c1.8255768 0.7560425 3.4298706 0.9220276 4.4993973 0.9220276c0.7929306 0 1.2539291 -0.09222412 1.2539291 -0.09222412l-1.6596146 -4.757538z" fill-rule="evenodd"/><path fill="#000000" fill-opacity="0.0" d="m73.09987 287.3705l14.844322 17.001831l10.252731 -8.500916" fill-rule="evenodd"/><path stroke="#000000" stroke-width="1.0" stroke-linejoin="round" stroke-linecap="round" d="m73.09987 287.3705l14.844322 17.001831l10.252731 -8.500916" fill-rule="evenodd"/><path fill="#ffffff" d="m116.526436 282.77893l-14.493965 12.170502l-1.5120926 4.0014954c0.40568542 0.05532837 0.77449036 0.07376099 1.1432953 0.07376099c2.2128143 0 3.872429 -0.73760986 3.872429 -0.73760986l5.9930496 5.2554626l13.848564 -15.434418l-8.85128 -5.329193z" fill-rule="evenodd"/><path fill="#000000" d="m102.03247 294.94943l-1.5120926 4.0014954c0 0 0.42412567 0.07376099 1.1432953 0.07376099c0.9220047 0 2.3050156 -0.12905884 3.872429 -0.73760986l0 -0.07376099l-3.5036316 -3.2638855z" fill-rule="evenodd"/><path fill="#000000" fill-opacity="0.0" d="m124.3635 289.1961l-12.834351 14.346436l-8.925034 -7.173218" fill-rule="evenodd"/><path stroke="#000000" stroke-width="1.0" stroke-linejoin="round" stroke-linecap="round" d="m124.3635 289.1961l-12.834351 14.346436l-8.925034 -7.173218" fill-rule="evenodd"/><path fill="#6978b1" d="m165.15314 441.7884l-133.48831 0.40570068c0 0 -29.522694 55.707703 -39.77542 97.80658l169.76009 0c0 0 6.159012 -67.71225 3.5036316 -98.21228z" fill-rule="evenodd"/><path fill="#000000" fill-opacity="0.0" d="m42.083523 454.4568c0 0 -26.350986 55.781464 -33.524208 85.543884" fill-rule="evenodd"/><path stroke="#ffffff" stroke-width="1.0" stroke-linejoin="round" stroke-linecap="round" d="m42.083523 454.4568c0 0 -26.350986 55.781464 -33.524208 85.543884" fill-rule="evenodd"/><path fill="#000000" fill-opacity="0.1698" d="m128.78914 441.86215l-97.124306 0.3319397c-3.0979462 5.255432 -10.510891 21.261505 -10.510891 21.261505c66.200165 -5.3292236 107.63519 -21.593445 107.63519 -21.593445z" fill-rule="evenodd"/><path fill="#000000" fill-opacity="0.0" d="m26.57535 452.2071c-8.925037 17.923828 -27.107033 56.611267 -34.685936 87.79358" fill-rule="evenodd"/><path stroke="#4e1d16" stroke-width="0.1548556430446194" stroke-linejoin="round" stroke-linecap="round" d="m26.57535 452.2071c-8.925037 17.923828 -27.107033 56.611267 -34.685936 87.79358" fill-rule="evenodd"/><path fill="#000000" fill-opacity="0.0" d="m338.84253 367.65417l275.1181 0" fill-rule="evenodd"/><path stroke="#000000" stroke-width="1.0" stroke-linejoin="round" stroke-linecap="butt" d="m338.84253 367.65417l275.1181 0" fill-rule="evenodd"/><path fill="#fabd53" d="m868.02545 415.73953c-6.4887085 0 -13.008789 1.0658264 -19.246704 3.1974182c-0.2821045 0 -0.56427 0.15673828 -0.9717407 0.282135c-0.2821045 0.15673828 -0.7210083 0.282135 -1.0031128 0.4388733c-0.564209 0.12536621 -1.0030518 0.40750122 -1.4105835 0.5642395l-3.981018 27.334808l-6.3632812 43.384583l-3.416809 23.259644l-3.8242798 25.767456l80.21564 0l-3.385437 -23.667175l-3.5421753 -24.231445l-6.3946533 -43.071106l-4.2317505 -28.776764c-7.1470337 -3.0093384 -14.795532 -4.482666 -22.444092 -4.482666z" fill-rule="evenodd"/><path fill="#e06f3e" d="m859.7186 446.45984c-6.300598 0 -12.538574 0.31347656 -18.306335 1.097168l-6.3632812 43.384583c7.460449 -1.7241211 16.174744 -2.3510437 24.983093 -2.3510437c15.798645 0 31.78534 2.0375671 41.063843 3.4795227l-6.3946533 -43.071106c-9.37262 -1.2538757 -22.255981 -2.5391235 -34.982666 -2.5391235z" fill-rule="evenodd"/><path fill="#e06f3e" d="m855.9884 512.9473c-6.0184937 0 -12.037048 0.18811035 -17.83612 0.6583252c-2.256958 0.15673828 -4.388489 0.31347656 -6.5200806 0.59558105l-3.8242798 25.767456l80.21564 0l-3.385437 -23.667175c-13.572998 -1.661438 -31.22107 -3.354187 -48.64972 -3.354187z" fill-rule="evenodd"/><path fill="#ffffff" fill-opacity="0.3459" d="m852.1955 417.93384c-1.128479 0.282135 -2.256958 0.5956116 -3.416748 1.0031128c-0.2821045 0.15673828 -0.56427 0.282135 -0.9717407 0.282135c-0.2821045 0.15673828 -0.7210083 0.282135 -1.0031128 0.4388733c-0.564209 0.2821045 -1.0030518 0.40750122 -1.4105835 0.5642395l-3.981018 27.334808l-6.3632812 43.384583l-3.5421753 23.259644l-3.6989136 25.767456l6.3947144 0l3.1032715 -20.689209l0.8463745 -5.673828l3.1346436 -21.66095l0.2821045 -2.2883606l6.3633423 -42.789l0.8463745 -5.673828l3.416748 -23.259674z" fill-rule="evenodd"/></g></svg>