<svg version="1.1" viewBox="0.0 0.0 960.0 540.0" fill="none" stroke="none" stroke-linecap="square" stroke-miterlimit="10" xmlns:xlink="http://www.w3.org/1999/xlink" xmlns="http://www.w3.org/2000/svg"><clipPath id="g312db3a2356_0_84.0"><path d="m0 0l960.0 0l0 540.0l-960.0 0l0 -540.0z" clip-rule="nonzero"/></clipPath><g clip-path="url(#g312db3a2356_0_84.0)"><path fill="#f3e2d9" d="m0 0l960.0 0l0 540.0l-960.0 0z" fill-rule="evenodd"/><path fill="#e06f3e" d="m0 0.062992126l960.0 0l0 539.874l-960.0 0zm13.836971 13.836971l0 512.2001l932.32605 0l0 -512.2001z" fill-rule="evenodd"/><path fill="#000000" fill-opacity="0.0" d="m274.34647 170.50125l457.38583 0l0 158.67715l-457.38583 0z" fill-rule="evenodd"/><path fill="#000000" d="m330.34647 188.25233l0 47.1875l-14.8125 0l0 -18.390625l-14.0625 0l0 18.390625l-14.796875 0l0 -47.1875l14.796875 0l0 16.984375l14.0625 0l0 -16.984375l14.8125 0zm24.528656 47.65625q-5.671875 0 -10.203125 -2.328125q-4.53125 -2.34375 -7.109375 -6.703125q-2.5625 -4.375 -2.5625 -10.234375q0 -5.859375 2.5625 -10.21875q2.578125 -4.375 7.109375 -6.703125q4.53125 -2.34375 10.203125 -2.34375q5.65625 0 10.1875 2.34375q4.53125 2.328125 7.09375 6.703125q2.578125 4.359375 2.578125 10.21875q0 5.859375 -2.578125 10.234375q-2.5625 4.359375 -7.09375 6.703125q-4.53125 2.328125 -10.1875 2.328125zm0 -12.796875q2.0625 0 3.453125 -1.625q1.40625 -1.640625 1.40625 -4.84375q0 -3.203125 -1.40625 -4.828125q-1.390625 -1.640625 -3.453125 -1.640625q-2.078125 0 -3.484375 1.640625q-1.390625 1.625 -1.390625 4.828125q0 3.203125 1.359375 4.84375q1.375 1.625 3.515625 1.625zm81.58093 -25.265625l-8.9375 37.59375l-16.65625 0l-4.53125 -21.203125l-4.796875 21.203125l-16.671875 0l-8.859375 -37.59375l14.65625 0l3.140625 22.859375l4.859375 -22.859375l15.796875 0l5.140625 23.125l3.1875 -23.125l13.671875 0zm29.256653 -9.59375l0 47.1875l-14.796875 0l0 -47.1875l14.796875 0zm30.072723 34.59375l0 12.59375l-5.609375 0q-15.453125 0 -15.453125 -15.390625l0 -9.875l-4.671875 0l0 -12.328125l4.671875 0l0 -9.0625l14.796875 0l0 9.0625l6.125 0l0 12.328125l-6.125 0l0 10.140625q0 1.328125 0.625 1.9375q0.640625 0.59375 2.109375 0.59375l3.53125 0z" fill-rule="nonzero"/><path fill="#e06f3e" d="m354.6746 260.25232l-10.796875 47.1875l-18.40625 0l-5.46875 -26.796875l-5.46875 26.796875l-18.390625 0l-10.796875 -47.1875l15.9375 0l4.265625 29.71875l6.390625 -29.71875l16.125 0l6.40625 29.71875l4.265625 -29.71875l15.9375 0zm23.196991 47.65625q-5.671875 0 -10.203125 -2.328125q-4.53125 -2.34375 -7.109375 -6.703125q-2.5625 -4.375 -2.5625 -10.234375q0 -5.859375 2.5625 -10.21875q2.578125 -4.375 7.109375 -6.703125q4.53125 -2.34375 10.203125 -2.34375q5.65625 0 10.1875 2.34375q4.53125 2.328125 7.09375 6.703125q2.578125 4.359375 2.578125 10.21875q0 5.859375 -2.578125 10.234375q-2.5625 4.359375 -7.09375 6.703125q-4.53125 2.328125 -10.1875 2.328125zm0 -12.796875q2.0625 0 3.453125 -1.625q1.40625 -1.640625 1.40625 -4.84375q0 -3.203125 -1.40625 -4.828125q-1.390625 -1.640625 -3.453125 -1.640625q-2.078125 0 -3.484375 1.640625q-1.390625 1.625 -1.390625 4.828125q0 3.203125 1.359375 4.84375q1.375 1.625 3.515625 1.625zm39.315308 -18.328125q2.265625 -3.265625 5.53125 -5.234375q3.265625 -1.96875 6.8125 -1.96875l0 15.796875l-4.203125 0q-4.203125 0 -6.171875 1.46875q-1.96875 1.46875 -1.96875 5.203125l0 15.390625l-14.796875 0l0 -37.59375l14.796875 0l0 6.9375zm40.394135 30.65625l-9.265625 -15.0l0 15.0l-14.796875 0l0 -49.328125l14.796875 0l0 25.796875l9.40625 -14.0625l17.1875 0l-14.0625 18.9375l14.40625 18.65625l-17.671875 0zm37.731567 0.46875q-5.328125 0 -9.4375 -1.734375q-4.09375 -1.734375 -6.5 -4.796875q-2.390625 -3.0625 -2.71875 -6.9375l14.1875 0q0.265625 1.671875 1.4375 2.46875q1.171875 0.796875 2.96875 0.796875q1.125 0 1.796875 -0.5q0.671875 -0.5 0.671875 -1.234375q0 -1.265625 -1.40625 -1.796875q-1.40625 -0.53125 -4.734375 -1.203125q-4.0625 -0.796875 -6.703125 -1.71875q-2.625 -0.9375 -4.59375 -3.203125q-1.96875 -2.265625 -1.96875 -6.265625q0 -3.46875 1.828125 -6.296875q1.84375 -2.84375 5.4375 -4.46875q3.609375 -1.640625 8.734375 -1.640625q7.59375 0 11.890625 3.734375q4.3125 3.734375 5.171875 9.734375l-13.125 0q-0.34375 -1.53125 -1.40625 -2.359375q-1.0625 -0.84375 -2.859375 -0.84375q-1.140625 0 -1.75 0.4375q-0.59375 0.4375 -0.59375 1.296875q0 1.140625 1.40625 1.703125q1.40625 0.5625 4.46875 1.15625q4.0625 0.8125 6.859375 1.8125q2.796875 1.0 4.859375 3.4375q2.078125 2.421875 2.078125 6.6875q0 3.328125 -1.9375 6.0q-1.9375 2.671875 -5.578125 4.203125q-3.625 1.53125 -8.484375 1.53125z" fill-rule="nonzero"/><path fill="#000000" fill-opacity="0.0" d="m276.18845 56.93899l173.44882 0l0 96.15747l-173.44882 0z" fill-rule="evenodd"/><path fill="#e06f3e" d="m287.75095 103.7396q0 -13.84375 5.875 -21.765625q5.875 -7.921875 18.125 -7.921875q12.15625 0 18.078125 7.96875q5.921875 7.953125 5.921875 21.71875q0 13.84375 -5.921875 21.8125q-5.921875 7.9531326 -18.078125 7.9531326q-12.25 0 -18.125 -7.9531326q-5.875 -7.96875 -5.875 -21.8125zm30.484375 0q0 -6.40625 -1.28125 -9.640625q-1.28125 -3.234375 -5.203125 -3.234375q-4.0 0 -5.28125 3.234375q-1.28125 3.234375 -1.28125 9.640625q0 6.484375 1.28125 9.71875q1.28125 3.234375 5.28125 3.234375q3.921875 0 5.203125 -3.234375q1.28125 -3.234375 1.28125 -9.71875zm23.506836 -10.078125q0.25 -9.53125 5.5625 -14.5625q5.328125 -5.046875 15.078125 -5.046875q6.328125 0 10.796875 2.171875q4.484375 2.15625 6.765625 5.84375q2.28125 3.671875 2.28125 8.3125q0 5.59375 -2.640625 8.765625q-2.640625 3.15625 -5.921875 4.265625l0 0.328125q9.609375 3.59375 9.609375 13.359375q0 5.125 -2.40625 9.046875q-2.40625 3.9062576 -6.84375 6.0781326q-4.4375 2.15625 -10.515625 2.15625q-10.40625 0 -16.328125 -4.953125q-5.90625 -4.9687576 -6.078125 -15.531258l17.28125 0q-0.15625 2.875 0.84375 4.359375q1.0 1.484375 3.484375 1.484375q1.4375 0 2.390625 -1.078125q0.96875 -1.078125 0.96875 -2.84375q0 -2.234375 -1.484375 -3.390625q-1.484375 -1.171875 -5.0 -1.171875l-2.953125 0l0 -14.3125l2.875 0q5.4375 0.3125 5.4375 -4.328125q0 -2.0 -0.84375 -2.953125q-0.828125 -0.96875 -2.109375 -0.96875q-2.96875 0 -2.96875 4.96875l-17.28125 0z" fill-rule="nonzero"/><path fill="#000000" fill-opacity="0.0" d="m290.75067 161.9534l275.1181 0" fill-rule="evenodd"/><path stroke="#000000" stroke-width="1.0" stroke-linejoin="round" stroke-linecap="butt" d="m290.75067 161.9534l275.1181 0" fill-rule="evenodd"/><path fill="#4e1d16" d="m913.8323 368.3218l-48.90338 25.904327l11.354065 16.62613c0 0 45.51996 -28.540466 37.549316 -42.530457z" fill-rule="evenodd"/><path fill="#4e1d16" d="m788.398 249.63503c-7.970703 0 -18.01709 12.433273 -16.564087 25.406204l3.3626099 1.4944763c0.8510742 -4.400421 2.6361694 -10.980286 5.728943 -13.325806l0 0c0 0 -0.18682861 10.046234 0.29058838 15.858124l32.650696 13.803192l12.578735 18.57724c0 0 20.092712 -5.625061 14.363831 -22.230408l-42.427246 -32.380463c0 0 0.5604248 -3.5701447 -7.514038 -6.7666626c-0.7887573 -0.29060364 -1.6190186 -0.43589783 -2.4700317 -0.43589783z" fill-rule="evenodd"/><path fill="#4e1d16" d="m834.7067 204.28165l0 0c0 0 0.477417 19.241455 11.354065 23.82869c10.79364 4.6079865 30.222168 9.568832 30.222168 9.568832c0.103759766 -9.755646 -7.3272095 -26.651596 -16.045166 -29.266937c-8.634888 -2.532318 -25.531067 -4.1305847 -25.531067 -4.1305847z" fill-rule="evenodd"/><path fill="#4e1d16" d="m702.4642 198.55281l-2.34552 0.9340515c0 0 -3.0097656 10.150024 -4.8778687 15.214645c-1.0378418 2.7191315 -54.715332 26.091171 -54.715332 26.091171l0.6641846 1.868103l0.08306885 0c0 0 59.406372 -24.015503 61.565125 -27.876236c2.0756836 -3.8399963 -0.37365723 -16.231735 -0.37365723 -16.231735z" fill-rule="evenodd"/><path fill="#6978b1" d="m702.568 198.55281c0 0 -3.9438477 14.176819 -6.102539 18.0168c-2.0757446 3.8399963 -55.19275 26.091171 -55.19275 26.091171l7.597046 0.8510132c0 0 52.76416 -22.437973 54.81909 -26.27797c2.1587524 -3.8607483 6.3723755 -18.0168 6.3723755 -18.0168l-7.493225 -0.6642151z" fill-rule="evenodd"/><path fill="#000000" fill-opacity="0.0" d="m642.1237 242.39095c-0.18682861 0.08302307 -0.3735962 0.08302307 -0.477417 0.1867981c0.1038208 -0.103775024 0.29058838 -0.1867981 0.477417 -0.1867981z" fill-rule="evenodd"/><path stroke="#2c150b" stroke-width="0.1548556430446194" stroke-linejoin="round" stroke-linecap="round" d="m642.1237 242.39095c-0.18682861 0.08302307 -0.3735962 0.08302307 -0.477417 0.1867981c0.1038208 -0.103775024 0.29058838 -0.1867981 0.477417 -0.1867981z" fill-rule="evenodd"/><path fill="#a35331" d="m676.5595 210.9653c-2.1171875 0 -3.6739502 1.0378418 -3.9438477 1.9511414c0 0 -0.08300781 0 -0.20751953 0c-0.93408203 0 -4.4420166 0.20756531 -4.753357 3.3833313c0 0 -0.22833252 -0.041503906 -0.5604248 -0.041503906c-1.2869263 0 -4.317444 0.3528595 -4.317444 3.694687c0 0 -5.5421143 0.45664978 -5.9157715 6.745926c-0.103759766 2.0756683 13.13916 122.00784 26.548157 139.4642c3.0305176 3.9022827 15.028015 7.14032 31.98645 7.14032c8.842468 0 19.013367 -0.87179565 29.973083 -3.009735l0 -54.341003l-26.4859 -3.549408l-26.548157 -68.99524c0 0 2.1587524 -4.6910095 2.4285889 -9.568832c0.18682861 -3.57016 -3.3626099 -9.298996 -4.774109 -16.978973c-0.35284424 -1.9096222 -1.7435913 -2.6568604 -3.2380981 -2.6568604c-1.3699341 0 -2.864441 0.6226959 -3.715454 1.5152435c0 0 -1.7850952 -3.2795715 -3.3834229 -4.0268097c-1.1000977 -0.5189209 -2.1586914 -0.7264862 -3.0927734 -0.7264862z" fill-rule="evenodd"/><path fill="#6978b1" d="m800.1672 144.77222c0 0 -3.3833618 0.29058838 -9.942566 1.4114532c-6.2893677 1.2246399 -15.671509 3.2795563 -27.60675 7.0365143c-4.5872803 1.4114532 -9.56897 3.0927582 -15.007263 5.064636c-8.074463 2.9059296 -15.111084 5.8326263 -21.109863 8.551758c-18.971863 8.447968 -27.79358 14.820282 -27.79358 14.820282l-1.6812744 21.213333l118.06555 -42.88333l-14.924255 -15.214645z" fill-rule="evenodd"/><path fill="#4e1d16" d="m808.9059 158.07726c-10.233215 0 -31.924194 5.2722015 -56.23059 14.093796c-32.567688 11.831314 -57.51758 25.530731 -55.649414 30.699142c0.477417 1.3284302 2.6568604 1.9511261 6.206299 1.9511261c10.253967 0 31.903442 -5.2929535 56.20984 -14.156052c32.567688 -11.831314 57.43451 -25.530731 55.545654 -30.678406c-0.45666504 -1.286911 -2.6154175 -1.9096069 -6.081787 -1.9096069z" fill-rule="evenodd"/><path fill="#000000" fill-opacity="0.0" d="m813.86676 158.84525c-2.5323486 6.0194397 -25.800903 18.307404 -55.462585 29.100891c-29.557922 10.793472 -55.379517 16.231735 -61.191467 13.32579" fill-rule="evenodd"/><path stroke="#ffffff" stroke-width="1.0" stroke-linejoin="round" stroke-linecap="round" d="m813.86676 158.84525c-2.5323486 6.0194397 -25.800903 18.307404 -55.462585 29.100891c-29.557922 10.793472 -55.379517 16.231735 -61.191467 13.32579" fill-rule="evenodd"/><path fill="#4e1d16" d="m702.4642 198.55281l-2.34552 0.9340515c0 0 -0.26983643 0.9340515 -0.7472534 2.3455048c0 0.103775024 0 0.103775024 -0.103759766 0.18681335c-0.18682861 0.6641998 -0.37365723 1.4114532 -0.64349365 2.1586914c-0.93408203 3.3833313 -2.34552 7.7007294 -3.3833618 10.523636c-0.29058838 0.8302765 -6.102539 3.8399963 -13.699585 7.493164c0.18676758 0.7680054 0.477417 1.5152435 0.7472534 2.34552c0 0.29058838 0.103759766 0.47740173 0.18676758 0.6641998c10.710632 -4.7947845 19.532349 -9.008392 20.36261 -10.419846l0 -0.08303833c1.1416016 -1.971878 0.954834 -6.289276 0.5604248 -9.963211c-0.08300781 -0.9340515 -0.18682861 -1.868103 -0.3735962 -2.7191162c0 -0.45664978 -0.08306885 -0.9340515 -0.18682861 -1.3076782c-0.18682861 -1.3076782 -0.37365723 -2.1586914 -0.37365723 -2.1586914z" fill-rule="evenodd"/><path fill="#6978b1" d="m702.4642 198.55281c0 0 -0.26983643 1.0378265 -0.7472534 2.532318c0 0.37361145 -0.08300781 0.6641998 -0.18676758 0.9340515c-0.2906494 0.8510132 -0.56048584 1.7020416 -0.8510742 2.6360931c-1.2038574 4.317398 -2.9890137 9.755646 -4.213623 11.914337c-0.6642456 1.2246552 -6.579956 4.317398 -14.260071 7.970581c0.08306885 0.1867981 0.18682861 0.47740173 0.26983643 0.6641998c0.2906494 0.9340515 0.6642456 1.8888702 1.1209106 2.8229218c10.336975 -4.7948 19.2417 -9.298996 20.092712 -10.793488c1.3076782 -2.3455048 3.279602 -8.364944 4.794861 -12.765366c0.26983643 -1.1208649 0.64349365 -2.1586914 0.93408203 -3.0097198c0.3735962 -1.307663 0.6434326 -2.2417145 0.6434326 -2.2417145l-2.4285278 -0.18681335l-5.168518 -0.47740173z" fill-rule="evenodd"/><path fill="#000000" d="m708.1931 200.2341c-0.18682861 0 -0.477417 0.37361145 -0.477417 0.85102844c0 0.47740173 0.103759766 0.8510132 0.37365723 0.8510132c0.20751953 0 0.39434814 -0.29058838 0.47735596 -0.74723816c0 -0.47740173 -0.18676758 -0.85102844 -0.3735962 -0.95480347z" fill-rule="evenodd"/><path fill="#000000" d="m703.502 200.04729c-0.18676758 0 -0.47735596 0.3736267 -0.47735596 0.85102844c0 0.47740173 0.103759766 0.8510132 0.3735962 0.8510132c0.18682861 0 0.39440918 -0.37361145 0.477417 -0.74723816c0 -0.47740173 -0.18682861 -0.8510132 -0.37365723 -0.95480347z" fill-rule="evenodd"/><path fill="#000000" fill-opacity="0.0" d="m680.0467 215.44875c0 0 1.0170898 9.672623 6.7459717 19.054657" fill-rule="evenodd"/><path stroke="#000000" stroke-width="1.0" stroke-linejoin="round" stroke-linecap="round" d="m680.0467 215.44875c0 0 1.0170898 9.672623 6.7459717 19.054657" fill-rule="evenodd"/><path fill="#000000" fill-opacity="0.0" d="m683.0357 215.7186c0 0 -2.1587524 2.55307 -2.0549927 4.421173" fill-rule="evenodd"/><path stroke="#000000" stroke-width="0.1548556430446194" stroke-linejoin="round" stroke-linecap="round" d="m683.0357 215.7186c0 0 -2.1587524 2.55307 -2.0549927 4.421173" fill-rule="evenodd"/><path fill="#a35331" d="m820.1561 297.56223l-16.148926 4.0475464l1.0378418 16.044952c2.0134277 0.9963074 4.0268555 1.411438 5.9780273 1.411438c8.365051 0 15.422424 -7.6177063 15.422424 -7.6177063l-6.2893677 -13.88623z" fill-rule="evenodd"/><path fill="#000000" fill-opacity="0.0377" d="m811.89484 300.46817l-7.8876343 1.1416016l1.0378418 16.044952c0.68499756 0.08300781 1.3077393 0.103759766 1.909668 0.103759766c10.669067 0 7.2857056 -12.204926 7.2857056 -12.204926l-2.345581 -5.085388z" fill-rule="evenodd"/><path fill="#a35331" d="m794.9987 273.25613c-0.08306885 0.18682861 -2.6154175 3.3833618 -2.0549316 6.289276l-4.234436 -0.1867981l0 0c0 0 0.7680054 5.9986877 0.29058838 11.727539c0 0.1867981 0 0.3735962 0 0.47738647c-0.08300781 0.45666504 -0.08300781 0.8510437 -0.18682861 1.3076782c0 0 -0.18676758 1.3076782 -0.29058838 3.1965332l0 0.45663452c-0.08300781 4.9816284 0.6642456 13.720184 7.430969 15.297699c1.5360718 0.39437866 3.0305176 0.5604248 4.4212646 0.5604248c14.654419 0 20.902222 -18.847076 20.902222 -18.847076c0 0 -12.744751 -1.2246399 -10.212402 -17.269562l0 0c0 0 -4.5042725 0.8510132 -4.317444 4.1305847c0 0 -6.7667847 -0.18682861 -11.374817 -0.9340515c0 0 -1.2039185 -4.5042114 -0.3735962 -6.2062683z" fill-rule="evenodd"/><path fill="#6b0303" fill-opacity="0.2579" d="m807.8057 292.95425c-1.9511108 0 -3.5079346 1.1000977 -3.5079346 2.4492798c0 1.4114685 1.6813354 2.6361084 3.757019 2.6361084c2.0549316 0 3.757019 -1.1208801 3.757019 -2.532318c0 -1.4114685 -1.5982666 -2.532318 -3.757019 -2.532318c-0.08300781 -0.020751953 -0.16601562 -0.020751953 -0.24908447 -0.020751953z" fill-rule="evenodd"/><path fill="#6b0303" fill-opacity="0.2579" d="m788.99994 291.08615c0 0.1867981 0 0.3735962 0 0.47738647c-0.08300781 0.45666504 -0.08300781 0.8510437 -0.18682861 1.3076782c0 0 -0.18676758 1.3076782 -0.29058838 3.1965332l0 0.08303833l0.7680054 0c0.08300781 0.020751953 0.16607666 0.020751953 0.24908447 0.020751953c1.9511719 0 3.5909424 -1.0170898 3.5909424 -2.366272c0.1038208 -1.390686 -1.5982666 -2.6153564 -3.6531982 -2.7191162z" fill-rule="evenodd"/><path fill="#fefefe" d="m805.00354 287.2254c-0.7887573 0 -1.5567627 0.14529419 -2.2002563 0.29058838c-1.3284302 0.3736267 -2.2624512 0.95480347 -2.2624512 0.95480347c0.8510132 0.83026123 1.5982666 1.4944763 2.2624512 1.868103c1.0379028 0.6227112 2.0134277 0.8510132 2.864502 0.8510132c2.387024 0 3.9437866 -1.7643127 4.0683594 -1.9718628c-1.5152588 -1.5360107 -3.2173462 -1.9926453 -4.732605 -1.9926453z" fill-rule="evenodd"/><path fill="#4e1d16" d="m805.00354 287.2254c-0.7887573 0 -1.5567627 0.14529419 -2.2002563 0.29058838c-0.103759766 0.29058838 -0.103759766 0.58117676 -0.18676758 0.8510132c0 0.7472534 0 1.4114685 0.18676758 1.9718933c1.0379028 0.6227112 2.0134277 0.8510132 2.864502 0.8510132c2.387024 0 3.9437866 -1.7643127 4.0683594 -1.9718628c-1.5152588 -1.5360107 -3.2173462 -1.9926453 -4.732605 -1.9926453z" fill-rule="evenodd"/><path fill="#fefefe" d="m793.2759 286.04227c-0.7057495 0 -1.3699951 0.1867981 -1.9304199 0.45663452c-1.0378418 0.3736267 -1.6812744 0.9340515 -1.6812744 0.9340515c0.5604248 0.8510437 1.2038574 1.4114685 1.7850952 1.868103c0.7056885 0.49816895 1.3699341 0.68496704 1.9718628 0.68496704c1.9304199 0 3.1965942 -1.9718628 3.279602 -2.1794434c-1.0793457 -1.3076782 -2.304016 -1.7643127 -3.4248657 -1.7643127z" fill-rule="evenodd"/><path fill="#4e1d16" d="m793.2759 286.04227c-0.7057495 0 -1.3699951 0.1867981 -1.9304199 0.45663452c0 0.18682861 -0.08300781 0.45666504 -0.08300781 0.83029175c0 0.6642151 0 1.3284302 0.18682861 1.9718628c0.7056885 0.49816895 1.3699341 0.68496704 1.9718628 0.68496704c1.9304199 0 3.1965942 -1.9718628 3.279602 -2.1794434c-1.0793457 -1.3076782 -2.304016 -1.7643127 -3.4248657 -1.7643127z" fill-rule="evenodd"/><path fill="#000000" fill-opacity="0.0" d="m816.2123 302.91745c0 0 -5.625122 10.316071 -17.352783 9.382019" fill-rule="evenodd"/><path stroke="#000000" stroke-width="1.0" stroke-linejoin="round" stroke-linecap="round" d="m816.2123 302.91745c0 0 -5.625122 10.316071 -17.352783 9.382019" fill-rule="evenodd"/><path fill="#000000" fill-opacity="0.0" d="m808.1379 284.52704c0 0 -1.9719238 -2.2624817 -4.774109 -0.5604553" fill-rule="evenodd"/><path stroke="#000000" stroke-width="1.0" stroke-linejoin="round" stroke-linecap="round" d="m808.1379 284.52704c0 0 -1.9719238 -2.2624817 -4.774109 -0.5604553" fill-rule="evenodd"/><path fill="#000000" fill-opacity="0.0" d="m795.6629 283.4892c0 0 -1.9718628 -2.2624817 -4.794861 -0.5604248" fill-rule="evenodd"/><path stroke="#000000" stroke-width="1.0" stroke-linejoin="round" stroke-linecap="round" d="m795.6629 283.4892c0 0 -1.9718628 -2.2624817 -4.794861 -0.5604248" fill-rule="evenodd"/><path fill="#000000" fill-opacity="0.0" d="m806.2697 300.75876c0 0 -1.4945068 2.0549011 -4.608032 1.9718933" fill-rule="evenodd"/><path stroke="#000000" stroke-width="1.0" stroke-linejoin="round" stroke-linecap="round" d="m806.2697 300.75876c0 0 -1.4945068 2.0549011 -4.608032 1.9718933" fill-rule="evenodd"/><path fill="#000000" fill-opacity="0.0" d="m807.30756 301.31918c0 0 -1.2246704 -0.29058838 -1.5152588 -1.411438" fill-rule="evenodd"/><path stroke="#000000" stroke-width="1.0" stroke-linejoin="round" stroke-linecap="round" d="m807.30756 301.31918c0 0 -1.2246704 -0.29058838 -1.5152588 -1.411438" fill-rule="evenodd"/><path fill="#000000" fill-opacity="0.0" d="m798.8595 293.99207c0 0 -2.5323486 -0.83026123 -3.1965942 -0.83026123c-0.6641846 0 0.6642456 5.251465 3.1965942 4.960846" fill-rule="evenodd"/><path stroke="#000000" stroke-width="1.0" stroke-linejoin="round" stroke-linecap="round" d="m798.8595 293.99207c0 0 -2.5323486 -0.83026123 -3.1965942 -0.83026123c-0.6641846 0 0.6642456 5.251465 3.1965942 4.960846" fill-rule="evenodd"/><path fill="#a35331" d="m822.25256 291.02386c-0.62268066 0 -1.2661743 0.08303833 -1.9096069 0.24908447c-3.1965942 0.8510132 -5.251526 3.6739502 -4.5872803 6.289276c0.5189209 2.0964355 2.6983643 3.4663696 5.189209 3.4663696c0.64349365 0 1.2869263 -0.08303833 1.9304199 -0.26983643c3.300354 -0.8510132 5.3552856 -3.6531677 4.608032 -6.289276c-0.53967285 -2.1171875 -2.6984253 -3.4456177 -5.230774 -3.4456177z" fill-rule="evenodd"/><path fill="#000000" fill-opacity="0.0" d="m824.28674 293.99207c0 0 -4.774109 -0.45663452 -5.251465 4.1305847" fill-rule="evenodd"/><path stroke="#000000" stroke-width="1.0" stroke-linejoin="round" stroke-linecap="round" d="m824.28674 293.99207c0 0 -4.774109 -0.45663452 -5.251465 4.1305847" fill-rule="evenodd"/><path fill="#a35331" d="m892.5149 349.66153l-48.425964 29.931152l22.334473 42.136078l-80.32941 12.101166c0 0 -1.9719238 -3.4663696 -6.663025 -4.877838c-0.6641846 -0.1867981 -1.4530029 -0.26983643 -2.34552 -0.26983643c-3.1965942 0 -7.7216187 0.9963379 -12.993835 0.9963379c-0.7472534 0 -1.5360107 -0.020751953 -2.304016 -0.062286377c-0.08306885 0 -0.1453247 0 -0.22833252 0c-3.5494385 0 -3.9645996 4.358917 -2.4908447 6.4761047c0 0 -3.6740112 1.0378113 -4.691101 2.3454895c-2.5323486 3.092743 -1.7020264 6.4761047 -0.58117676 7.2233276c0 0 -1.3076782 4.3174133 2.1587524 5.625061c0 0 -1.6813354 4.6080017 2.4492798 5.542053c0 0 -0.8510132 5.5420227 5.168518 7.327118c1.1416016 0.3735962 44.855774 7.8460083 86.28662 7.8460083c32.48468 0 63.599304 -4.587219 71.756836 -20.798187c19.698303 -39.043335 -29.101257 -101.54175 -29.101257 -101.54175z" fill-rule="evenodd"/><path fill="#000000" fill-opacity="0.0" d="m866.4234 421.72876l4.0476074 8.9253845" fill-rule="evenodd"/><path stroke="#ffffff" stroke-width="1.0" stroke-linejoin="round" stroke-linecap="round" d="m866.4234 421.72876l4.0476074 8.9253845" fill-rule="evenodd"/><path fill="#ffffff" d="m828.89484 305.44977c-2.345581 0.5604248 -25.634888 8.634796 -27.316162 9.672638c-1.6813354 1.0170593 -3.1965942 4.8778076 -3.1965942 4.8778076c-20.549377 -2.7191162 -79.47839 -7.5969543 -79.499146 -7.5969543l0 0c-10.316223 31.052032 0.39440918 63.245636 0.39440918 63.245636l37.632324 3.7569885l-22.521301 66.25534l121.90564 0.6642151c-7.7008667 -10.606659 -4.794861 -36.884644 -1.8681641 -46.55725l59.406433 -31.44638c0 0 -9.6727295 -17.269592 -21.774048 -33.210724c-10.523804 -13.8654785 -22.832642 -26.859161 -32.318604 -26.859161c-0.934021 0 -1.8265991 0.12454224 -2.6983643 0.39437866l-22.043884 4.213623c-1.5983276 -3.756958 -6.102539 -7.4101562 -6.102539 -7.4101562z" fill-rule="evenodd"/><path fill="#000000" fill-opacity="0.0" d="m796.9706 328.26138c0 0 17.643433 34.248535 -7.3063965 51.1445" fill-rule="evenodd"/><path stroke="#000000" stroke-width="1.0" stroke-linejoin="round" stroke-linecap="round" d="m796.9706 328.26138c0 0 17.643433 34.248535 -7.3063965 51.1445" fill-rule="evenodd"/><path fill="#000000" fill-opacity="0.0377" d="m756.90967 379.40588l-3.8607788 18.120575c23.185547 0 27.129333 -15.214661 27.129333 -15.214661l-23.268555 -2.9059143z" fill-rule="evenodd"/><path fill="#000000" fill-opacity="0.0377" d="m861.08887 353.3147l0 0c3.8400269 15.007111 -6.663025 46.45349 -6.663025 46.45349l59.406433 -31.44638l-5.728943 -9.568848c-8.448059 4.7325134 -15.816772 6.4345703 -22.043884 6.4345703c-16.39801 0 -24.970581 -11.872833 -24.970581 -11.872833z" fill-rule="evenodd"/><path fill="#000000" fill-opacity="0.0" d="m840.8093 348.70673c0 0 -3.4664307 48.819733 -16.522583 64.30423" fill-rule="evenodd"/><path stroke="#000000" stroke-width="1.0" stroke-linejoin="round" stroke-linecap="round" d="m840.8093 348.70673c0 0 -3.4664307 48.819733 -16.522583 64.30423" fill-rule="evenodd"/><path fill="#000000" fill-opacity="0.0" d="m798.3821 320.0002l28.063416 -5.438263" fill-rule="evenodd"/><path stroke="#000000" stroke-width="1.0" stroke-linejoin="round" stroke-linecap="round" d="m798.3821 320.0002l28.063416 -5.438263" fill-rule="evenodd"/><path fill="#000000" fill-opacity="0.0" d="m905.65405 354.91296l-40.72516 27.398834" fill-rule="evenodd"/><path stroke="#000000" stroke-width="1.0" stroke-linejoin="round" stroke-linecap="round" d="m905.65405 354.91296l-40.72516 27.398834" fill-rule="evenodd"/><path fill="#6978b1" d="m741.79865 445.66122c0 0 -13.699585 37.175232 -11.271057 93.01077l139.75659 1.3076782l-2.0756836 -20.92279c0 0 16.335693 -31.633179 -11.91449 -72.731445l-114.49536 -0.6642151z" fill-rule="evenodd"/><path fill="#000000" fill-opacity="0.0" d="m798.48584 511.83356l0 0c9.091553 0.5604248 17.083008 -6.289276 17.72644 -15.484467l1.1416626 -16.62613l-33.231873 -2.2417297l-1.1209106 16.605377c-0.6641846 9.112183 6.2893677 17.082733 15.48468 17.746948z" fill-rule="evenodd"/><path stroke="#ffffff" stroke-width="1.0" stroke-linejoin="round" stroke-linecap="round" d="m798.48584 511.83356l0 0c9.091553 0.5604248 17.083008 -6.289276 17.72644 -15.484467l1.1416626 -16.62613l-33.231873 -2.2417297l-1.1209106 16.605377c-0.6641846 9.112183 6.2893677 17.082733 15.48468 17.746948z" fill-rule="evenodd"/><path fill="#000000" fill-opacity="0.0" d="m869.9105 474.2847l-23.849731 2.34552l1.5983276 16.626099c0.934021 9.091431 9.112305 15.7543335 18.203796 14.820282l0 0c2.2625122 -0.1867981 4.4212646 -0.5604248 6.20636 -1.7850647" fill-rule="evenodd"/><path stroke="#ffffff" stroke-width="1.0" stroke-linejoin="round" stroke-linecap="round" d="m869.9105 474.2847l-23.849731 2.34552l1.5983276 16.626099c0.934021 9.091431 9.112305 15.7543335 18.203796 14.820282l0 0c2.2625122 -0.1867981 4.4212646 -0.5604248 6.20636 -1.7850647" fill-rule="evenodd"/><path fill="#000000" fill-opacity="0.0" d="m868.2085 519.0569c0 0 -3.0927734 5.064636 -9.008545 6.559143" fill-rule="evenodd"/><path stroke="#000000" stroke-width="1.0" stroke-linejoin="round" stroke-linecap="round" d="m868.2085 519.0569c0 0 -3.0927734 5.064636 -9.008545 6.559143" fill-rule="evenodd"/><path fill="#000000" fill-opacity="0.0" d="m741.79865 445.66122c0 0 -11.0842285 44.024963 -6.7667847 93.19754" fill-rule="evenodd"/><path stroke="#fefefe" stroke-width="0.1548556430446194" stroke-linejoin="round" stroke-linecap="round" d="m741.79865 445.66122c0 0 -11.0842285 44.024963 -6.7667847 93.19754" fill-rule="evenodd"/><path fill="#000000" fill-opacity="0.1698" d="m826.54926 497.84357l0 0c0 0 -5.5421143 23.47583 -31.820374 26.651611l-1.2246704 14.841003l14.073181 0.08300781c0 0 26.465149 -8.717773 18.971863 -41.575623z" fill-rule="evenodd"/><path fill="#ffffff" d="m834.7067 204.28165l-36.324646 52.638977l0.103759766 0c11.437134 22.437988 42.406494 32.297424 42.406494 32.297424l35.390625 -51.53888c0 0 -27.585999 -10.502884 -32.754517 -17.269562c-5.168457 -6.745926 -8.821716 -16.12796 -8.821716 -16.12796z" fill-rule="evenodd"/><path fill="#e06f3e" d="m756.90967 379.40588c-34.165955 38.856506 -38.026733 159.26611 -38.026733 159.26611l17.456604 0c-3.279602 -30.221771 9.029297 -85.87045 9.029297 -85.87045l118.33539 5.9986877c0 0 -4.4004517 -9.568848 -7.4102173 -12.4747925l-110.92517 -0.6642151c-3.5701904 -28.810272 20.17572 -65.21753 20.17572 -65.21753l-8.634888 -1.0378113z" fill-rule="evenodd"/><path fill="#000000" fill-opacity="0.0" d="m804.8583 247.5386c0 0 13.803345 19.345245 36.137817 27.502625" fill-rule="evenodd"/><path stroke="#000000" stroke-width="1.0" stroke-linejoin="round" stroke-linecap="round" d="m804.8583 247.5386c0 0 13.803345 19.345245 36.137817 27.502625" fill-rule="evenodd"/><path fill="#000000" fill-opacity="0.0" d="m812.4553 256.17337l22.251404 -27.772446" fill-rule="evenodd"/><path stroke="#000000" stroke-width="1.0" stroke-linejoin="round" stroke-linecap="round" d="m812.4553 256.17337l22.251404 -27.772446" fill-rule="evenodd"/><path fill="#4e1d16" d="m830.59686 303.1873c-12.910828 0 -36.719055 42.634247 -7.617798 49.463196c1.888916 0.45666504 3.6740112 0.64346313 5.3552856 0.64346313c24.825317 0 25.780151 -45.166565 3.362671 -50.00287c-0.35290527 -0.08303833 -0.72650146 -0.10379028 -1.1001587 -0.10379028z" fill-rule="evenodd"/><path fill="#4e1d16" d="m824.20374 309.87094l0 0c-24.700806 8.157379 -24.410156 30.30478 -24.410156 30.30478l4.130615 -0.477417c-2.1587524 -17.35257 19.698364 -27.212006 19.698364 -27.212006l0.58117676 -2.6153564z" fill-rule="evenodd"/><path fill="#000000" fill-opacity="0.0" d="m818.93146 455.04327c0 0 -53.760498 28.914062 -38.753235 45.4364c15.007263 16.605347 43.07068 -26.277985 38.753235 -45.4364z" fill-rule="evenodd"/><path stroke="#000000" stroke-width="1.0" stroke-linejoin="round" stroke-linecap="round" d="m818.93146 455.04327c0 0 -53.760498 28.914062 -38.753235 45.4364c15.007263 16.605347 43.07068 -26.277985 38.753235 -45.4364z" fill-rule="evenodd"/><path fill="#000000" fill-opacity="0.0" d="m818.93146 455.04327c0 0 26.755737 49.380157 40.081665 40.184937c13.325989 -9.298981 -21.670227 -39.70755 -40.081665 -40.184937z" fill-rule="evenodd"/><path stroke="#000000" stroke-width="1.0" stroke-linejoin="round" stroke-linecap="round" d="m818.93146 455.04327c0 0 26.755737 49.380157 40.081665 40.184937c13.325989 -9.298981 -21.670227 -39.70755 -40.081665 -40.184937z" fill-rule="evenodd"/><path fill="#4e1d16" d="m38.63126 468.90414c-2.5549088 0 -4.48378 0.8121338 -5.515892 2.7071228c-6.4972496 11.860626 13.315971 35.80179 53.179295 56.91742l8.71376 -27.612732c0 0 -40.438602 -32.01181 -56.377163 -32.01181z" fill-rule="evenodd"/><path fill="#a35331" d="m52.471752 456.84042c0 0 -20.185463 55.157776 -25.159916 82.93967l64.5664 0l13.315971 -52.1799l-52.722454 -30.759766z" fill-rule="evenodd"/><path fill="#000000" fill-opacity="0.0" d="m62.877495 519.9677c0 0 15.837044 5.735718 21.572891 9.407288" fill-rule="evenodd"/><path stroke="#000000" stroke-width="1.0" stroke-linejoin="round" stroke-linecap="round" d="m62.877495 519.9677c0 0 15.837044 5.735718 21.572891 9.407288" fill-rule="evenodd"/><path fill="#e06f3e" d="m143.89006 381.8694c0 0 -56.444847 10.033295 -69.91309 20.438812c-11.945465 9.322693 -30.675812 44.90451 -40.8616 69.30252c0 0 0.20303726 -0.033843994 0.6429558 -0.033843994c3.1132622 0 18.358109 2.0641785 59.185867 35.835632l-10.253471 32.367096l144.20845 0l-2.8256378 -32.367096l47.731094 -45.97043c-22.486572 -24.025787 -52.16411 -55.614594 -57.832275 -58.457092c-11.928543 -5.803406 -22.791122 -11.860596 -38.40822 -17.596344l-31.674072 -3.5192566z" fill-rule="evenodd"/><path fill="#000000" fill-opacity="0.0" d="m160.72536 394.0346c0 0 24.246246 73.058655 23.11261 132.51398" fill-rule="evenodd"/><path stroke="#000000" stroke-width="1.0" stroke-linejoin="round" stroke-linecap="round" d="m160.72536 394.0346c0 0 24.246246 73.058655 23.11261 132.51398" fill-rule="evenodd"/><path fill="#000000" fill-opacity="0.0377" d="m107.25844 462.05167l-24.567719 77.728485l24.567719 0c0 0 18.425789 -24.939453 0 -77.728485z" fill-rule="evenodd"/><path fill="#000000" fill-opacity="0.0" d="m41.236927 453.6426c0 0 18.20583 -0.32147217 60.89478 32.197906" fill-rule="evenodd"/><path stroke="#000000" stroke-width="1.0" stroke-linejoin="round" stroke-linecap="round" d="m41.236927 453.6426c0 0 18.20583 -0.32147217 60.89478 32.197906" fill-rule="evenodd"/><path fill="#000000" fill-opacity="0.0377" d="m219.6405 456.84042l4.433029 50.57257l16.68303 -15.988983c0 0 -1.0828705 -25.00711 -21.116058 -34.583588z" fill-rule="evenodd"/><path fill="#000000" fill-opacity="0.0" d="m259.96066 448.7359l-35.88713 31.0643" fill-rule="evenodd"/><path stroke="#000000" stroke-width="1.0" stroke-linejoin="round" stroke-linecap="round" d="m259.96066 448.7359l-35.88713 31.0643" fill-rule="evenodd"/><path fill="#000000" fill-opacity="0.0" d="m82.69072 403.9157c0 0 23.028 5.2789 28.002457 32.587067" fill-rule="evenodd"/><path stroke="#000000" stroke-width="1.0" stroke-linejoin="round" stroke-linecap="round" d="m82.69072 403.9157c0 0 23.028 5.2789 28.002457 32.587067" fill-rule="evenodd"/><path fill="#6978b1" d="m221.16331 475.0629l-92.11203 0.15228271c-2.3687897 41.385223 -46.360565 64.56503 -46.360565 64.56503l144.20844 0l-5.73584 -64.717316z" fill-rule="evenodd"/><path fill="#000000" fill-opacity="0.0377" d="m196.68018 475.0629l7.580124 9.407288l3.4347534 0l0 -9.407288z" fill-rule="evenodd"/><path fill="#000000" fill-opacity="0.0377" d="m131.9615 475.21518l10.016602 11.166901l0 -11.166901z" fill-rule="evenodd"/><path fill="#6978b1" d="m136.08997 383.25677l-18.899544 4.1283875l24.787682 98.99634l18.747269 0l-24.635406 -103.124725z" fill-rule="evenodd"/><path fill="#6978b1" d="m196.68018 394.42377l7.580124 90.0459l17.748993 0l-6.8863983 -80.87549l-18.442719 -9.17041z" fill-rule="evenodd"/><path fill="#000000" fill-opacity="0.0" d="m225.13948 520.2723l-93.17798 0l0 19.50824" fill-rule="evenodd"/><path stroke="#ffffff" stroke-width="1.0" stroke-linejoin="round" stroke-linecap="round" d="m225.13948 520.2723l-93.17798 0l0 19.50824" fill-rule="evenodd"/><path fill="#fabd53" d="m149.16907 471.20523c-0.10151672 0 -0.2030487 0.016906738 -0.30456543 0.016906738c-2.0642242 0.23687744 -3.519333 2.757904 -3.130188 5.6003723c0.28764343 2.690216 2.0303955 4.7543945 3.976181 4.7543945c0.10153198 0 0.2030487 0 0.30456543 -0.016906738c2.0642242 -0.30456543 3.519333 -2.757904 3.130188 -5.5834656c-0.28764343 -2.690216 -2.0980682 -4.7713013 -3.976181 -4.7713013z" fill-rule="evenodd"/><path fill="#fabd53" d="m212.8387 469.9193c-0.10151672 0 -0.21995544 0 -0.32147217 0.016937256c-2.0642395 0.21994019 -3.4347534 2.7409668 -3.130188 5.5834656c0.35531616 2.6732788 2.0980682 4.6867065 4.0438538 4.6867065c0.10153198 0 0.2030487 -0.016906738 0.32148743 -0.016906738c2.0642242 -0.23687744 3.4347382 -2.690216 3.130188 -5.600403c-0.37223816 -2.6732788 -2.0980835 -4.6698 -4.043869 -4.6698z" fill-rule="evenodd"/><path fill="#4e1d16" d="m152.55304 373.7987c-5.295929 0 -8.426117 0.8798218 -8.426117 0.8798218l16.59845 19.355957l12.165405 -16.293518c-8.223068 -3.130127 -15.278671 -3.9422607 -20.337738 -3.9422607z" fill-rule="evenodd"/><path fill="#e06f3e" d="m179.30344 293.43027c-0.13536072 0 -0.25379944 0 -0.37223816 0c-6.649521 0.69369507 -41.60608 8.121399 -45.36229 12.791199c-3.6716309 4.585205 -5.735855 24.465668 -9.948914 26.377594c-19.508667 8.967377 -17.359833 18.746857 -17.359833 18.746857l113.44803 -31.368866c0.5414429 -9.17038 -22.182007 -8.256744 -24.026276 -9.322662c-1.7935181 -0.98132324 -9.728958 -17.224121 -16.378479 -17.224121z" fill-rule="evenodd"/><path fill="#000000" fill-opacity="0.0" d="m159.57481 317.8453c0 0 23.264877 -8.730499 36.1071 -7.1908264" fill-rule="evenodd"/><path stroke="#4e1d16" stroke-width="1.0" stroke-linejoin="round" stroke-linecap="round" d="m159.57481 317.8453c0 0 23.264877 -8.730499 36.1071 -7.1908264" fill-rule="evenodd"/><path fill="#4e1d16" d="m207.7289 316.45795c-10.99794 0 -28.442383 2.8255615 -47.61264 8.121399c-31.284927 8.645874 -55.463493 20.658783 -53.856102 26.766724c0.59220123 2.3856506 4.991379 3.519287 11.979301 3.519287c10.997955 0 28.408539 -2.825592 47.544968 -8.104492c31.3526 -8.645874 55.53116 -20.658783 53.923767 -26.78366c-0.5921936 -2.368744 -4.9913635 -3.5192566 -11.979294 -3.5192566z" fill-rule="evenodd"/><path fill="#4e1d16" d="m186.79895 323.7503c-20.185455 0 -56.74939 11.911377 -56.74939 11.911377c8.036957 11.7083435 15.600159 42.07895 15.600159 42.07895l38.188248 -33.73761c8.493805 -0.21994019 6.8864136 -8.036774 6.8864136 -8.036774c6.3449707 -2.5210266 4.6529694 -11.082306 4.6529694 -11.082306c-2.216507 -0.79522705 -5.160568 -1.1336365 -8.5784 -1.1336365z" fill-rule="evenodd"/><path fill="#a35331" d="m149.7951 356.40527l-4.1453857 21.335571l15.075653 16.293518l10.490341 -8.798157l1.6750641 -22.942932l-23.095673 -5.8880005z" fill-rule="evenodd"/><path fill="#000000" fill-opacity="0.0377" d="m156.98607 358.2326l-1.4551239 8.645905c0 0 -2.7071838 18.50998 13.129868 18.50998c0.79522705 0 1.6412201 -0.050750732 2.5549011 -0.15228271l1.6750641 -22.942902l-15.904709 -4.0606995z" fill-rule="evenodd"/><path fill="#a35331" d="m158.27197 329.70605l0 0c4.2130585 19.965057 -11.843933 21.267883 -11.843933 21.267883c0 0 9.187515 23.56894 27.850174 23.56894c1.7089081 0 3.4855042 -0.20303345 5.346695 -0.6260376c8.493805 -1.9118958 8.950638 -12.621979 8.493805 -18.89914c-0.23687744 -2.6732788 -0.6091156 -4.5006104 -0.6091156 -4.5006104c-0.084609985 -0.54141235 -0.15228271 -0.99823 -0.23687744 -1.6073608c-1.1505585 -7.190796 -0.5414429 -15.159912 -0.5414429 -15.159912l0 0c-3.993103 0.7782898 -7.529358 1.0828552 -10.625702 1.0828552c-12.588425 0 -17.833603 -5.1266174 -17.833603 -5.1266174z" fill-rule="evenodd"/><path fill="#6b0303" fill-opacity="0.2579" d="m161.57137 350.97406c-2.605667 0 -4.7375793 1.4550781 -4.7375793 3.2147217c0 1.7596436 2.1319122 3.1977844 4.7375793 3.1977844c2.6733398 0 4.822174 -1.4381409 4.822174 -3.1977844c0 -1.7596436 -2.1488342 -3.2147217 -4.822174 -3.2147217z" fill-rule="evenodd"/><path fill="#6b0303" fill-opacity="0.2579" d="m186.12216 348.90985c-2.673355 0.06768799 -4.7375793 1.5227661 -4.7375793 3.2824097c0.06767273 1.793457 2.0980682 3.1470337 4.6868134 3.1470337c0.06768799 0 0.13536072 0 0.20303345 -0.016906738c0.60913086 0 1.2351532 -0.15228271 1.844284 -0.30456543c-0.2368927 -2.6732788 -0.60913086 -4.5006104 -0.60913086 -4.5006104c-0.08459473 -0.54141235 -0.15226746 -1.0828552 -0.30455017 -1.6073608z" fill-rule="evenodd"/><path fill="#fefefe" d="m165.53062 343.7832c-1.8950348 0 -4.026947 0.5583496 -5.9558105 2.436432l-0.06768799 0l0.06768799 0.08459473c0.16918945 0.16918945 2.148819 2.487152 5.194412 2.487152c1.0659485 0 2.250351 -0.28762817 3.536255 -1.032074c0.91368103 -0.5414429 1.8273621 -1.3028259 2.9102325 -2.368744c0 0 -1.1505585 -0.69369507 -2.8425446 -1.2351379c-0.82907104 -0.21994019 -1.7935181 -0.3722229 -2.8425446 -0.3722229z" fill-rule="evenodd"/><path fill="#4e1d16" d="m165.53062 343.7832c-1.8950348 0 -4.026947 0.5583496 -5.9558105 2.436432l0 0.08459473c0.16918945 0.16918945 2.148819 2.487152 5.194412 2.487152c1.0659485 0 2.250351 -0.28762817 3.536255 -1.032074c0.2199707 -0.76138306 0.30456543 -1.6073608 0.2199707 -2.5210266c-0.06768799 -0.32147217 -0.06768799 -0.69369507 -0.15228271 -1.0828552c-0.82907104 -0.21994019 -1.7935181 -0.3722229 -2.8425446 -0.3722229z" fill-rule="evenodd"/><path fill="#fefefe" d="m181.26614 342.39578c-1.4043579 0 -2.9271545 0.5583496 -4.314575 2.2164612c0.11843872 0.23687744 1.7089081 2.791748 4.1453705 2.791748c0.7613983 0 1.6073914 -0.23687744 2.5041504 -0.8798218c0.7613983 -0.5245056 1.4551086 -1.2182007 2.3011017 -2.2841492c0 0 -0.84599304 -0.76138306 -2.148819 -1.3027954c-0.7275543 -0.30456543 -1.5735626 -0.5414429 -2.4872284 -0.5414429z" fill-rule="evenodd"/><path fill="#4e1d16" d="m181.21538 342.37888c-1.3874359 0 -2.8932953 0.54141235 -4.263809 2.233368c0.11843872 0.23687744 1.7089081 2.791748 4.1453705 2.791748c0.7613983 0 1.6073914 -0.23687744 2.5041504 -0.8798218c0.23687744 -0.76138306 0.30456543 -1.6073608 0.23687744 -2.5210266c0 -0.3722229 -0.08459473 -0.76138306 -0.08459473 -1.065918c-0.7444763 -0.30456543 -1.6073914 -0.5583496 -2.5379944 -0.5583496z" fill-rule="evenodd"/><path fill="#000000" fill-opacity="0.0" d="m152.92528 362.29333c0 0 7.7324066 13.383362 22.638855 12.385101" fill-rule="evenodd"/><path stroke="#000000" stroke-width="1.0" stroke-linejoin="round" stroke-linecap="round" d="m152.92528 362.29333c0 0 7.7324066 13.383362 22.638855 12.385101" fill-rule="evenodd"/><path fill="#000000" fill-opacity="0.0" d="m161.57137 340.2639c0 0 2.5210571 -2.7578735 6.125 -0.69369507" fill-rule="evenodd"/><path stroke="#000000" stroke-width="1.0" stroke-linejoin="round" stroke-linecap="round" d="m161.57137 340.2639c0 0 2.5210571 -2.7578735 6.125 -0.69369507" fill-rule="evenodd"/><path fill="#000000" fill-opacity="0.0" d="m178.40668 339.18103c0 0 2.5210724 -2.8255615 6.0404053 -0.67678833" fill-rule="evenodd"/><path stroke="#000000" stroke-width="1.0" stroke-linejoin="round" stroke-linecap="round" d="m178.40668 339.18103c0 0 2.5210724 -2.8255615 6.0404053 -0.67678833" fill-rule="evenodd"/><path fill="#000000" fill-opacity="0.0" d="m163.87247 360.83823c0 0 1.7596741 2.757904 5.735855 2.6733093" fill-rule="evenodd"/><path stroke="#000000" stroke-width="1.0" stroke-linejoin="round" stroke-linecap="round" d="m163.87247 360.83823c0 0 1.7596741 2.757904 5.735855 2.6733093" fill-rule="evenodd"/><path fill="#000000" fill-opacity="0.0" d="m162.48503 361.6842c0 0 1.5397186 -0.38916016 1.9119568 -1.8442383" fill-rule="evenodd"/><path stroke="#4e1d16" stroke-width="1.0" stroke-linejoin="round" stroke-linecap="round" d="m162.48503 361.6842c0 0 1.5397186 -0.38916016 1.9119568 -1.8442383" fill-rule="evenodd"/><path fill="#000000" fill-opacity="0.0" d="m175.34418 356.86203c3.4347382 -0.8459778 4.737564 -4.2806396 3.2147827 -5.363495c-1.5397186 -1.0659485 -3.4516754 -0.06768799 -3.4516754 -0.06768799c0 0 -1.5227814 -1.9964905 -0.6091156 -6.344818" fill-rule="evenodd"/><path stroke="#000000" stroke-width="1.0" stroke-linejoin="round" stroke-linecap="round" d="m175.34418 356.86203c3.4347382 -0.8459778 4.737564 -4.2806396 3.2147827 -5.363495c-1.5397186 -1.0659485 -3.4516754 -0.06768799 -3.4516754 -0.06768799c0 0 -1.5227814 -1.9964905 -0.6091156 -6.344818" fill-rule="evenodd"/><path fill="#a35331" d="m143.65317 348.36844c-3.1470947 0 -5.9050446 1.6581116 -6.649521 4.3652344c-0.91368103 3.3670044 1.6073914 6.953949 5.752762 8.019867c0.8460083 0.23687744 1.6920013 0.35531616 2.5210724 0.35531616c3.14711 0 5.854294 -1.6581116 6.581848 -4.3313904c0.91368103 -3.3670044 -1.6919861 -6.953949 -5.82045 -8.104492c-0.7952423 -0.20303345 -1.6073914 -0.3045349 -2.3857117 -0.3045349z" fill-rule="evenodd"/><path fill="#000000" fill-opacity="0.0" d="m141.06442 352.10767c0 0 6.1250153 -0.5245056 6.649521 5.2789307" fill-rule="evenodd"/><path stroke="#000000" stroke-width="1.0" stroke-linejoin="round" stroke-linecap="round" d="m141.06442 352.10767c0 0 6.1250153 -0.5245056 6.649521 5.2789307" fill-rule="evenodd"/><path fill="#000000" fill-opacity="0.0377" d="m152.13005 389.9908c-0.55836487 0 -1.0828705 0.11843872 -1.5058746 0.3722229c-2.9779053 1.8442383 -5.651245 6.8186035 -5.651245 6.8186035l15.752441 -3.1470337c0 0 -5.228256 -4.0437927 -8.595322 -4.0437927z" fill-rule="evenodd"/><path fill="#000000" fill-opacity="0.0377" d="m169.8452 389.85547c-4.1792145 0 -9.119843 4.1791077 -9.119843 4.1791077l15.227936 3.1470642c0 0 -1.0659637 -6.2771606 -4.889862 -7.1908264c-0.40608215 -0.101501465 -0.79522705 -0.13534546 -1.2182312 -0.13534546z" fill-rule="evenodd"/><path fill="#e06f3e" d="m144.12692 374.67853l-9.492065 6.5140076c5.1267395 7.1062317 10.338074 15.988983 10.338074 15.988983c0 0 4.5345306 -6.310974 7.5970306 -6.310974c0.11843872 0 0.23687744 0.016906738 0.35531616 0.033843994c3.130188 0.45681763 7.8000946 3.1300964 7.8000946 3.1300964l-16.59845 -19.355957z" fill-rule="evenodd"/><path fill="#e06f3e" d="m172.89078 377.74097l-12.165421 16.293549c0 0 5.042145 -3.4008179 8.307678 -3.4008179c0.2030487 0 0.38916016 0.016906738 0.57528687 0.033813477c3.2147827 0.5414429 6.3449707 6.514038 6.3449707 6.514038l5.4312897 -14.533905l-8.493805 -4.9066772z" fill-rule="evenodd"/><path fill="#000000" fill-opacity="0.0" d="m136.15811 335.05322c0 0 8.5784 51.24936 39.778717 51.875397c0 0 22.875732 -30.150665 18.595001 -61.58722" fill-rule="evenodd"/><path stroke="#000000" stroke-width="1.0" stroke-linejoin="round" stroke-linecap="round" d="m136.15811 335.05322c0 0 8.5784 51.24936 39.778717 51.875397c0 0 22.875732 -30.150665 18.595001 -61.58722" fill-rule="evenodd"/><path fill="#000000" fill-opacity="0.0" d="m175.56413 389.534c0 0 -13.992767 21.7247 -7.038681 24.093445c8.426117 2.8255615 7.884674 -19.592865 7.038681 -24.093445z" fill-rule="evenodd"/><path stroke="#000000" stroke-width="1.0" stroke-linejoin="round" stroke-linecap="round" d="m175.56413 389.534c0 0 -13.992767 21.7247 -7.038681 24.093445c8.426117 2.8255615 7.884674 -19.592865 7.038681 -24.093445z" fill-rule="evenodd"/><path fill="#000000" fill-opacity="0.0" d="m175.56413 389.534c0 0 11.6409 20.878723 16.76764 16.05664c5.1098022 -4.822052 -11.404022 -14.077057 -16.76764 -16.05664z" fill-rule="evenodd"/><path stroke="#000000" stroke-width="1.0" stroke-linejoin="round" stroke-linecap="round" d="m175.56413 389.534c0 0 11.6409 20.878723 16.76764 16.05664c5.1098022 -4.822052 -11.404022 -14.077057 -16.76764 -16.05664z" fill-rule="evenodd"/><path fill="#a35331" d="m304.35852 363.3931c-4.686798 0 -15.820129 2.5379333 -17.93512 4.331421c-2.4533691 2.0641785 -3.2824402 15.752106 -1.6073914 28.06955c-6.8017883 24.110352 -12.469971 45.598206 -19.051819 71.53589l-41.69066 40.082428c0 0 24.973785 32.57016 49.47383 32.57016c8.476868 0 16.886078 -3.8914795 24.195465 -14.364685c22.808044 -32.73938 22.875732 -127.97958 22.875732 -127.97958c0.6598816 0.4060974 1.2690125 0.5921936 1.8104248 0.5921936c3.8577576 0 5.1267395 -9.204224 4.923706 -14.821533c-0.15228271 -2.994751 -7.343231 -5.431183 -7.343231 -5.431183c1.0659485 -4.6698 -6.192688 -9.407257 -6.192688 -9.407257c0 0 -5.211334 -3.9930115 -7.8170166 -4.974365c-0.35531616 -0.13534546 -0.9136658 -0.20303345 -1.6412354 -0.20303345z" fill-rule="evenodd"/><path fill="#6b0303" fill-opacity="0.2579" d="m278.47104 524.7221c-1.8780823 0 -3.823883 0.30456543 -5.73584 0.9813843c-6.125 2.064148 -10.253479 7.038513 -10.710297 12.080566c3.790039 1.3535156 7.6647034 2.1656494 11.522461 2.1656494c5.9558105 0 11.894684 -1.928833 17.461334 -6.7508545c-0.06765747 -0.23687744 -0.1522522 -0.5414429 -0.21994019 -0.7614136c-1.6750793 -4.8389893 -6.666443 -7.715332 -12.3177185 -7.715332z" fill-rule="evenodd"/><path fill="#000000" fill-opacity="0.0" d="m302.41272 371.2438c0 0 -2.6056519 13.992493 2.9779053 16.056671c5.431305 1.9964905 8.426117 -18.72995 8.426117 -18.72995" fill-rule="evenodd"/><path stroke="#000000" stroke-width="1.0" stroke-linejoin="round" stroke-linecap="round" d="m302.41272 371.2438c0 0 -2.6056519 13.992493 2.9779053 16.056671c5.431305 1.9964905 8.426117 -18.72995 8.426117 -18.72995" fill-rule="evenodd"/><path fill="#000000" fill-opacity="0.0" d="m265.7642 467.33063l-6.2772827 19.051422" fill-rule="evenodd"/><path stroke="#000000" stroke-width="1.0" stroke-linejoin="round" stroke-linecap="round" d="m265.7642 467.33063l-6.2772827 19.051422" fill-rule="evenodd"/><path fill="#000000" fill-opacity="0.0" d="m308.1486 386.38687c0 0 -0.998291 5.5834656 3.0625 6.886261c3.9761658 1.3027954 7.7323914 -9.187317 8.79834 -15.295288" fill-rule="evenodd"/><path stroke="#000000" stroke-width="1.0" stroke-linejoin="round" stroke-linecap="round" d="m308.1486 386.38687c0 0 -0.998291 5.5834656 3.0625 6.886261c3.9761658 1.3027954 7.7323914 -9.187317 8.79834 -15.295288" fill-rule="evenodd"/><path fill="#000000" fill-opacity="0.0" d="m316.4055 389.534c0 0 -0.5245056 6.6493835 4.2130737 8.104462" fill-rule="evenodd"/><path stroke="#000000" stroke-width="1.0" stroke-linejoin="round" stroke-linecap="round" d="m316.4055 389.534c0 0 -0.5245056 6.6493835 4.2130737 8.104462" fill-rule="evenodd"/><path fill="#000000" fill-opacity="0.0" d="m301.9559 374.98306c0 0 -2.757965 0.6260376 -4.7375793 0.23687744" fill-rule="evenodd"/><path stroke="#000000" stroke-width="1.0" stroke-linejoin="round" stroke-linecap="round" d="m301.9559 374.98306c0 0 -2.757965 0.6260376 -4.7375793 0.23687744" fill-rule="evenodd"/><path fill="#a35331" d="m292.0239 371.3115c-2.098053 0 -13.383636 6.141815 -12.876038 9.9487c0.47375488 3.9084167 5.6004944 13.163422 5.6004944 13.163422c0.050750732 0 0.11843872 0 0.16918945 0c9.610504 0 7.563202 -10.5578 7.0386963 -12.757355l0 0c0.7782898 2.5548706 3.959259 5.414276 6.2941895 5.414276c1.2859192 0 2.3180237 -0.8798218 2.5549011 -3.1470337c0.60913086 -6.564789 -6.954071 -12.317444 -8.646057 -12.622009c-0.033843994 0 -0.08459473 0 -0.13537598 0z" fill-rule="evenodd"/><path fill="#000000" fill-opacity="0.0" d="m283.97003 375.2199c0 0 5.4312744 -4.060669 8.1892395 -3.9084167c2.7579346 0.15228271 11.404022 8.425964 8.950623 14.313965c-2.3687744 5.8880005 -8.646088 -1.5396729 -9.255188 -4.365265" fill-rule="evenodd"/><path stroke="#000000" stroke-width="1.0" stroke-linejoin="round" stroke-linecap="round" d="m283.97003 375.2199c0 0 5.4312744 -4.060669 8.1892395 -3.9084167c2.7579346 0.15228271 11.404022 8.425964 8.950623 14.313965c-2.3687744 5.8880005 -8.646088 -1.5396729 -9.255188 -4.365265" fill-rule="evenodd"/><path fill="#000000" fill-opacity="0.0" d="m292.4638 393.72998c0 0 3.2148132 -4.88974 -0.60910034 -12.469696" fill-rule="evenodd"/><path stroke="#000000" stroke-width="1.0" stroke-linejoin="round" stroke-linecap="round" d="m292.4638 393.72998c0 0 3.2148132 -4.88974 -0.60910034 -12.469696" fill-rule="evenodd"/></g></svg>