<svg version="1.1" viewBox="0.0 0.0 960.0 540.0" fill="none" stroke="none" stroke-linecap="square" stroke-miterlimit="10" xmlns:xlink="http://www.w3.org/1999/xlink" xmlns="http://www.w3.org/2000/svg"><clipPath id="g1d1656d8614_0_1057.0"><path d="m0 0l960.0 0l0 540.0l-960.0 0l0 -540.0z" clip-rule="nonzero"/></clipPath><g clip-path="url(#g1d1656d8614_0_1057.0)"><path fill="#f3e2d9" d="m0 0l960.0 0l0 540.0l-960.0 0z" fill-rule="evenodd"/><path fill="#e06f3e" d="m0 0.062992126l960.0 0l0 539.874l-960.0 0zm13.836971 13.836971l0 512.2001l932.32605 0l0 -512.2001z" fill-rule="evenodd"/><path fill="#000000" fill-opacity="0.0" d="m81.04199 176.7979l540.7874 0l0 158.67717l-540.7874 0z" fill-rule="evenodd"/><path fill="#000000" d="m142.68945 242.97649l-11.0 -14.46875l0 14.46875l-7.984375 0l0 -32.75l7.984375 0l0 14.375l10.90625 -14.375l9.390625 0l-12.703125 16.046875l13.171875 16.703125l-9.765625 0zm38.081818 -13.4375q0 1.125 -0.140625 2.328125l-18.0625 0q0.1875 2.4375 1.5625 3.71875q1.375 1.28125 3.390625 1.28125q2.984375 0 4.140625 -2.515625l8.5 0q-0.65625 2.5625 -2.359375 4.625q-1.703125 2.046875 -4.265625 3.21875q-2.5625 1.15625 -5.734375 1.15625q-3.828125 0 -6.8125 -1.625q-2.984375 -1.640625 -4.671875 -4.671875q-1.671875 -3.03125 -1.671875 -7.09375q0 -4.0625 1.65625 -7.09375q1.65625 -3.03125 4.640625 -4.65625q2.984375 -1.640625 6.859375 -1.640625q3.78125 0 6.71875 1.59375q2.9375 1.578125 4.59375 4.515625q1.65625 2.9375 1.65625 6.859375zm-8.171875 -2.09375q0 -2.0625 -1.40625 -3.265625q-1.390625 -1.21875 -3.484375 -1.21875q-2.015625 0 -3.390625 1.171875q-1.375 1.15625 -1.703125 3.3125l9.984375 0zm38.958923 -10.5l-16.328125 38.390625l-8.578125 0l5.96875 -13.25l-10.59375 -25.140625l8.90625 0l6.03125 16.28125l5.96875 -16.28125l8.625 0zm32.612152 9.234375q2.84375 0.609375 4.5625 2.828125q1.734375 2.21875 1.734375 5.0625q0 4.09375 -2.875 6.5q-2.859375 2.40625 -7.984375 2.40625l-15.265625 0l0 -32.75l14.75 0q4.984375 0 7.8125 2.28125q2.828125 2.28125 2.828125 6.203125q0 2.890625 -1.53125 4.8125q-1.515625 1.90625 -4.03125 2.65625zm-11.84375 -2.703125l5.21875 0q1.96875 0 3.015625 -0.859375q1.046875 -0.875 1.046875 -2.546875q0 -1.6875 -1.046875 -2.5625q-1.046875 -0.890625 -3.015625 -0.890625l-5.21875 0l0 6.859375zm5.875 13.0625q2.0 0 3.09375 -0.90625q1.109375 -0.921875 1.109375 -2.640625q0 -1.71875 -1.15625 -2.703125q-1.140625 -0.984375 -3.140625 -0.984375l-5.78125 0l0 7.234375l5.875 0zm41.4339 -7.0q0 1.125 -0.140625 2.328125l-18.0625 0q0.1875 2.4375 1.5625 3.71875q1.375 1.28125 3.390625 1.28125q2.984375 0 4.140625 -2.515625l8.5 0q-0.65625 2.5625 -2.359375 4.625q-1.703125 2.046875 -4.265625 3.21875q-2.5625 1.15625 -5.734375 1.15625q-3.828125 0 -6.8125 -1.625q-2.984375 -1.640625 -4.6718903 -4.671875q-1.671875 -3.03125 -1.671875 -7.09375q0 -4.0625 1.65625 -7.09375q1.6562653 -3.03125 4.6406403 -4.65625q2.984375 -1.640625 6.859375 -1.640625q3.78125 0 6.71875 1.59375q2.9375 1.578125 4.59375 4.515625q1.65625 2.9375 1.65625 6.859375zm-8.171875 -2.09375q0 -2.0625 -1.40625 -3.265625q-1.390625 -1.21875 -3.484375 -1.21875q-2.015625 0 -3.390625 1.171875q-1.375 1.15625 -1.703125 3.3125l9.984375 0zm28.224548 -10.78125q4.578125 0 7.296875 2.96875q2.734375 2.953125 2.734375 8.140625l0 15.203125l-7.921875 0l0 -14.140625q0 -2.609375 -1.359375 -4.046875q-1.34375 -1.453125 -3.640625 -1.453125q-2.28125 0 -3.640625 1.453125q-1.34375 1.4375 -1.34375 4.046875l0 14.140625l-7.984375 0l0 -26.03125l7.984375 0l0 3.453125q1.203125 -1.734375 3.25 -2.734375q2.0625 -1.0 4.625 -1.0zm40.133728 12.875q0 1.125 -0.140625 2.328125l-18.0625 0q0.1875 2.4375 1.5625 3.71875q1.375 1.28125 3.390625 1.28125q2.984375 0 4.140625 -2.515625l8.5 0q-0.65625 2.5625 -2.359375 4.625q-1.703125 2.046875 -4.265625 3.21875q-2.5625 1.15625 -5.734375 1.15625q-3.828125 0 -6.8125 -1.625q-2.984375 -1.640625 -4.671875 -4.671875q-1.671875 -3.03125 -1.671875 -7.09375q0 -4.0625 1.65625 -7.09375q1.65625 -3.03125 4.640625 -4.65625q2.984375 -1.640625 6.859375 -1.640625q3.78125 0 6.71875 1.59375q2.9375 1.578125 4.59375 4.515625q1.65625 2.9375 1.65625 6.859375zm-8.171875 -2.09375q0 -2.0625 -1.40625 -3.265625q-1.390625 -1.21875 -3.484375 -1.21875q-2.015625 0 -3.390625 1.171875q-1.375 1.15625 -1.703125 3.3125l9.984375 0zm25.427673 -3.875l-4.296875 0l0 19.40625l-7.96875 0l0 -19.40625l-2.890625 0l0 -6.625l2.890625 0l0 -0.75q0 -4.8125 2.75 -7.296875q2.75 -2.5 8.078125 -2.5q0.875 0 1.296875 0.046875l0 6.765625q-2.28125 -0.140625 -3.21875 0.65625q-0.9375 0.796875 -0.9375 2.84375l0 0.234375l4.296875 0l0 6.625zm7.7493286 -9.328125q-2.09375 0 -3.4375 -1.234375q-1.328125 -1.25 -1.328125 -3.0625q0 -1.875 1.328125 -3.109375q1.34375 -1.234375 3.4375 -1.234375q2.046875 0 3.375 1.234375q1.34375 1.234375 1.34375 3.109375q0 1.8125 -1.34375 3.0625q-1.328125 1.234375 -3.375 1.234375zm3.96875 2.703125l0 26.03125l-7.984375 0l0 -26.03125l7.984375 0zm20.2948 19.265625l0 6.765625l-4.0625 0q-4.34375 0 -6.765625 -2.125q-2.421875 -2.125 -2.421875 -6.921875l0 -10.359375l-3.171875 0l0 -6.625l3.171875 0l0 -6.34375l7.96875 0l0 6.34375l5.234375 0l0 6.625l-5.234375 0l0 10.453125q0 1.15625 0.5625 1.671875q0.5625 0.515625 1.875 0.515625l2.84375 0zm15.020508 7.140625q-3.40625 0 -6.0625 -1.15625q-2.65625 -1.171875 -4.203125 -3.203125q-1.546875 -2.03125 -1.71875 -4.546875l7.875 0q0.140625 1.34375 1.25 2.1875q1.125 0.84375 2.765625 0.84375q1.5 0 2.3125 -0.578125q0.8125 -0.59375 0.8125 -1.53125q0 -1.109375 -1.171875 -1.640625q-1.15625 -0.546875 -3.765625 -1.203125q-2.8125 -0.65625 -4.6875 -1.375q-1.859375 -0.71875 -3.21875 -2.28125q-1.34375 -1.5625 -1.34375 -4.21875q0 -2.25 1.234375 -4.09375q1.25 -1.84375 3.640625 -2.90625q2.40625 -1.078125 5.71875 -1.078125q4.90625 0 7.71875 2.421875q2.828125 2.421875 3.25 6.4375l-7.375 0q-0.1875 -1.34375 -1.1875 -2.140625q-1.0 -0.796875 -2.640625 -0.796875q-1.390625 0 -2.140625 0.546875q-0.75 0.53125 -0.75 1.46875q0 1.109375 1.1875 1.671875q1.1875 0.5625 3.71875 1.125q2.890625 0.734375 4.703125 1.46875q1.828125 0.71875 3.203125 2.328125q1.375 1.609375 1.421875 4.3125q0 2.296875 -1.28125 4.09375q-1.28125 1.796875 -3.6875 2.828125q-2.40625 1.015625 -5.578125 1.015625zm38.393982 -19.78125l-4.296875 0l0 19.40625l-7.96875 0l0 -19.40625l-2.890625 0l0 -6.625l2.890625 0l0 -0.75q0 -4.8125 2.75 -7.296875q2.75 -2.5 8.078125 -2.5q0.875 0 1.296875 0.046875l0 6.765625q-2.28125 -0.140625 -3.21875 0.65625q-0.9375 0.796875 -0.9375 2.84375l0 0.234375l4.296875 0l0 6.625zm15.593079 19.78125q-3.828125 0 -6.890625 -1.625q-3.046875 -1.640625 -4.796875 -4.671875q-1.75 -3.03125 -1.75 -7.09375q0 -4.015625 1.765625 -7.0625q1.78125 -3.0625 4.859375 -4.6875q3.078125 -1.640625 6.90625 -1.640625q3.8125 0 6.890625 1.640625q3.09375 1.625 4.859375 4.6875q1.765625 3.046875 1.765625 7.0625q0 4.015625 -1.796875 7.078125q-1.78125 3.046875 -4.890625 4.6875q-3.109375 1.625 -6.921875 1.625zm0 -6.90625q2.28125 0 3.890625 -1.671875q1.609375 -1.6875 1.609375 -4.8125q0 -3.125 -1.5625 -4.796875q-1.5625 -1.6875 -3.84375 -1.6875q-2.34375 0 -3.890625 1.65625q-1.53125 1.65625 -1.53125 4.828125q0 3.125 1.515625 4.8125q1.515625 1.671875 3.8125 1.671875zm25.84497 -15.15625q1.390625 -2.15625 3.484375 -3.390625q2.109375 -1.234375 4.671875 -1.234375l0 8.4375l-2.1875 0q-2.984375 0 -4.484375 1.296875q-1.484375 1.28125 -1.484375 4.5l0 12.078125l-7.984375 0l0 -26.03125l7.984375 0l0 4.34375zm36.391174 14.921875l0 6.765625l-4.0625 0q-4.34375 0 -6.765625 -2.125q-2.421875 -2.125 -2.421875 -6.921875l0 -10.359375l-3.171875 0l0 -6.625l3.171875 0l0 -6.34375l7.96875 0l0 6.34375l5.234375 0l0 6.625l-5.234375 0l0 10.453125q0 1.15625 0.5625 1.671875q0.5625 0.515625 1.875 0.515625l2.84375 0zm20.426758 -19.546875q4.484375 0 7.1875 2.96875q2.703125 2.953125 2.703125 8.140625l0 15.203125l-7.921875 0l0 -14.140625q0 -2.609375 -1.359375 -4.046875q-1.34375 -1.453125 -3.640625 -1.453125q-2.28125 0 -3.640625 1.453125q-1.34375 1.4375 -1.34375 4.046875l0 14.140625l-7.984375 0l0 -34.53125l7.984375 0l0 12.0q1.203125 -1.734375 3.296875 -2.75q2.109375 -1.03125 4.71875 -1.03125zm39.993103 12.875q0 1.125 -0.140625 2.328125l-18.0625 0q0.1875 2.4375 1.5625 3.71875q1.375 1.28125 3.390625 1.28125q2.984375 0 4.140625 -2.515625l8.5 0q-0.65625 2.5625 -2.359375 4.625q-1.703125 2.046875 -4.265625 3.21875q-2.5625 1.15625 -5.734375 1.15625q-3.828125 0 -6.8125 -1.625q-2.984375 -1.640625 -4.671875 -4.671875q-1.671875 -3.03125 -1.671875 -7.09375q0 -4.0625 1.65625 -7.09375q1.65625 -3.03125 4.640625 -4.65625q2.984375 -1.640625 6.859375 -1.640625q3.78125 0 6.71875 1.59375q2.9375 1.578125 4.59375 4.515625q1.65625 2.9375 1.65625 6.859375zm-8.171875 -2.09375q0 -2.0625 -1.40625 -3.265625q-1.390625 -1.21875 -3.484375 -1.21875q-2.015625 0 -3.390625 1.171875q-1.375 1.15625 -1.703125 3.3125l9.984375 0z" fill-rule="nonzero"/><path fill="#e06f3e" d="m256.20892 308.39838q-4.609375 0 -8.28125 -1.5q-3.65625 -1.5 -5.84375 -4.4375q-2.1875 -2.9375 -2.3125 -7.078125l10.921875 0q0.25 2.328125 1.625 3.5625q1.375 1.234375 3.59375 1.234375q2.28125 0 3.59375 -1.046875q1.328125 -1.0625 1.328125 -2.921875q0 -1.546875 -1.046875 -2.5625q-1.046875 -1.03125 -2.578125 -1.6875q-1.53125 -0.671875 -4.359375 -1.5q-4.078125 -1.265625 -6.65625 -2.515625q-2.578125 -1.265625 -4.4375 -3.71875q-1.859375 -2.46875 -1.859375 -6.4375q0 -5.875 4.25 -9.203125q4.265625 -3.328125 11.109375 -3.328125q6.953125 0 11.21875 3.328125q4.265625 3.328125 4.5625 9.265625l-11.09375 0q-0.125 -2.03125 -1.515625 -3.203125q-1.375 -1.171875 -3.53125 -1.171875q-1.859375 0 -3.0 1.0q-1.140625 0.984375 -1.140625 2.84375q0 2.03125 1.921875 3.171875q1.921875 1.140625 6.0 2.46875q4.078125 1.375 6.625 2.640625q2.546875 1.25 4.40625 3.65625q1.859375 2.40625 1.859375 6.171875q0 3.609375 -1.828125 6.546875q-1.828125 2.9375 -5.3125 4.6875q-3.46875 1.734375 -8.21875 1.734375zm36.899963 0.0625q-4.90625 0 -8.84375 -2.09375q-3.921875 -2.109375 -6.171875 -6.0q-2.25 -3.90625 -2.25 -9.125q0 -5.171875 2.265625 -9.09375q2.28125 -3.9375 6.234375 -6.03125q3.96875 -2.09375 8.890625 -2.09375q4.921875 0 8.875 2.09375q3.96875 2.09375 6.25 6.03125q2.28125 3.921875 2.28125 9.09375q0 5.15625 -2.3125 9.09375q-2.3125 3.921875 -6.3125 6.03125q-3.984375 2.09375 -8.90625 2.09375zm0 -8.890625q2.953125 0 5.015625 -2.15625q2.078125 -2.15625 2.078125 -6.171875q0 -4.03125 -2.015625 -6.1875q-2.015625 -2.15625 -4.953125 -2.15625q-3.0 0 -4.984375 2.140625q-1.96875 2.125 -1.96875 6.203125q0 4.015625 1.9375 6.171875q1.953125 2.15625 4.890625 2.15625zm20.954346 -8.328125q0 -5.21875 2.125 -9.125q2.125 -3.90625 5.9375 -6.0q3.8125 -2.09375 8.734375 -2.09375q6.296875 0 10.515625 3.296875q4.234375 3.296875 5.5625 9.296875l-10.921875 0q-1.375 -3.84375 -5.34375 -3.84375q-2.8125 0 -4.5 2.203125q-1.671875 2.1875 -1.671875 6.265625q0 4.078125 1.671875 6.265625q1.6875 2.1875 4.5 2.1875q3.96875 0 5.34375 -3.84375l10.921875 0q-1.328125 5.890625 -5.59375 9.25q-4.25 3.359375 -10.484375 3.359375q-4.921875 0 -8.734375 -2.09375q-3.8125 -2.109375 -5.9375 -6.0q-2.125 -3.90625 -2.125 -9.125zm43.487488 -20.21875q-2.6875 0 -4.40625 -1.59375q-1.703125 -1.59375 -1.703125 -3.9375q0 -2.390625 1.703125 -3.984375q1.71875 -1.59375 4.40625 -1.59375q2.640625 0 4.34375 1.59375q1.71875 1.59375 1.71875 3.984375q0 2.34375 -1.71875 3.9375q-1.703125 1.59375 -4.34375 1.59375zm5.109375 3.46875l0 33.484375l-10.265625 0l0 -33.484375l10.265625 0zm38.996826 16.203125q0 1.4375 -0.1875 3.0l-23.21875 0q0.25 3.125 2.015625 4.78125q1.765625 1.640625 4.34375 1.640625q3.84375 0 5.34375 -3.234375l10.921875 0q-0.84375 3.296875 -3.03125 5.9375q-2.1875 2.640625 -5.484375 4.140625q-3.296875 1.5 -7.390625 1.5q-4.90625 0 -8.75 -2.09375q-3.84375 -2.109375 -6.0 -6.0q-2.15625 -3.90625 -2.15625 -9.125q0 -5.21875 2.125 -9.125q2.125 -3.90625 5.96875 -6.0q3.84375 -2.09375 8.8125 -2.09375q4.859375 0 8.640625 2.046875q3.78125 2.03125 5.90625 5.8125q2.140625 3.78125 2.140625 8.8125zm-10.5 -2.703125q0 -2.640625 -1.796875 -4.1875q-1.796875 -1.5625 -4.5 -1.5625q-2.578125 0 -4.359375 1.5q-1.765625 1.5 -2.1875 4.25l12.84375 0zm34.55371 11.28125l0 8.703125l-5.21875 0q-5.578125 0 -8.703125 -2.71875q-3.109375 -2.734375 -3.109375 -8.921875l0 -13.3125l-4.078125 0l0 -8.53125l4.078125 0l0 -8.15625l10.25 0l0 8.15625l6.71875 0l0 8.53125l-6.71875 0l0 13.4375q0 1.5 0.71875 2.15625q0.734375 0.65625 2.40625 0.65625l3.65625 0zm39.90686 -24.78125l-21.0 49.390625l-11.046875 0l7.6875 -17.046875l-13.625 -32.34375l11.46875 0l7.734375 20.9375l7.671875 -20.9375l11.109375 0z" fill-rule="nonzero"/><path fill="#000000" fill-opacity="0.0" d="m225.47769 72.00986l173.44882 0l0 96.157486l-173.44882 0z" fill-rule="evenodd"/><path fill="#e06f3e" d="m260.12466 118.81047q0 -13.84375 5.875 -21.765625q5.875 -7.921875 18.125 -7.921875q12.15625 0 18.078125 7.96875q5.921875 7.953125 5.921875 21.71875q0 13.84375 -5.921875 21.8125q-5.921875 7.953125 -18.078125 7.953125q-12.25 0 -18.125 -7.953125q-5.875 -7.96875 -5.875 -21.8125zm30.484375 0q0 -6.40625 -1.28125 -9.640625q-1.28125 -3.234375 -5.203125 -3.234375q-4.0 0 -5.28125 3.234375q-1.28125 3.234375 -1.28125 9.640625q0 6.484375 1.28125 9.71875q1.28125 3.234375 5.28125 3.234375q3.921875 0 5.203125 -3.234375q1.28125 -3.234375 1.28125 -9.71875zm24.069305 21.28125l0 -14.796875l23.84375 -34.0l19.125 0l0 33.4375l5.75 0l0 15.359375l-5.75 0l0 8.796875l-17.921875 0l0 -8.796875l-25.046875 0zm26.484375 -28.5625l-8.640625 13.203125l8.640625 0l0 -13.203125z" fill-rule="nonzero"/><path fill="#000000" fill-opacity="0.0" d="m189.43832 168.16862l275.1181 0" fill-rule="evenodd"/><path stroke="#000000" stroke-width="1.0" stroke-linejoin="round" stroke-linecap="butt" d="m189.43832 168.16862l275.1181 0" fill-rule="evenodd"/><path fill="#6978b1" d="m857.9434 458.26324c0 0 24.404602 32.44629 24.404602 81.63971l-179.35852 0c0 0 5.5525513 -62.019104 13.113892 -81.63971z" fill-rule="evenodd"/><path fill="#000000" fill-opacity="0.0" d="m855.1683 488.4125c6.890991 24.88498 8.89978 24.404572 8.89978 51.58658" fill-rule="evenodd"/><path stroke="#ffffff" stroke-width="1.0" stroke-linejoin="round" stroke-linecap="round" d="m855.1683 488.4125c6.890991 24.88498 8.89978 24.404572 8.89978 51.58658" fill-rule="evenodd"/><path fill="#000000" fill-opacity="0.0377" d="m857.9434 458.26324c6.6989136 7.1792297 11.485046 23.64038 11.485046 23.64038c-63.07373 -0.57424927 -153.2312 -23.544312 -153.2312 -23.544312l141.74615 -0.096069336z" fill-rule="evenodd"/><path fill="#4e1d16" d="m678.2028 305.32248l29.190735 3.1572876c0 0 21.821533 66.32709 2.296997 66.32709c-15.889038 0 -31.487732 -69.484375 -31.487732 -69.484375z" fill-rule="evenodd"/><path fill="#e4976d" d="m638.29126 297.0908l51.300537 8.03952l44.407288 3.0634155l-15.598694 59.818207c0 0 -2.0874023 0.05239868 -5.6748047 0.05239868c-14.474182 0 -53.37262 -0.8602905 -78.07196 -9.528656c-4.4018555 -1.5306091 -8.325562 -3.3494263 -11.581116 -5.3604126c-7.6552124 -4.8800354 -7.6552124 -13.685944 -4.593994 -22.873962l0 -0.09390259c5.2643433 -15.889069 19.812744 -33.116608 19.812744 -33.116608z" fill-rule="evenodd"/><path fill="#d47c56" d="m618.4785 330.3013c4.1158447 0.38427734 8.519897 2.3930664 12.155334 5.8385925c7.371399 6.794922 9.284119 16.65329 4.211914 22.109741c-0.096069336 0.09390259 -0.19213867 0.18997192 -0.19213867 0.28604126c-4.4018555 -1.5306091 -8.325562 -3.3494263 -11.581116 -5.3604126c-7.6552124 -4.8800354 -7.6552124 -13.685944 -4.593994 -22.873962z" fill-rule="evenodd"/><path fill="#e06f3e" d="m790.9591 232.15894c9.179321 0 45.136597 12.262344 34.826294 44.06888l-67.093506 -20.098816c0 0 1.6288452 -7.561325 17.707886 -7.7534637c0 0 8.229492 -12.729599 12.727417 -15.886902c0.32531738 -0.216156 0.9585571 -0.32969666 1.8319092 -0.32969666z" fill-rule="evenodd"/><path fill="#fabd53" d="m790.46783 231.66328c4.159485 0 11.9435425 1.8319244 17.70575 5.2272186c0 0 -3.609314 -1.4716492 -6.6814575 -1.4716492c-1.2860107 0 -2.4804077 0.25764465 -3.270813 0.99346924c-2.7773438 2.489151 -10.528687 13.58989 -10.528687 13.58989c0 0 -6.3167114 -1.4345398 -11.292847 -1.6266785c0 0 9.091919 -15.504791 11.963196 -16.461151c0.50219727 -0.16812134 1.2227173 -0.25109863 2.1048584 -0.25109863z" fill-rule="evenodd"/><path fill="#2c160c" d="m771.5219 251.39963c6.611511 0 15.137939 1.4127045 24.114197 4.2490234c18.472107 5.8385925 31.965942 15.504791 30.053223 21.535522c-0.9847412 3.148529 -5.836426 4.72937 -12.84314 4.72937c-6.624634 0 -15.172913 -1.4126892 -24.197205 -4.2512207c-18.472107 -5.838562 -31.869812 -15.504761 -29.957092 -21.533325c0.9847412 -3.1485443 5.8363647 -4.72937 12.830017 -4.72937z" fill-rule="evenodd"/><path fill="#000000" d="m800.8262 234.92975c6.5722656 0 13.952393 6.076584 13.952393 6.076584c0 0 -9.397644 -4.8189087 -13.917419 -4.8189087c-0.41485596 0 -0.78826904 0.041488647 -1.1091919 0.12882996c-2.7752075 0.6703186 -10.336548 13.58989 -10.336548 13.58989l-1.5305786 -0.28604126c0 0 6.6988525 -14.164139 11.963196 -14.644501c0.32312012 -0.030563354 0.65063477 -0.04585266 0.9781494 -0.04585266z" fill-rule="evenodd"/><path stroke="#000000" stroke-width="1.0" stroke-linejoin="round" stroke-linecap="butt" d="m800.8262 234.92975c6.5722656 0 13.952393 6.076584 13.952393 6.076584c0 0 -9.397644 -4.8189087 -13.917419 -4.8189087c-0.41485596 0 -0.78826904 0.041488647 -1.1091919 0.12882996c-2.7752075 0.6703186 -10.336548 13.58989 -10.336548 13.58989l-1.5305786 -0.28604126c0 0 6.6988525 -14.164139 11.963196 -14.644501c0.32312012 -0.030563354 0.65063477 -0.04585266 0.9781494 -0.04585266z" fill-rule="evenodd"/><path fill="#000000" d="m776.3998 247.99342c13.493835 0.096069336 27.850098 6.028549 28.042236 6.028549c0.1899414 0.096069336 0.1899414 0.288208 0.1899414 0.47817993c-0.09387207 0.19213867 -0.1899414 0.19213867 -0.38208008 0.19213867l0 0.096069336c0 0 -0.096069336 0 -0.096069336 -0.096069336c-0.19000244 0 -14.452393 -5.934662 -27.754028 -6.028549c-0.19213867 0 -0.38427734 -0.096069336 -0.38427734 -0.288208c0 -0.28604126 0.19213867 -0.3821106 0.38427734 -0.3821106z" fill-rule="evenodd"/><path stroke="#000000" stroke-width="1.0" stroke-linejoin="round" stroke-linecap="butt" d="m776.3998 247.99342c13.493835 0.096069336 27.850098 6.028549 28.042236 6.028549c0.1899414 0.096069336 0.1899414 0.288208 0.1899414 0.47817993c-0.09387207 0.19213867 -0.1899414 0.19213867 -0.38208008 0.19213867l0 0.096069336c0 0 -0.096069336 0 -0.096069336 -0.096069336c-0.19000244 0 -14.452393 -5.934662 -27.754028 -6.028549c-0.19213867 0 -0.38427734 -0.096069336 -0.38427734 -0.288208c0 -0.28604126 0.19213867 -0.3821106 0.38427734 -0.3821106z" fill-rule="evenodd"/><path fill="#4e1d16" d="m901.7525 384.47525c3.888733 0 7.0438232 1.2685852 9.022034 4.303589c9.284119 14.26239 -27.948303 47.4729 -59.914246 48.52533l-7.177063 -20.480896c0 0 38.413696 -32.348022 58.069275 -32.348022z" fill-rule="evenodd"/><path fill="#e4976d" d="m897.37463 374.80685c0 0 26.033447 45.365845 36.081726 76.4715c1.3406982 4.019745 2.2009277 7.9434204 2.585266 11.485016c0.95635986 9.85614 -7.3692017 15.408691 -17.801819 18.46991c-15.60083 4.7861633 -47.37683 10.242645 -47.37683 10.242645l-12.919556 -49.09958l-25.555237 -39.527252l64.98645 -28.042236z" fill-rule="evenodd"/><path fill="#ffffff" d="m808.3657 305.32248c0 0 49.577698 8.805908 67.28345 25.937378c12.059265 11.578888 35.125366 57.518982 35.125366 57.518982c0 0 -27.564026 2.7773743 -59.818176 32.73233l6.9870605 20.865173c0.28607178 0.76641846 0 15.982971 0 15.982971l-141.74615 0l13.974182 -30.817413l8.5177 -51.874756l-28.998596 -0.8602905c0 0 4.4018555 -17.22754 -7.179199 -42.208557c-5.932495 -12.919556 -9.47406 -27.275818 -9.47406 -27.275818l0 0l61.156677 4.4018555l19.238464 1.5327759l11.581116 0.95635986l23.352173 -6.890991z" fill-rule="evenodd"/><path fill="#000000" fill-opacity="0.0377" d="m829.2309 366.8634l21.821533 54.647766l6.890991 20.865173l0 24.78888l-30.2453 0c-3.253418 -14.834442 7.9456177 -32.25412 7.9456177 -32.25412c-14.356323 -13.397766 -6.412842 -68.0455 -6.412842 -68.0477z" fill-rule="evenodd"/><path fill="#e06f3e" d="m807.9851 305.80017c7.083191 1.0524292 18.66211 4.2118835 18.66211 4.2118835c-22.395813 83.64853 14.836609 89.006744 14.836609 89.006744l2.3930664 6.030731l6.794983 16.939331l4.6900635 14.356262l2.2009277 6.508911l4.209717 15.982971l0 0l-78.28815 -3.8276062c0.8602905 -6.6049805 2.008789 -14.260223 3.3494873 -22.684021c1.4345093 -9.47406 3.1572876 -19.810577 4.880005 -30.339233c7.465271 -45.940094 16.27118 -96.185974 16.27118 -96.185974z" fill-rule="evenodd"/><path fill="#4e1d16" d="m774.62244 253.17479c3.2271729 0 7.2818604 0.43450928 12.303833 1.2314606c17.22754 2.6791077 29.957153 15.982971 29.957153 15.982971c2.3930664 16.74936 -10.432617 26.415558 -10.432617 26.415558l-33.01837 -22.299744c-1.6703491 2.3996277 -3.7380981 3.1485596 -5.677002 3.1485596c-1.6179199 0 -3.144165 -0.5218506 -4.277405 -1.0437012c-6.412842 -3.063385 -4.880066 -9.091919 -4.880066 -9.091919l0 0c0.16381836 0.20523071 0.5065918 0.29693604 0.94329834 0.29693604c1.5830078 0 4.3953247 -1.2008972 4.3189087 -2.4039917c-0.9192505 -8.712036 1.567688 -12.23613 10.762268 -12.23613z" fill-rule="evenodd"/><path fill="#000000" fill-opacity="0.0" d="m815.5427 267.70792c0 0 4.594055 9.762268 -1.9127197 18.089996" fill-rule="evenodd"/><path stroke="#ffffff" stroke-width="1.0" stroke-linejoin="round" stroke-linecap="round" d="m815.5427 267.70792c0 0 4.594055 9.762268 -1.9127197 18.089996" fill-rule="evenodd"/><path fill="#000000" fill-opacity="0.0" d="m771.7097 256.31897c0 0 -2.7752075 4.019745 1.9127197 8.231659" fill-rule="evenodd"/><path stroke="#ffffff" stroke-width="1.0" stroke-linejoin="round" stroke-linecap="round" d="m771.7097 256.31897c0 0 -2.7752075 4.019745 1.9127197 8.231659" fill-rule="evenodd"/><path fill="#e4976d" d="m804.63196 285.7979l3.7337646 19.524567c0 0 -5.9259644 8.85611 -15.482971 8.85611c-2.4039917 0 -5.041626 -0.5611267 -7.8692017 -1.9651184l-1.5327759 -20.961243l21.151184 -5.454315z" fill-rule="evenodd"/><path fill="#000000" fill-opacity="0.0377" d="m798.0292 287.5207l1.3406372 7.847351c0 0 2.4367676 16.96991 -12.1073 16.96991c-0.7095947 0 -1.4585571 -0.03930664 -2.2489624 -0.1244812l-1.5327759 -21.055145l14.548401 -3.6376343z" fill-rule="evenodd"/><path fill="#e4976d" d="m793.81726 259.6684l0 0c-1.0524292 9.668396 8.61377 10.336517 8.61377 10.336517l-2.9673462 10.336548l8.231689 4.2118835c0 0 -7.5700684 16.426208 -22.775696 16.426208c-1.8930664 0 -3.9040527 -0.25326538 -6.032959 -0.8253479c-15.120483 -4.019745 -8.803711 -19.716675 -8.803711 -19.716675c1.33844 -6.987091 0.7642212 -12.823486 0.7642212 -12.823486c-0.95635986 -4.690094 2.296997 -5.8385925 2.296997 -5.8385925c0.35369873 -0.20306396 0.7642212 -0.28604126 1.2249146 -0.28604126c2.152893 0 5.40625 1.8341064 9.111633 1.9127197c0.10479736 0.0043640137 0.21179199 0.0065612793 0.31658936 0.0065612793c4.364746 0 10.019897 -3.7380981 10.019897 -3.7402954z" fill-rule="evenodd"/><path fill="#d47c56" d="m793.81726 280.8218c2.3930664 0 4.4040527 1.3384705 4.4040527 2.965149c0 1.6288757 -2.0109863 2.9673157 -4.4040527 2.9673157c-2.3930664 0 -4.4018555 -1.33844 -4.4018555 -2.9673157c0 -1.6266785 2.008789 -2.965149 4.4018555 -2.965149z" fill-rule="evenodd"/><path fill="#d47c56" d="m770.369 278.90692c0.47821045 0 0.95635986 0 1.4367676 0.096069336c2.3908691 0.28604126 4.1136475 1.9127197 3.8275757 3.541565c-0.16375732 1.3843384 -1.7139893 2.283905 -3.6485596 2.283905c-0.33843994 0 -0.6856079 -0.026184082 -1.0415039 -0.082977295c-0.6703491 -0.096069336 -1.3406372 -0.288208 -1.8188477 -0.47817993c0.38433838 -2.296997 0.9585571 -3.829773 0.9585571 -3.829773c0.09387207 -0.57424927 0.1899414 -1.0524292 0.28601074 -1.5306091z" fill-rule="evenodd"/><path fill="#fefefe" d="m790.2036 274.2452c1.7511597 0 3.6922607 0.52841187 5.432495 2.2686157c-0.14190674 0.21398926 -1.932373 2.342865 -4.738098 2.342865c-0.9585571 0 -2.0350342 -0.24890137 -3.2053833 -0.9061279c-0.86242676 -0.57424927 -1.7227173 -1.2445679 -2.6790771 -2.203125c0 0 1.0524292 -0.66815186 2.5830078 -1.1484985c0.7729492 -0.2008667 1.6616211 -0.35372925 2.6070557 -0.35372925z" fill-rule="evenodd"/><path fill="#4e1d16" d="m790.2036 274.2452c1.7511597 0 3.6922607 0.52841187 5.432495 2.2686157c-0.14190674 0.21398926 -1.932373 2.342865 -4.738098 2.342865c-0.9585571 0 -2.0350342 -0.24890137 -3.2053833 -0.9061279c-0.19213867 -0.76638794 -0.288208 -1.5328064 -0.19213867 -2.393097c0 -0.288208 0 -0.57424927 0.096069336 -0.9585266c0.7729492 -0.2008667 1.6616211 -0.35372925 2.6070557 -0.35372925z" fill-rule="evenodd"/><path fill="#fefefe" d="m775.7753 272.98972c1.2860107 0 2.6834717 0.50439453 3.973877 2.089569c-0.07421875 0.14630127 -1.5568237 2.4935303 -3.8450928 2.4935303c-0.6921387 0 -1.4585571 -0.216156 -2.2816772 -0.77075195c-0.5742798 -0.4803772 -1.338501 -1.1484985 -2.008789 -2.1070557c0 0 0.7663574 -0.7642212 1.914856 -1.2445679c0.6659546 -0.2576599 1.4345703 -0.46072388 2.2468262 -0.46072388z" fill-rule="evenodd"/><path fill="#4e1d16" d="m775.7753 272.98972c1.2860107 0 2.6834717 0.50439453 3.973877 2.089569c-0.07421875 0.14630127 -1.5568237 2.4935303 -3.8450928 2.4935303c-0.6921387 0 -1.4585571 -0.216156 -2.2816772 -0.77075195c-0.093933105 -0.76641846 -0.19000244 -1.5328064 -0.19000244 -2.2970276c0 -0.38427734 0.096069336 -0.6703186 0.096069336 -1.054596c0.6659546 -0.2576599 1.4345703 -0.46072388 2.2468262 -0.46072388z" fill-rule="evenodd"/><path fill="#000000" fill-opacity="0.0" d="m802.145 292.59286c0 0 -8.039551 9.954407 -20.865173 8.13559" fill-rule="evenodd"/><path stroke="#000000" stroke-width="1.0" stroke-linejoin="round" stroke-linecap="round" d="m802.145 292.59286c0 0 -8.039551 9.954407 -20.865173 8.13559" fill-rule="evenodd"/><path fill="#000000" fill-opacity="0.0" d="m804.92017 284.84158l-6.0307007 -2.9673462" fill-rule="evenodd"/><path stroke="#4e1d16" stroke-width="1.4960629921259843" stroke-linejoin="round" stroke-linecap="round" d="m804.92017 284.84158l-6.0307007 -2.9673462" fill-rule="evenodd"/><path fill="#000000" fill-opacity="0.0" d="m793.81726 271.05954c0 0 -2.296997 -2.5852356 -5.550354 -0.6703186" fill-rule="evenodd"/><path stroke="#000000" stroke-width="1.0" stroke-linejoin="round" stroke-linecap="round" d="m793.81726 271.05954c0 0 -2.296997 -2.5852356 -5.550354 -0.6703186" fill-rule="evenodd"/><path fill="#000000" fill-opacity="0.0" d="m778.50464 270.0049c0 0 -2.3930664 -2.5830383 -5.6464233 -0.57424927" fill-rule="evenodd"/><path stroke="#000000" stroke-width="1.0" stroke-linejoin="round" stroke-linecap="round" d="m778.50464 270.0049c0 0 -2.3930664 -2.5830383 -5.6464233 -0.57424927" fill-rule="evenodd"/><path fill="#000000" fill-opacity="0.0" d="m783.4808 271.05954c0 0 -3.7315674 0 -5.7425537 12.059265c0 0 2.0109863 1.1484985 5.7425537 1.1484985" fill-rule="evenodd"/><path stroke="#000000" stroke-width="1.0" stroke-linejoin="round" stroke-linecap="round" d="m783.4808 271.05954c0 0 -3.7315674 0 -5.7425537 12.059265c0 0 2.0109863 1.1484985 5.7425537 1.1484985" fill-rule="evenodd"/><path fill="#000000" fill-opacity="0.0" d="m790.1818 288.6692c0 0 -2.203125 3.253357 -5.456482 2.6791077" fill-rule="evenodd"/><path stroke="#000000" stroke-width="1.0" stroke-linejoin="round" stroke-linecap="round" d="m790.1818 288.6692c0 0 -2.203125 3.253357 -5.456482 2.6791077" fill-rule="evenodd"/><path fill="#000000" fill-opacity="0.0" d="m791.7124 289.62555c0 0 -1.7227173 -0.95635986 -1.5305786 -2.8712769" fill-rule="evenodd"/><path stroke="#000000" stroke-width="1.0" stroke-linejoin="round" stroke-linecap="round" d="m791.7124 289.62555c0 0 -1.7227173 -0.95635986 -1.5305786 -2.8712769" fill-rule="evenodd"/><path fill="#e4976d" d="m810.2675 278.48987c2.8668823 0 5.3582153 1.5262451 6.041626 3.9586182c0.8624878 3.0612183 -1.5305786 6.3167725 -5.2643433 7.3692017c-0.7685547 0.216156 -1.5393066 0.32095337 -2.2838745 0.32095337c-2.8668823 0 -5.3582153 -1.5284119 -6.041687 -3.9586182c-0.86242676 -3.0612183 1.5306396 -6.4128113 5.2643433 -7.369171c0.7686157 -0.21618652 1.5393677 -0.3209839 2.2839355 -0.3209839z" fill-rule="evenodd"/><path fill="#000000" fill-opacity="0.0" d="m812.5776 281.87424c0 0 -5.5525513 -0.47817993 -6.12677 4.8800354" fill-rule="evenodd"/><path stroke="#000000" stroke-width="1.0" stroke-linejoin="round" stroke-linecap="round" d="m812.5776 281.87424c0 0 -5.5525513 -0.47817993 -6.12677 4.8800354" fill-rule="evenodd"/><path fill="#000000" fill-opacity="0.0" d="m857.9434 327.33615c0 0 -25.555237 -3.4454956 -27.852234 30.243164" fill-rule="evenodd"/><path stroke="#000000" stroke-width="1.0" stroke-linejoin="round" stroke-linecap="round" d="m857.9434 327.33615c0 0 -25.555237 -3.4454956 -27.852234 30.243164" fill-rule="evenodd"/><path fill="#e06f3e" d="m769.12445 310.9689l15.889099 1.2445679l-13.113892 88.050415l-4.497925 30.435303l-3.4454956 22.970032c0 0 -5.4368286 -0.23361206 -12.954529 -0.23361206c-13.393372 0 -33.396057 0.7423706 -41.02295 4.8713074l0 0l19.61847 -29.904724l0.57421875 -0.7642212l4.786194 -29.575043l3.7315063 -22.395782c0 0 22.970032 -11.388947 30.435303 -64.69824zm-59.14569 147.33801l-0.09820557 0.14846802l0 -0.096069336c0.032714844 -0.017456055 0.06549072 -0.034942627 0.09820557 -0.05239868z" fill-rule="evenodd"/><path fill="#fabd53" d="m792.09454 401.50845l52.162964 3.063385l6.794922 16.939331l4.6900635 14.356262l-68.528015 -4.019745c1.5305786 -9.47406 3.1572876 -19.810577 4.880066 -30.339233z" fill-rule="evenodd"/><path fill="#fabd53" d="m734.95764 398.06293l36.942017 2.2009583l-4.497925 30.435303l-37.804504 -2.296997l0.57421875 -0.7642212l4.786194 -29.575043z" fill-rule="evenodd"/><path fill="#000000" fill-opacity="0.0" d="m730.17145 427.63797l-0.57421875 9.666199" fill-rule="evenodd"/><path stroke="#000000" stroke-width="1.0" stroke-linejoin="round" stroke-linecap="round" d="m730.17145 427.63797l-0.57421875 9.666199" fill-rule="evenodd"/><path fill="#4e1d16" d="m784.15106 318.05206l3.541565 0.57424927l-18.854187 135.80933l-4.882202 -0.76641846l20.194824 -135.61716z" fill-rule="evenodd"/><path fill="#4e1d16" d="m705.5747 166.06546l69.38837 272.19507l-5.7425537 1.4367065l-69.388306 -272.19507l5.7424927 -1.4367218z" fill-rule="evenodd"/><path fill="#4e1d16" d="m626.9984 144.15002l153.13293 52.064713l-2.9673462 4.49794l-131.40747 33.49872l-21.725464 -85.56343l2.9673462 -4.49794z" fill-rule="evenodd"/><path fill="#ffffff" d="m758.30975 110.65131l21.821594 85.56342l-131.3114 33.49872l-21.821533 -85.56343l131.31134 -33.49871z" fill-rule="evenodd"/><path fill="#e4976d" d="m727.8308 229.1807c0.79260254 0 1.4279785 0.07859802 1.8624878 0.24453735l-0.096069336 0c3.253357 1.2445831 6.890991 8.03952 8.5177 10.050491c1.7227173 2.008789 -0.95635986 5.262146 -0.95635986 5.262146c0 0 4.497925 3.7337341 5.168274 6.7971344c0.7663574 3.0612183 -2.7752075 5.550354 -2.7752075 5.550354c0 0 4.497925 5.646454 3.635437 7.177063c-0.76416016 1.5327759 -8.5177 12.539642 -12.919556 12.921753c-0.48468018 0.050201416 -0.93011475 0.07421875 -1.3428345 0.07421875c-6.591858 0 -4.303589 -6.102783 -4.303589 -6.10495l0 0c-36.944214 40.10367 -54.267822 58.669678 -54.267822 58.669678l-32.06201 -32.73233c19.906677 -26.511597 65.94281 -59.912064 65.94281 -59.912064c6.5548096 -4.6464233 18.430664 -7.9980316 23.59674 -7.9980316z" fill-rule="evenodd"/><path fill="#4e1d16" d="m731.6082 267.90005l66.70697 261.95462l-5.7424927 1.4345093l-66.42096 -260.51785c1.4367065 -0.47817993 3.7337036 -1.4345398 5.456482 -2.8712769z" fill-rule="evenodd"/><path fill="#000000" fill-opacity="0.0" d="m739.6477 257.08536c0 0 -3.7337036 -4.786148 -4.882202 -6.316757c-1.1485596 -1.5306091 -5.6464844 0.95635986 -5.6464844 0.95635986" fill-rule="evenodd"/><path stroke="#000000" stroke-width="1.0" stroke-linejoin="round" stroke-linecap="round" d="m739.6477 257.08536c0 0 -3.7337036 -4.786148 -4.882202 -6.316757c-1.1485596 -1.5306091 -5.6464844 0.95635986 -5.6464844 0.95635986" fill-rule="evenodd"/><path fill="#000000" fill-opacity="0.0" d="m693.13336 305.32248l-17.897888 19.236298" fill-rule="evenodd"/><path stroke="#000000" stroke-width="1.0" stroke-linejoin="round" stroke-linecap="round" d="m693.13336 305.32248l-17.897888 19.236298" fill-rule="evenodd"/><path fill="#000000" fill-opacity="0.0" d="m737.8294 244.93025c0 0 -4.019348 -3.6217346 -5.263794 -4.7785797c-1.2444458 -1.1550903 -5.5498047 1.1568451 -5.5498047 1.1568451" fill-rule="evenodd"/><path stroke="#000000" stroke-width="1.0" stroke-linejoin="round" stroke-linecap="round" d="m737.8294 244.93025c0 0 -4.019348 -3.6217346 -5.263794 -4.7785797c-1.2444458 -1.1550903 -5.5498047 1.1568451 -5.5498047 1.1568451" fill-rule="evenodd"/><path fill="#000000" fill-opacity="0.0" d="m724.6211 271.15344c0 0 7.3692017 -1.626709 8.803711 -5.932495" fill-rule="evenodd"/><path stroke="#000000" stroke-width="1.0" stroke-linejoin="round" stroke-linecap="round" d="m724.6211 271.15344c0 0 7.3692017 -1.626709 8.803711 -5.932495" fill-rule="evenodd"/><path fill="#000000" fill-opacity="0.0" d="m731.416 267.99615c0 0 2.1048584 0.76638794 3.7315674 0.28601074" fill-rule="evenodd"/><path stroke="#000000" stroke-width="1.0" stroke-linejoin="round" stroke-linecap="round" d="m731.416 267.99615c0 0 2.1048584 0.76638794 3.7315674 0.28601074" fill-rule="evenodd"/><path fill="#e4976d" d="m857.9434 442.37634l26.319519 23.83252l-13.399963 25.26706c0 0 -24.97882 4.593994 -78.576294 14.164124c0 0 7.08313 1.5306091 2.008789 8.03952c-2.4127197 3.1878662 -13.594238 4.0481567 -17.055054 4.0481567c-0.3821411 0 -0.6703491 -0.008728027 -0.8406372 -0.028381348c-1.7227783 -0.19213867 -4.1158447 -6.987091 -4.1158447 -6.987091c0 0 -1.4127197 0.62008667 -3.0197144 0.62008667c-1.0698853 0 -2.2249756 -0.27511597 -3.1070557 -1.1943359c-2.2009277 -2.296997 -2.965149 -8.03952 -2.965149 -8.03952c0 0 -0.32537842 0.037109375 -0.81225586 0.037109375c-1.2620239 0 -3.6114502 -0.24890137 -4.1660767 -2.0458984c-0.7642212 -2.4891663 -4.593994 -9.284088 -3.923645 -12.633514c0.6702881 -3.3516235 11.677124 -13.688141 20.194824 -17.133667c0 0 44.503418 -19.140228 83.45856 -27.946167z" fill-rule="evenodd"/><path fill="#000000" fill-opacity="0.0" d="m857.9434 442.37634c0 0 13.971985 -2.5830383 22.874023 0" fill-rule="evenodd"/><path stroke="#000000" stroke-width="1.0" stroke-linejoin="round" stroke-linecap="round" d="m857.9434 442.37634c0 0 13.971985 -2.5830383 22.874023 0" fill-rule="evenodd"/><path fill="#000000" fill-opacity="0.0" d="m764.0523 502.09848c0 0 -1.626709 -5.8385925 -2.1048584 -7.6574097c-0.5742798 -1.8166504 4.1157837 -3.9236755 4.1157837 -3.9236755" fill-rule="evenodd"/><path stroke="#000000" stroke-width="1.0" stroke-linejoin="round" stroke-linecap="round" d="m764.0523 502.09848c0 0 -1.626709 -5.8385925 -2.1048584 -7.6574097c-0.5742798 -1.8166504 4.1157837 -3.9236755 4.1157837 -3.9236755" fill-rule="evenodd"/><path fill="#fabd53" d="m575.385 415.73953c-6.4887085 0 -13.008728 1.0658264 -19.246704 3.1974182c-0.2821045 0 -0.564209 0.15673828 -0.9717407 0.282135c-0.2821045 0.15673828 -0.72094727 0.282135 -1.0030518 0.4388733c-0.56427 0.12536621 -1.0031128 0.40750122 -1.4106445 0.5642395l-3.980957 27.334808l-6.3633423 43.384583l-3.416748 23.259644l-3.8242798 25.767456l80.215576 0l-3.385437 -23.667175l-3.5421143 -24.231445l-6.3947144 -43.071106l-4.2317505 -28.776764c-7.1469727 -3.0093384 -14.795532 -4.482666 -22.444092 -4.482666z" fill-rule="evenodd"/><path fill="#e06f3e" d="m567.07825 446.45984c-6.300659 0 -12.538574 0.31347656 -18.306335 1.097168l-6.3633423 43.384583c7.460449 -1.7241211 16.174744 -2.3510437 24.983093 -2.3510437c15.798645 0 31.78534 2.0375671 41.063904 3.4795227l-6.3947144 -43.071106c-9.372559 -1.2538757 -22.255981 -2.5391235 -34.982605 -2.5391235z" fill-rule="evenodd"/><path fill="#e06f3e" d="m563.348 512.9473c-6.0185547 0 -12.037048 0.18811035 -17.836182 0.6583252c-2.256897 0.15673828 -4.388489 0.31347656 -6.5200195 0.59558105l-3.8242798 25.767456l80.215576 0l-3.385437 -23.667175c-13.572998 -1.661438 -31.22107 -3.354187 -48.64966 -3.354187z" fill-rule="evenodd"/><path fill="#ffffff" fill-opacity="0.3459" d="m559.55505 417.93384c-1.128479 0.282135 -2.256897 0.5956116 -3.416748 1.0031128c-0.2821045 0.15673828 -0.564209 0.282135 -0.9717407 0.282135c-0.2821045 0.15673828 -0.72094727 0.282135 -1.0030518 0.4388733c-0.56427 0.2821045 -1.0031128 0.40750122 -1.4106445 0.5642395l-3.980957 27.334808l-6.3633423 43.384583l-3.5421753 23.259644l-3.6988525 25.767456l6.3946533 0l3.1033325 -20.689209l0.8463135 -5.673828l3.1346436 -21.66095l0.28216553 -2.2883606l6.3632812 -42.789l0.8463745 -5.673828l3.416748 -23.259674z" fill-rule="evenodd"/></g></svg>