<svg version="1.1" viewBox="0.0 0.0 960.0 540.0" fill="none" stroke="none" stroke-linecap="square" stroke-miterlimit="10" xmlns:xlink="http://www.w3.org/1999/xlink" xmlns="http://www.w3.org/2000/svg"><clipPath id="g54dda1946d_6_308.0"><path d="m0 0l960.0 0l0 540.0l-960.0 0l0 -540.0z" clip-rule="nonzero"/></clipPath><g clip-path="url(#g54dda1946d_6_308.0)"><path fill="#f3e2d9" d="m0 0l960.0 0l0 540.0l-960.0 0z" fill-rule="evenodd"/><path fill="#e06f3e" d="m0 0.062992126l960.0 0l0 539.874l-960.0 0zm13.836971 13.836971l0 512.2001l932.32605 0l0 -512.2001z" fill-rule="evenodd"/><path fill="#000000" fill-opacity="0.0" d="m274.34647 170.50125l457.38583 0l0 158.67715l-457.38583 0z" fill-rule="evenodd"/><path fill="#000000" d="m323.7371 224.25233l0 11.71875l-12.53125 0l0 35.468735l-14.796875 0l0 -35.468735l-12.390625 0l0 -11.71875l39.71875 0zm30.325928 9.328125q6.46875 0 10.09375 4.328125q3.640625 4.328125 3.640625 11.734375l0 21.79686l-14.734375 0l0 -19.937485q0 -2.65625 -1.4375 -4.21875q-1.421875 -1.578125 -3.828125 -1.578125q-2.453125 0 -3.859375 1.578125q-1.40625 1.5625 -1.40625 4.21875l0 19.937485l-14.796875 0l0 -49.32811l14.796875 0l0 17.46875q1.734375 -2.671875 4.625 -4.328125q2.90625 -1.671875 6.90625 -1.671875zm56.537598 18.734375q0 1.53125 -0.203125 2.921875l-23.796875 0q0.328125 4.8749847 4.0625 4.8749847q2.40625 0 3.46875 -2.203125l15.65625 0q-0.796875 4.0 -3.359375 7.171875q-2.5625 3.15625 -6.46875 5.0q-3.890625 1.828125 -8.5625 1.828125q-5.59375 0 -9.96875 -2.328125q-4.359375 -2.34375 -6.796875 -6.703125q-2.4375 -4.375 -2.4375 -10.23436q0 -5.859375 2.4375 -10.21875q2.4375 -4.375 6.796875 -6.703125q4.375 -2.34375 9.96875 -2.34375q5.59375 0 9.953125 2.296875q4.375 2.296875 6.8125 6.578125q2.4375 4.265625 2.4375 10.0625zm-15.0 -3.53125q0 -1.875 -1.203125 -2.84375q-1.203125 -0.96875 -3.0 -0.96875q-3.9375 0 -4.59375 3.8125l8.796875 0z" fill-rule="nonzero"/><path fill="#e06f3e" d="m465.18002 240.43983q0 4.46875 -2.0625 8.109375q-2.0625 3.625 -6.09375 5.765625q-4.03125 2.1249847 -9.765625 2.1249847l-5.875 0l0 15.0l-14.796875 0l0 -47.187485l20.671875 0q8.65625 0 13.28125 4.40625q4.640625 4.390625 4.640625 11.78125zm-19.59375 4.34375q4.59375 0 4.59375 -4.34375q0 -4.328125 -4.59375 -4.328125l-4.203125 0l0 8.671875l4.203125 0zm39.056854 -4.0q2.265625 -3.265625 5.53125 -5.234375q3.265625 -1.96875 6.8125 -1.96875l0 15.796875l-4.203125 0q-4.203125 0 -6.171875 1.46875q-1.96875 1.46875 -1.96875 5.2031097l0 15.390625l-14.796875 0l0 -37.593735l14.796875 0l0 6.9375zm34.206604 31.124985q-5.671875 0 -10.2030945 -2.328125q-4.53125 -2.34375 -7.109375 -6.703125q-2.5625 -4.375 -2.5625 -10.23436q0 -5.859375 2.5625 -10.21875q2.578125 -4.375 7.109375 -6.703125q4.5312195 -2.34375 10.2030945 -2.34375q5.65625 0 10.1875 2.34375q4.53125 2.328125 7.09375 6.703125q2.578125 4.359375 2.578125 10.21875q0 5.8593597 -2.578125 10.23436q-2.5625 4.359375 -7.09375 6.703125q-4.53125 2.328125 -10.1875 2.328125zm0 -12.796875q2.0625 0 3.453125 -1.625q1.40625 -1.6406097 1.40625 -4.8437347q0 -3.203125 -1.40625 -4.828125q-1.390625 -1.640625 -3.453125 -1.640625q-2.078125 0 -3.484375 1.640625q-1.390625 1.625 -1.390625 4.828125q0 3.203125 1.359375 4.8437347q1.375 1.625 3.515625 1.625zm39.315308 -20.14061q1.40625 -2.59375 4.03125 -4.09375q2.640625 -1.5 6.3125 -1.5q4.390625 0 7.921875 2.296875q3.53125 2.296875 5.5625 6.671875q2.046875 4.359375 2.046875 10.296875q0 5.9374847 -2.046875 10.312485q-2.03125 4.359375 -5.5625 6.65625q-3.53125 2.296875 -7.921875 2.296875q-3.671875 0 -6.3125 -1.5q-2.625 -1.5 -4.03125 -4.09375l0 5.125l-14.796875 0l0 -49.32811l14.796875 0l0 16.859375zm10.875 13.671875q0 -3.0 -1.546875 -4.65625q-1.53125 -1.671875 -3.921875 -1.671875q-2.40625 0 -3.9375 1.671875q-1.53125 1.65625 -1.53125 4.65625q0 3.0 1.53125 4.6718597q1.53125 1.65625 3.9375 1.65625q2.390625 0 3.921875 -1.65625q1.546875 -1.6718597 1.546875 -4.6718597zm34.451355 -30.53125l0 49.32811l-14.796875 0l0 -49.32811l14.796875 0zm43.072693 30.203125q0 1.53125 -0.203125 2.921875l-23.796875 0q0.328125 4.8749847 4.0625 4.8749847q2.40625 0 3.46875 -2.203125l15.65625 0q-0.796875 4.0 -3.359375 7.171875q-2.5625 3.15625 -6.46875 5.0q-3.890625 1.828125 -8.5625 1.828125q-5.59375 0 -9.96875 -2.328125q-4.359375 -2.34375 -6.796875 -6.703125q-2.4375 -4.375 -2.4375 -10.23436q0 -5.859375 2.4375 -10.21875q2.4375 -4.375 6.796875 -6.703125q4.375 -2.34375 9.96875 -2.34375q5.59375 0 9.953125 2.296875q4.375 2.296875 6.8125 6.578125q2.4375 4.265625 2.4375 10.0625zm-15.0 -3.53125q0 -1.875 -1.203125 -2.84375q-1.203125 -0.96875 -3.0 -0.96875q-3.9375 0 -4.59375 3.8125l8.796875 0zm69.85718 -15.203125q7.1875 0 11.15625 4.328125q3.96875 4.328125 3.96875 11.734375l0 21.79686l-14.734375 0l0 -19.937485q0 -2.390625 -1.4375 -3.75q-1.421875 -1.375 -3.828125 -1.375q-2.46875 0 -3.875 1.375q-1.390625 1.359375 -1.390625 3.75l0 19.937485l-14.734375 0l0 -19.937485q0 -2.390625 -1.4375 -3.75q-1.421875 -1.375 -3.828125 -1.375q-2.453125 0 -3.859375 1.375q-1.40625 1.359375 -1.40625 3.75l0 19.937485l-14.796875 0l0 -37.593735l14.796875 0l0 5.0625q1.609375 -2.390625 4.375 -3.859375q2.765625 -1.46875 6.5 -1.46875q4.0625 0 7.1875 1.765625q3.140625 1.765625 5.0 4.96875q2.078125 -2.9375 5.265625 -4.828125q3.203125 -1.90625 7.078125 -1.90625z" fill-rule="nonzero"/><path fill="#000000" fill-opacity="0.0" d="m276.18845 56.93899l173.44882 0l0 96.15747l-173.44882 0z" fill-rule="evenodd"/><path fill="#e06f3e" d="m287.75095 103.7396q0 -13.84375 5.875 -21.765625q5.875 -7.921875 18.125 -7.921875q12.15625 0 18.078125 7.96875q5.921875 7.953125 5.921875 21.71875q0 13.84375 -5.921875 21.8125q-5.921875 7.9531326 -18.078125 7.9531326q-12.25 0 -18.125 -7.9531326q-5.875 -7.96875 -5.875 -21.8125zm30.484375 0q0 -6.40625 -1.28125 -9.640625q-1.28125 -3.234375 -5.203125 -3.234375q-4.0 0 -5.28125 3.234375q-1.28125 3.234375 -1.28125 9.640625q0 6.484375 1.28125 9.71875q1.28125 3.234375 5.28125 3.234375q3.921875 0 5.203125 -3.234375q1.28125 -3.234375 1.28125 -9.71875zm20.70996 -11.765625l0 -16.640625l27.125 0l0 58.484383l-18.640625 0l0 -41.843758l-8.484375 0z" fill-rule="nonzero"/><path fill="#a35331" d="m199.5238 348.4448c-8.369614 0 -30.28572 2.9874878 -36.420395 33.592133l0.09121704 0c-8.346817 41.437164 50.83348 128.25674 50.83348 128.25674c-6.59079 0 -1.9612732 10.946503 1.8700562 16.602203c0.7297821 1.0946655 2.5770264 1.4139404 4.469879 1.4139404c2.5770264 0 5.222473 -0.5701294 5.222473 -0.5701294c1.641983 4.834717 10.809799 5.039978 10.809799 5.039978c0 0 3.3980255 0.36486816 6.453964 0.36486816c1.2999115 0 2.5542145 -0.06842041 3.443634 -0.2508545c2.8963013 -0.52453613 14.230652 -11.448242 15.279694 -14.640991c1.1174622 -3.3067627 -5.7926025 -16.100494 -14.230637 -26.294434c-16.19191 -56.625458 -44.561966 -143.331 -44.561966 -143.331c0 0 -1.2315063 -0.1824646 -3.2612 -0.1824646z" fill-rule="evenodd"/><path fill="#000000" fill-opacity="0.0" d="m245.18044 524.0224c0 0 -5.4733124 -14.139221 -11.65361 -12.884949c-5.9978485 1.3226929 2.8734894 21.642212 2.8734894 21.642212" fill-rule="evenodd"/><path stroke="#000000" stroke-width="1.0" stroke-linejoin="round" stroke-linecap="round" d="m245.18044 524.0224c0 0 -5.4733124 -14.139221 -11.65361 -12.884949c-5.9978485 1.3226929 2.8734894 21.642212 2.8734894 21.642212" fill-rule="evenodd"/><path fill="#000000" fill-opacity="0.0" d="m231.56555 513.5092c0 0 -2.1665192 -5.587311 -6.6136017 -4.447052c-4.3102417 1.0262451 -1.8472443 12.5885315 0.63856506 18.67752" fill-rule="evenodd"/><path stroke="#000000" stroke-width="1.0" stroke-linejoin="round" stroke-linecap="round" d="m231.56555 513.5092c0 0 -2.1665192 -5.587311 -6.6136017 -4.447052c-4.3102417 1.0262451 -1.8472443 12.5885315 0.63856506 18.67752" fill-rule="evenodd"/><path fill="#000000" fill-opacity="0.0" d="m222.37492 515.35645c0 0 -3.2839813 -6.385498 -8.346817 -5.0627747" fill-rule="evenodd"/><path stroke="#000000" stroke-width="1.0" stroke-linejoin="round" stroke-linecap="round" d="m222.37492 515.35645c0 0 -3.2839813 -6.385498 -8.346817 -5.0627747" fill-rule="evenodd"/><path fill="#000000" fill-opacity="0.0" d="m243.51564 520.3052c0 0 2.0753021 -2.0524902 4.2418213 -2.7822266" fill-rule="evenodd"/><path stroke="#000000" stroke-width="1.0" stroke-linejoin="round" stroke-linecap="round" d="m243.51564 520.3052c0 0 2.0753021 -2.0524902 4.2418213 -2.7822266" fill-rule="evenodd"/><path fill="#e4976d" d="m248.16797 493.18973c-8.871353 5.336426 -1.1174774 13.842773 0.5929413 15.553162l0 0c-1.3911438 -1.2314758 -3.8085175 -1.9840393 -5.8838196 -1.9840393c-2.8050842 0 -4.9944153 1.3911133 -3.2839966 4.88031c2.5542145 5.1539917 9.692337 6.704773 13.18158 6.704773c0.7753906 0 1.3683319 -0.06842041 1.6876068 -0.20526123c1.6419983 -0.61572266 8.848541 -12.998993 6.180298 -16.191742c-2.69104 -3.1927185 -12.474609 -8.757202 -12.474609 -8.757202z" fill-rule="evenodd"/><path fill="#000000" fill-opacity="0.0" d="m259.61633 510.0884c0 0 -2.5770264 6.7047424 -5.1540527 8.050262c-2.577011 1.4367065 -15.074432 -1.2315063 -16.19191 -7.845001c-1.140274 -6.681946 8.666092 -3.4892273 10.809814 -1.2315063" fill-rule="evenodd"/><path stroke="#000000" stroke-width="1.0" stroke-linejoin="round" stroke-linecap="round" d="m259.61633 510.0884c0 0 -2.5770264 6.7047424 -5.1540527 8.050262c-2.577011 1.4367065 -15.074432 -1.2315063 -16.19191 -7.845001c-1.140274 -6.681946 8.666092 -3.4892273 10.809814 -1.2315063" fill-rule="evenodd"/><path fill="#000000" fill-opacity="0.0" d="m241.55437 498.13846c0 0 -0.20524597 6.180237 7.525818 10.923706" fill-rule="evenodd"/><path stroke="#000000" stroke-width="1.0" stroke-linejoin="round" stroke-linecap="round" d="m241.55437 498.13846c0 0 -0.20524597 6.180237 7.525818 10.923706" fill-rule="evenodd"/><path fill="#000000" d="m63.48893 428.62805c0 0 -5.1996574 18.03897 49.807236 18.03897c5.5645447 0 11.767647 -0.20526123 18.654915 -0.6157532l0 -17.423218z" fill-rule="evenodd"/><path fill="#6978b1" d="m68.528946 428.62805c0 0 -18.130379 63.945923 -23.717731 112.29303l151.79349 0c0 0 5.4733124 -79.79553 -11.243118 -112.29303z" fill-rule="evenodd"/><path fill="#000000" fill-opacity="0.0" d="m82.55434 443.47427c0 0 -18.654907 68.57541 -22.166958 97.44681" fill-rule="evenodd"/><path stroke="#ffffff" stroke-width="1.0" stroke-linejoin="round" stroke-linecap="round" d="m82.55434 443.47427c0 0 -18.654907 68.57541 -22.166958 97.44681" fill-rule="evenodd"/><path fill="#000000" fill-opacity="0.0377" d="m155.14429 489.38126c0 0 -30.719032 24.333221 -43.60414 51.539825l22.463425 0c0 0 21.459991 -27.001404 21.140717 -51.539825z" fill-rule="evenodd"/><path fill="#000000" fill-opacity="0.0" d="m155.14429 489.38126l24.33348 -6.7047424" fill-rule="evenodd"/><path stroke="#4e1d16" stroke-width="0.1548556430446194" stroke-linejoin="round" stroke-linecap="round" d="m155.14429 489.38126l24.33348 -6.7047424" fill-rule="evenodd"/><path fill="#000000" fill-opacity="0.1698" d="m68.528946 428.62805c-2.5770187 5.8837585 -6.38554 24.333221 -6.38554 24.333221c34.96085 -1.938446 101.57576 -24.333221 101.57576 -24.333221z" fill-rule="evenodd"/><path fill="#8187ac" d="m151.40417 451.15964c-5.222458 0 -15.370911 1.7104187 -21.824875 13.774384l12.588654 7.3204956l12.565826 -20.821198c0 0 -1.2770996 -0.27368164 -3.329605 -0.27368164z" fill-rule="evenodd"/><path fill="#ffffff" d="m154.73378 451.43332l-12.565826 20.821198l1.9612732 1.1402588l12.771072 -20.72998l-2.1665192 -1.2314758z" fill-rule="evenodd"/><path fill="#2c160c" d="m154.77939 451.06842c-0.13682556 0 -0.27366638 0.09121704 -0.34207153 0.2508545l-12.588654 20.72998c-0.09121704 0.20526123 -0.09121704 0.41049194 0.11402893 0.52453613c0.04560852 0.04559326 0.11402893 0.06838989 0.20526123 0.06838989c0.06840515 0 0.13682556 -0.02279663 0.20524597 -0.06838989c0 0 0 -0.11404419 0.09121704 -0.11404419l12.588638 -20.821198c0.0912323 -0.11401367 0 -0.3192749 -0.11402893 -0.5245056c-0.04560852 -0.02279663 -0.11401367 -0.04562378 -0.15963745 -0.04562378z" fill-rule="evenodd"/><path fill="#4e1d16" d="m62.98721 543.8174c1.7104149 0 3.420826 0.7297363 4.6295204 2.166504c2.1665192 2.4629517 1.8472443 6.2942505 -0.7297821 8.460754c-1.140274 0.9578247 -2.5314102 1.4367065 -3.876934 1.4367065c-1.7104111 0 -3.3752136 -0.7297363 -4.583908 -2.166504c-2.166523 -2.4857788 -1.8472443 -6.2942505 0.7297783 -8.460754c1.0946655 -0.9578247 2.4629936 -1.4367065 3.8313255 -1.4367065zm102.57919 -84.242584l-13.2043915 22.577179l-22.668686 -13.295441c0 0 -2.8050766 7.2064514 -5.3820953 15.7812195c-2.668251 8.962463 -46.796913 39.47589 -67.64115 56.3974c-4.7435455 3.8084717 -5.359295 10.8324585 -1.4367485 15.461914c0.41049957 0.52453613 0.9350281 1.0262451 1.4367485 1.4367676c2.0068855 1.5735474 4.4242706 2.3717651 6.841652 2.3717651c2.7138596 0 5.4277115 -1.003479 7.5030136 -3.0787354c19.247856 -18.654724 58.245277 -56.146515 68.57618 -56.146515c0.18243408 0 0.34207153 0.02279663 0.50172424 0.04559326c2.599823 0.36489868 4.9944 0.54733276 7.2065277 0.54733276c9.646744 0 15.986664 -3.3523865 21.779266 -8.802826c8.027542 -7.6169434 10.832626 -20.000214 -3.5120392 -33.295654z" fill-rule="evenodd"/><path fill="#ffffff" d="m62.964405 539.8949c1.7104149 0 3.3980217 0.7297363 4.5382957 2.166504c2.1665268 2.4857178 1.8472443 6.2942505 -0.7297745 8.460693c-1.0946655 0.9578247 -2.4629974 1.4367676 -3.8313293 1.4367676c-1.7104111 0 -3.420826 -0.72979736 -4.6067123 -2.166504c-2.166523 -2.4629517 -1.8700523 -6.2942505 0.7069702 -8.460754c1.1630821 -0.9578247 2.5542183 -1.4367065 3.9225502 -1.4367065zm102.602005 -80.3201l-13.2043915 18.654694l-22.782715 -13.295471c0 0 -2.7822723 7.2064514 -5.359291 15.7812195c-2.6910477 8.962463 -46.819717 39.47592 -67.64114 56.39737c-4.7435493 3.8084717 -5.359295 10.83252 -1.4367485 15.461975c0.41049957 0.52453613 0.91222 1.0262451 1.4367485 1.4595337c1.9840775 1.5735474 4.3786583 2.3945923 6.7960396 2.3945923c2.7366638 0 5.496132 -1.0490723 7.639847 -3.1243286c19.156631 -18.654724 58.13125 -56.12375 68.46215 -56.12375c0.18243408 0 0.36488342 0 0.5245209 0.022827148c2.394577 0.34207153 4.583908 0.501709 6.59079 0.501709c9.578323 0 14.91481 -3.7172546 20.205688 -9.783447c6.4995728 -7.3204956 6.4083557 -19.8862 -1.2314911 -28.346924z" fill-rule="evenodd"/><path fill="#2c160c" d="m129.62491 464.59195c-0.13682556 0 -0.27366638 0.09121704 -0.36488342 0.22805786c-0.09121704 0.11401367 0 0.3192749 0.22805786 0.43328857l31.334778 18.449432l0.41049194 0l0 -0.11401367c0 0 0.11402893 0 0.11402893 -0.09121704c0.09121704 -0.11404419 0 -0.3192749 -0.11402893 -0.41049194l-31.448807 -18.47226c-0.04560852 -0.02279663 -0.11401367 -0.02279663 -0.15963745 -0.02279663z" fill-rule="evenodd"/><path fill="#b3c2f5" d="m108.32457 504.93442c-0.6157532 0 -1.2314987 0.20526123 -1.733223 0.6157532l-30.536583 25.587463c-1.1174698 0.91223145 -1.2314911 2.668213 -0.29647064 3.8084717c0.50172424 0.6157837 1.2771072 0.9350586 2.0296936 0.9350586c0.63855743 0 1.2771072 -0.20526123 1.7788315 -0.6157837l30.422554 -25.587463c1.140274 -0.9122009 1.34552 -2.668213 0.3192749 -3.8084717c-0.5245285 -0.6157532 -1.254303 -0.9350281 -1.9840775 -0.9350281z" fill-rule="evenodd"/><path fill="#2c160c" d="m61.117157 540.2142c-0.7297783 0.2052002 -1.4595528 0.61572266 -2.0753021 1.1174316c-2.5770226 2.166504 -2.8734932 5.9978027 -0.7069702 8.460754c1.1858864 1.4367065 2.8963013 2.166504 4.6067123 2.166504c1.3683319 0 2.7366638 -0.47894287 3.8313293 -1.4367676c0.1140213 0 0.1140213 0 0.20524597 -0.11401367l0 0c-0.5929413 0.20526123 -1.2314987 0.2965088 -1.8700485 0.2965088c-1.7104149 0 -3.4208298 -0.7069702 -4.606716 -2.1437378c-2.0753021 -2.4857788 -1.7560234 -6.180176 0.61574936 -8.34668z" fill-rule="evenodd"/><path fill="#2c160c" d="m135.46312 476.26822l-2.9875183 5.8837585l11.858871 6.7959595l3.1927643 -6.0661926l-12.064117 -6.6135254z" fill-rule="evenodd"/><path fill="#8187ac" d="m137.31038 478.63998l-1.8472595 3.7172546l7.115326 4.0137024l1.9612732 -3.6944275l-7.2293396 -4.0365295z" fill-rule="evenodd"/><path fill="#a35331" d="m36.988926 354.0777c0 0 -39.909645 55.576385 -34.436325 78.88336c3.1927717 13.72876 81.34726 97.24158 90.42385 100.95886c2.0981064 0.84375 6.1118774 1.3682861 9.851982 1.3682861c3.4664383 0 6.7048187 -0.43328857 7.981926 -1.4823608c0.82099915 -0.7069092 2.6910553 -5.564453 2.6910553 -5.564453c0 0 0.75257874 0.20526123 1.7104111 0.20526123c1.2999115 0 2.964714 -0.3649292 3.8541336 -2.0524902c0.7069702 -1.34552 2.0524979 -7.6397705 2.0524979 -7.6397705c0 0 4.0365753 -1.1402588 4.7435455 -3.3979492c0.93502045 -2.8963013 -0.2052536 -6.4995117 -0.2052536 -6.4995117c0 0 4.0365753 -5.9749756 3.6032715 -7.3204956c-0.296463 -1.3454895 -4.83477 -11.448242 -7.206543 -11.539459c-2.4858017 -0.20523071 -12.06411 -1.4595337 -12.06411 -1.4595337c-5.7697983 -6.909973 -47.32144 -58.15338 -47.32144 -58.15338l25.359734 -44.44742l-51.03874 -31.858948z" fill-rule="evenodd"/><path fill="#b3c2f5" d="m151.40417 451.15964c-5.222458 0 -15.370911 1.7104187 -21.824875 13.774384l12.588654 7.3204956l12.565826 -20.821198c0 0 -1.2770996 -0.27368164 -3.329605 -0.27368164z" fill-rule="evenodd"/><path fill="#ffffff" d="m154.73378 451.43332l-12.565826 20.821198l1.9612732 1.1402588l12.771072 -20.72998l-2.1665192 -1.2314758z" fill-rule="evenodd"/><path fill="#4e1d16" d="m154.77939 451.06842c-0.13682556 0 -0.27366638 0.09121704 -0.34207153 0.2508545l-12.588654 20.72998c-0.09121704 0.20526123 -0.09121704 0.41049194 0.11402893 0.52453613c0.04560852 0.04559326 0.11402893 0.06838989 0.20526123 0.06838989c0.06840515 0 0.13682556 -0.02279663 0.20524597 -0.06838989c0 0 0 -0.11404419 0.09121704 -0.11404419l12.588638 -20.821198c0.0912323 -0.11401367 0 -0.3192749 -0.11402893 -0.5245056c-0.04560852 -0.02279663 -0.11401367 -0.04562378 -0.15963745 -0.04562378z" fill-rule="evenodd"/><path stroke="#4e1d16" stroke-width="1.0" stroke-linejoin="round" stroke-linecap="butt" d="m154.77939 451.06842c-0.13682556 0 -0.27366638 0.09121704 -0.34207153 0.2508545l-12.588654 20.72998c-0.09121704 0.20526123 -0.09121704 0.41049194 0.11402893 0.52453613c0.04560852 0.04559326 0.11402893 0.06838989 0.20526123 0.06838989c0.06840515 0 0.13682556 -0.02279663 0.20524597 -0.06838989c0 0 0 -0.11404419 0.09121704 -0.11404419l12.588638 -20.821198c0.0912323 -0.11401367 0 -0.3192749 -0.11402893 -0.5245056c-0.04560852 -0.02279663 -0.11401367 -0.04562378 -0.15963745 -0.04562378z" fill-rule="evenodd"/><path fill="#000000" d="m165.68044 459.5748l-11.4483795 19.38446l-0.3192749 0.61572266l-1.550766 2.5769958l-22.668686 -13.295441c0 0 -2.8050766 7.2064514 -5.3820953 15.7812195c-0.70697784 2.3717346 -4.4242706 6.271454 -9.897598 11.128967c3.7173004 3.1015015 7.115326 7.320465 9.19062 10.102722c0.82099915 1.1402588 1.5507812 2.0524597 1.8472519 2.5769958c6.271515 -4.606659 11.334335 -7.4573364 14.230637 -7.4573364c0.13684082 0 0.27366638 0.022827148 0.4105072 0.022827148c2.69104 0.41049194 5.1540375 0.592926 7.4345856 0.592926c9.532715 0 15.80423 -3.3295593 21.551208 -8.7344055c8.027542 -7.6169434 10.832626 -20.000214 -3.3980103 -33.295654z" fill-rule="evenodd"/><path fill="#ffffff" d="m165.68044 459.46075l0 0.11404419l-13.2043915 18.358215l-0.11402893 0.29647827l-8.232788 -4.834717l-1.6648102 -0.9350281l-0.296463 -0.20523071l-0.31929016 -0.20526123l-12.269363 -7.1152344c0 0 0 0.09121704 -0.09121704 0.3192749c-0.5245209 1.5279541 -3.0103302 8.027435 -5.268074 15.347931c-0.82099915 2.7822266 -5.5645447 7.5257263 -12.269363 13.409485c0.82099915 0.52453613 1.6419907 1.1402588 2.4629898 1.756012c3.7173004 3.1015015 7.115326 7.320465 9.19062 10.102722c7.0241013 -5.2680054 12.771095 -8.802826 15.895439 -8.802826c0.18244934 0 0.3420868 0.02279663 0.50172424 0.04559326c2.508606 0.36489868 4.789154 0.54733276 6.8416595 0.54733276c9.464279 0 14.732361 -3.7172546 20.068848 -9.7378235c6.4995728 -7.3204956 6.294327 -19.8862 -1.2314911 -28.460968z" fill-rule="evenodd"/><path fill="#000000" fill-opacity="0.0" d="m161.23335 483.5887c0 0 0.11402893 0 0.11402893 -0.09121704c0.09121704 -0.11404419 0 -0.3192749 -0.11402893 -0.41049194l-31.448807 -18.47226c-0.20524597 -0.09121704 -0.41049194 0 -0.5245209 0.20526123c-0.09121704 0.11401367 0 0.3192749 0.22805786 0.43328857l31.334778 18.449432c0.11402893 0 0.20524597 0 0.41049194 0z" fill-rule="evenodd"/><path stroke="#000000" stroke-width="0.1548556430446194" stroke-linejoin="round" stroke-linecap="round" d="m161.23335 483.5887c0 0 0.11402893 0 0.11402893 -0.09121704c0.09121704 -0.11404419 0 -0.3192749 -0.11402893 -0.41049194l-31.448807 -18.47226c-0.20524597 -0.09121704 -0.41049194 0 -0.5245209 0.20526123c-0.09121704 0.11401367 0 0.3192749 0.22805786 0.43328857l31.334778 18.449432c0.11402893 0 0.20524597 0 0.41049194 0z" fill-rule="evenodd"/><path fill="#4e1d16" d="m135.46312 476.26822l-2.9875183 5.8837585l11.858871 6.7959595l3.1927643 -6.0661926l-12.064117 -6.6135254z" fill-rule="evenodd"/><path fill="#e06f3e" d="m137.31038 478.63998l-1.8472595 3.7172546l7.115326 4.0137024l1.9612732 -3.6944275l-7.2293396 -4.0365295z" fill-rule="evenodd"/><path fill="#000000" fill-opacity="0.0" d="m125.65675 508.85693c0 0 -7.3205643 -11.539459 -14.732361 -15.461975" fill-rule="evenodd"/><path stroke="#000000" stroke-width="1.0" stroke-linejoin="round" stroke-linecap="round" d="m125.65675 508.85693c0 0 -7.3205643 -11.539459 -14.732361 -15.461975" fill-rule="evenodd"/><path fill="#000000" fill-opacity="0.0" d="m62.66793 430.38406l-15.165665 2.166504" fill-rule="evenodd"/><path stroke="#000000" stroke-width="1.0" stroke-linejoin="round" stroke-linecap="round" d="m62.66793 430.38406l-15.165665 2.166504" fill-rule="evenodd"/><path fill="#b3c2f5" d="m133.09135 291.5001c0 0 -57.241837 13.181427 -69.602425 20.72998c-16.511189 9.897491 -46.29519 54.025635 -56.922558 66.29486l62.578327 28.255707l-5.6557693 21.847412l118.67988 0l-0.6157379 -22.257904l47.024963 -18.358246l-12.679871 -14.846191c0 0 -11.858856 -44.85794 -15.8954315 -48.46118c-6.704834 -6.0889893 -43.102432 -28.780212 -43.102432 -28.780212l-23.808945 -4.424225z" fill-rule="evenodd"/><path fill="#000000" fill-opacity="0.0" d="m133.09135 291.5001l5.0400085 15.1427l8.666107 -7.5257263l12.269363 6.203003l-2.1665344 -9.395752" fill-rule="evenodd"/><path stroke="#000000" stroke-width="1.0" stroke-linejoin="round" stroke-linecap="round" d="m133.09135 291.5001l5.0400085 15.1427l8.666107 -7.5257263l12.269363 6.203003l-2.1665344 -9.395752" fill-rule="evenodd"/><path fill="#000000" fill-opacity="0.0" d="m215.89816 373.1657l-13.820145 -10.216766" fill-rule="evenodd"/><path stroke="#000000" stroke-width="1.0" stroke-linejoin="round" stroke-linecap="round" d="m215.89816 373.1657l-13.820145 -10.216766" fill-rule="evenodd"/><path fill="#000000" fill-opacity="0.1698" d="m100.821556 355.53723l-26.203537 44.128174l22.987953 0c15.895447 -15.872467 3.2155838 -44.128174 3.2155838 -44.128174z" fill-rule="evenodd"/><path fill="#e06f3e" d="m126.47775 292.8456l-18.130379 4.7434998c0 0 25.45095 45.975372 1.5279694 75.5766c-7.320572 8.962463 -19.065407 16.602203 -37.515068 20.935211l-3.9225464 15.14267l-4.948799 19.38446l121.87266 0c0 0 -0.09121704 -7.6169434 -0.6157532 -19.38446c-0.5245209 -9.783447 -1.140274 -22.463165 -2.1665192 -36.07788c-1.6419983 -21.345734 -3.8085175 -47.84543 -7.731064 -65.88437l-12.474625 -7.9590454l-5.3592987 41.45996l-30.536575 -47.936646z" fill-rule="evenodd"/><path fill="#fabd53" d="m109.87534 373.1657c-7.320572 8.962463 -19.065407 16.48819 -37.515068 20.935211l-3.9225464 15.14267l116.308105 0c-0.5245209 -9.783447 -1.140274 -22.463165 -2.1665192 -36.07788z" fill-rule="evenodd"/><path fill="#000000" fill-opacity="0.0" d="m157.01433 340.78226c0 0 6.704834 46.70514 6.704834 87.845795" fill-rule="evenodd"/><path stroke="#000000" stroke-width="1.0" stroke-linejoin="round" stroke-linecap="round" d="m157.01433 340.78226c0 0 6.704834 46.70514 6.704834 87.845795" fill-rule="evenodd"/><path fill="#000000" fill-opacity="0.0" d="m97.60597 340.78226c0 0 -2.1665192 -25.154205 -22.987953 -28.552185" fill-rule="evenodd"/><path stroke="#000000" stroke-width="1.0" stroke-linejoin="round" stroke-linecap="round" d="m97.60597 340.78226c0 0 -2.1665192 -25.154205 -22.987953 -28.552185" fill-rule="evenodd"/><path fill="#4e1d16" d="m150.42354 224.11058c-7.0012817 0 -9.555511 4.127762 -12.497421 5.1996c-2.6454315 1.0718536 -6.7276154 1.7788086 -10.672974 1.7788086c-2.2121353 0 -4.378662 -0.2280426 -6.2259064 -0.7525635l0 0c0 0.02279663 -4.0365753 6.8187714 3.4892426 7.4345093c0 0 -8.757317 0.5245209 -10.399315 9.076492c-1.7560196 8.551956 4.629524 27.229446 19.179436 41.961655l31.243546 -36.602432c0 0 7.206543 -3.8084717 5.975052 -11.949951c-0.6841736 -4.4470215 -4.173416 -7.981827 -8.073151 -7.981827c-1.34552 0 -2.7366638 0.41049194 -4.082184 1.3683167c0 0 2.3717651 -8.757217 -6.7048187 -9.486984c-0.43330383 -0.02281189 -0.84381104 -0.04562378 -1.2315063 -0.04562378z" fill-rule="evenodd"/><path fill="#a35331" d="m134.73335 271.79636l-1.6419983 19.703735c0 0 6.0206604 7.252075 14.66394 7.252075c2.8050842 0 5.9066315 -0.7753906 9.145004 -2.8278503l-0.6157379 -20.935211l-21.551208 -3.192749z" fill-rule="evenodd"/><path fill="#a35331" d="m157.51605 240.2339c-0.3876953 0 -0.6157532 0.02279663 -0.6157532 0.02279663c0 0 -2.3717651 7.2064667 -6.796036 8.551971c-0.6841583 0.18244934 -1.4139404 0.27366638 -2.1437225 0.27366638c-3.8997345 0 -8.073151 -2.348938 -8.073151 -2.348938l0 0c5.769806 17.742493 -8.757309 20.433502 -8.757309 20.433502c0 0 9.715149 18.882751 25.542175 18.882751c2.1665192 0 4.4470673 -0.34207153 6.8416443 -1.1630859c7.411789 -2.5769958 6.91008 -12.360443 5.861023 -17.924927c-0.4105072 -2.4857483 -0.9122162 -4.0365295 -0.9122162 -4.0365295c-0.20526123 -0.501709 -0.31929016 -0.9122009 -0.4105072 -1.4367065c-1.6647949 -6.4995117 -1.8700562 -13.705963 -1.8700562 -13.705963l-0.09121704 0c-0.7069702 -6.978409 -6.6363983 -7.548538 -8.574875 -7.548538z" fill-rule="evenodd"/><path fill="#6b0303" fill-opacity="0.2579" d="m145.49754 265.68457c-0.18243408 0 -0.36488342 0.02279663 -0.5473175 0.02279663c-2.3717804 0.20523071 -4.2418365 1.756012 -4.0365906 3.4207764c0.20526123 1.4139404 1.9612885 2.4857788 4.082199 2.4857788c0.20524597 0 0.3876953 0 0.5701294 -0.02279663c2.3717804 -0.29647827 4.2190247 -1.756012 4.0137787 -3.3979797c-0.18244934 -1.4367371 -1.9384766 -2.5085754 -4.082199 -2.5085754z" fill-rule="evenodd"/><path fill="#6b0303" fill-opacity="0.2579" d="m168.0522 261.4884c-0.3192749 0 -0.7297821 0 -1.049057 0.09121704c-2.3717651 0.3192749 -4.1277924 1.8700256 -3.8997345 3.4207764c0.15963745 1.4367371 1.8016357 2.4173584 3.8085175 2.4173584c0.2508545 0 0.54733276 -0.02279663 0.82099915 -0.04562378c0.6157532 -0.11401367 1.140274 -0.20523071 1.6419983 -0.41049194c-0.4105072 -2.4857483 -0.9122162 -4.1277466 -0.9122162 -4.1277466c-0.20526123 -0.41049194 -0.31929016 -0.93499756 -0.4105072 -1.3454895z" fill-rule="evenodd"/><path fill="#fefefe" d="m148.84996 258.79736c-1.9840851 0 -4.264633 0.5701294 -6.180298 2.782257l0 0.11401367c0.15963745 0.13684082 1.9156647 1.8016052 4.378662 1.8016052c1.1174774 0 2.3717804 -0.3192749 3.671692 -1.2770691c0.82099915 -0.52453613 1.6419983 -1.34552 2.4629974 -2.4857788c0 0 -1.1174774 -0.52453613 -2.6682434 -0.8209839c-0.52453613 -0.06842041 -1.0718689 -0.11404419 -1.6648102 -0.11404419z" fill-rule="evenodd"/><path fill="#4e1d16" d="m148.87277 258.79736c-1.9840851 0 -4.287445 0.5701294 -6.2031097 2.8962708c0.15963745 0.13684082 1.9156647 1.8016052 4.378662 1.8016052c1.1174774 0 2.3717804 -0.3192749 3.671692 -1.2770691c0.09121704 -0.72976685 0.09121704 -1.4595337 0 -2.280548c-0.11402893 -0.41049194 -0.11402893 -0.72976685 -0.20524597 -1.0262146c-0.50172424 -0.06842041 -1.0718689 -0.11404419 -1.6419983 -0.11404419z" fill-rule="evenodd"/><path fill="#fefefe" d="m162.55608 256.06073c-1.4367523 0 -3.0103302 0.5701294 -4.3102417 2.4401855l0 0.09121704c0.15963745 0.15963745 1.6419983 2.0980835 3.7173004 2.0980835c0.79818726 0 1.6647949 -0.29647827 2.577011 -1.0490417c0.6157532 -0.52453613 1.2315063 -1.254303 1.8472595 -2.280548c0 0 -0.91223145 -0.61572266 -2.0525055 -1.0262146c-0.54733276 -0.15963745 -1.140274 -0.27368164 -1.7788239 -0.27368164z" fill-rule="evenodd"/><path fill="#4e1d16" d="m162.55608 256.06073c-1.4367523 0 -3.0103302 0.5701294 -4.3102417 2.4401855l0 0.09121704c0.15963745 0.15963745 1.6419983 2.0980835 3.7173004 2.0980835c0.79818726 0 1.6647949 -0.29647827 2.577011 -1.0490417c0.0912323 -0.72976685 0.0912323 -1.5507507 0 -2.280548c-0.11401367 -0.41049194 -0.11401367 -0.72976685 -0.20524597 -1.0262146c-0.54733276 -0.15963745 -1.140274 -0.27368164 -1.7788239 -0.27368164z" fill-rule="evenodd"/><path fill="#000000" fill-opacity="0.0" d="m138.13136 276.74512c0 0 8.369629 11.448212 21.75647 9.190491" fill-rule="evenodd"/><path stroke="#000000" stroke-width="1.0" stroke-linejoin="round" stroke-linecap="round" d="m138.13136 276.74512c0 0 8.369629 11.448212 21.75647 9.190491" fill-rule="evenodd"/><path fill="#000000" fill-opacity="0.0" d="m143.92397 256.01514c0 0 2.0525055 -2.7822418 5.4505157 -1.2314911" fill-rule="evenodd"/><path stroke="#000000" stroke-width="1.0" stroke-linejoin="round" stroke-linecap="round" d="m143.92397 256.01514c0 0 2.0525055 -2.7822418 5.4505157 -1.2314911" fill-rule="evenodd"/><path fill="#000000" fill-opacity="0.0" d="m159.06683 253.43814c0 0 2.0753021 -2.7822418 5.4733124 -1.2314911" fill-rule="evenodd"/><path stroke="#000000" stroke-width="1.0" stroke-linejoin="round" stroke-linecap="round" d="m159.06683 253.43814c0 0 2.0753021 -2.7822418 5.4733124 -1.2314911" fill-rule="evenodd"/><path fill="#000000" fill-opacity="0.0" d="m156.4898 262.21817c0 0 2.280548 3.1927185 3.7173004 2.7822266c1.550766 -0.41049194 0.7297821 5.1539917 -3.8085175 5.5644836" fill-rule="evenodd"/><path stroke="#000000" stroke-width="1.0" stroke-linejoin="round" stroke-linecap="round" d="m156.4898 262.21817c0 0 2.280548 3.1927185 3.7173004 2.7822266c1.550766 -0.41049194 0.7297821 5.1539917 -3.8085175 5.5644836" fill-rule="evenodd"/><path fill="#000000" fill-opacity="0.0" d="m147.93774 274.4874c0 0 1.9612732 2.257721 5.4733124 1.8471985" fill-rule="evenodd"/><path stroke="#000000" stroke-width="1.0" stroke-linejoin="round" stroke-linecap="round" d="m147.93774 274.4874c0 0 1.9612732 2.257721 5.4733124 1.8471985" fill-rule="evenodd"/><path fill="#000000" fill-opacity="0.0" d="m146.79747 275.30838c0 0 1.34552 -0.41049194 1.550766 -1.756012" fill-rule="evenodd"/><path stroke="#000000" stroke-width="1.0" stroke-linejoin="round" stroke-linecap="round" d="m146.79747 275.30838c0 0 1.34552 -0.41049194 1.550766 -1.756012" fill-rule="evenodd"/><path fill="#a35331" d="m129.32845 264.9776c-3.329605 0 -6.089073 1.938446 -6.5451813 4.652252c-0.5245285 3.101532 2.1665192 6.180237 5.9750366 6.8187866c0.45611572 0.06842041 0.9350281 0.09121704 1.3911438 0.09121704c3.329605 0 6.0890656 -1.9156494 6.5451813 -4.6294556c0.5245209 -3.101532 -2.1665192 -6.08902 -5.975052 -6.8187866c-0.47891235 -0.06842041 -0.9350281 -0.11401367 -1.3911285 -0.11401367z" fill-rule="evenodd"/><path fill="#000000" fill-opacity="0.0" d="m126.47775 268.69485c0 0 5.4733276 -1.1174622 6.4995728 4.1277466" fill-rule="evenodd"/><path stroke="#000000" stroke-width="1.0" stroke-linejoin="round" stroke-linecap="round" d="m126.47775 268.69485c0 0 5.4733276 -1.1174622 6.4995728 4.1277466" fill-rule="evenodd"/><path fill="#000000" fill-opacity="0.0" d="m290.75067 161.9534l275.1181 0" fill-rule="evenodd"/><path stroke="#000000" stroke-width="1.0" stroke-linejoin="round" stroke-linecap="butt" d="m290.75067 161.9534l275.1181 0" fill-rule="evenodd"/><path fill="#4e1d16" d="m704.1492 397.38174l3.2661743 11.88443c0 0 -32.776306 37.12619 -43.040833 37.12619c-1.3983154 0 -2.3787231 -0.68881226 -2.8012085 -2.2547302c-3.0032349 -11.101471 42.575867 -46.75589 42.575867 -46.75589z" fill-rule="evenodd"/><path fill="#e4976d" d="m692.67114 340.82742c0.3834839 0 0.7714844 0.08380127 1.1607056 0.2640381c6.5299683 2.8735352 5.61615 16.325012 8.881165 24.814697c1.1755981 3.1341248 1.5670776 13.321777 0 26.120026c6.9214478 24.684967 15.019714 55.767914 21.810303 82.41028l14.497314 58.3797c0 0 -8.496582 7.110901 -20.765564 7.110901c-8.365723 0 -18.485596 -3.3051758 -28.86383 -14.424988c-28.078552 -29.90738 -23.50824 -131.6471 -23.50824 -131.6471c-6.9214478 -8.358795 -8.097046 -16.97821 -7.835327 -23.50824c0.12976074 -3.1341248 6.921509 -6.399109 6.921509 -6.399109c-1.1755981 -4.8332214 6.0076294 -8.881165 6.0076294 -8.881165c6.269409 -0.26174927 12.537659 -0.65322876 12.537659 -0.65322876c0 0 4.267212 -13.585815 9.156677 -13.585815z" fill-rule="evenodd"/><path fill="#ffffff" d="m799.75037 387.19412l-13.321777 152.80527l-101.477905 -0.13085938l-23.37738 -95.730896l0 0c0.850708 0.54644775 1.8460083 0.79901123 2.9573364 0.79901123c13.214966 0 42.884705 -35.67047 42.884705 -35.67047l17.107971 65.17029c0 0 12.146179 -51.45706 23.378479 -59.55414c11.231201 -8.227936 51.847412 -27.687073 51.84857 -27.688202z" fill-rule="evenodd"/><path fill="#000000" fill-opacity="0.0377" d="m749.59973 454.71558l-7.5758057 85.28381l-13.582397 0c0 0 1.4373169 -56.289124 21.158203 -85.28381z" fill-rule="evenodd"/><path fill="#000000" fill-opacity="0.0" d="m780.9433 396.46677l-21.679382 25.598816l6.791748 9.925873" fill-rule="evenodd"/><path stroke="#000000" stroke-width="1.0" stroke-linejoin="round" stroke-linecap="round" d="m780.9433 396.46677l-21.679382 25.598816l6.791748 9.925873" fill-rule="evenodd"/><path fill="#000000" fill-opacity="0.0" d="m776.2421 429.11792l-20.634705 7.4438477l3.6564941 103.43762" fill-rule="evenodd"/><path stroke="#000000" stroke-width="1.0" stroke-linejoin="round" stroke-linecap="round" d="m776.2421 429.11792l-20.634705 7.4438477l3.6564941 103.43762" fill-rule="evenodd"/><path fill="#000000" fill-opacity="0.0" d="m724.5233 474.43646l3.918213 17.37088" fill-rule="evenodd"/><path stroke="#000000" stroke-width="1.0" stroke-linejoin="round" stroke-linecap="round" d="m724.5233 474.43646l3.918213 17.37088" fill-rule="evenodd"/><path fill="#000000" fill-opacity="0.0" d="m713.2921 430.29352c0 0 -34.47882 40.35559 -46.49414 35.00119" fill-rule="evenodd"/><path stroke="#000000" stroke-width="1.0" stroke-linejoin="round" stroke-linecap="round" d="m713.2921 430.29352c0 0 -34.47882 40.35559 -46.49414 35.00119" fill-rule="evenodd"/><path fill="#cfd8ff" d="m705.42236 422.33765c0.46496582 0 0.87823486 0.12286377 1.2088623 0.38116455c1.0447388 1.0447083 0.52233887 3.3947144 -1.1755981 5.3544006c-1.2203369 1.4075012 -2.7770386 2.2088318 -3.944641 2.2088318c-0.45690918 0 -0.8552246 -0.12286377 -1.1491699 -0.38116455c-1.1744385 -1.0447083 -0.6520386 -3.3947144 1.0447388 -5.3544006c1.3145142 -1.4075012 2.8310547 -2.2088318 4.015808 -2.2088318z" fill-rule="evenodd"/><path fill="#fabd53" d="m829.9195 375.83206l-2.7426758 164.16733l-61.121155 0l10.839661 -80.8432c-10.839661 -39.310913 22.855042 -71.96207 22.855042 -71.96207l30.169128 -11.362061z" fill-rule="evenodd"/><path fill="#000000" fill-opacity="0.0" d="m829.9195 387.9782c0 0 -11.492981 13.582367 -30.169128 8.488556" fill-rule="evenodd"/><path stroke="#fefefe" stroke-width="3.8818897637795273" stroke-linejoin="round" stroke-linecap="round" d="m829.9195 387.9782c0 0 -11.492981 13.582367 -30.169128 8.488556" fill-rule="evenodd"/><path fill="#000000" fill-opacity="0.0" d="m806.673 387.9782l-1.9596558 9.403534" fill-rule="evenodd"/><path stroke="#ffffff" stroke-width="1.0" stroke-linejoin="round" stroke-linecap="round" d="m806.673 387.9782l-1.9596558 9.403534" fill-rule="evenodd"/><path fill="#000000" fill-opacity="0.0" d="m812.9412 385.36646l3.1341553 11.100311" fill-rule="evenodd"/><path stroke="#ffffff" stroke-width="1.0" stroke-linejoin="round" stroke-linecap="round" d="m812.9412 385.36646l3.1341553 11.100311" fill-rule="evenodd"/><path fill="#000000" fill-opacity="0.0" d="m818.818 381.70883l5.2247314 11.10144" fill-rule="evenodd"/><path stroke="#ffffff" stroke-width="1.0" stroke-linejoin="round" stroke-linecap="round" d="m818.818 381.70883l5.2247314 11.10144" fill-rule="evenodd"/><path fill="#000000" fill-opacity="0.0" d="m824.0427 377.92148l5.61615 7.444977" fill-rule="evenodd"/><path stroke="#fefefe" stroke-width="3.8818897637795273" stroke-linejoin="round" stroke-linecap="round" d="m824.0427 377.92148l5.61615 7.444977" fill-rule="evenodd"/><path fill="#000000" fill-opacity="0.0" d="m776.8953 459.1562c0 0 2.7426758 4.5714417 8.227966 6.4002686" fill-rule="evenodd"/><path stroke="#000000" stroke-width="1.0" stroke-linejoin="round" stroke-linecap="round" d="m776.8953 459.1562c0 0 2.7426758 4.5714417 8.227966 6.4002686" fill-rule="evenodd"/><path fill="#ffffff" d="m829.9195 375.83206c0 0 51.84967 10.448212 71.70032 27.295593c9.273804 7.8364563 44.013184 78.362335 58.3797 136.87173l-158.42035 0l28.340332 -164.16733z" fill-rule="evenodd"/><path fill="#000000" fill-opacity="0.0377" d="m860.2195 460.07117l25.206177 79.92822l-25.206177 0c0 0 -18.937927 -25.597656 0 -79.92822z" fill-rule="evenodd"/><path fill="#000000" fill-opacity="0.0" d="m888.6907 403.12766c0 0 -28.340332 9.925873 -28.340332 33.434113" fill-rule="evenodd"/><path stroke="#000000" stroke-width="1.0" stroke-linejoin="round" stroke-linecap="round" d="m888.6907 403.12766c0 0 -28.340332 9.925873 -28.340332 33.434113" fill-rule="evenodd"/><path fill="#000000" fill-opacity="0.0" d="m833.70685 429.11792l18.153809 -36.176758l-21.941162 -17.1091" fill-rule="evenodd"/><path stroke="#000000" stroke-width="1.0" stroke-linejoin="round" stroke-linecap="round" d="m833.70685 429.11792l18.153809 -36.176758l-21.941162 -17.1091" fill-rule="evenodd"/><path fill="#000000" fill-opacity="0.0" d="m821.30005 425.72205l24.814697 6.791748l-24.814697 107.485596" fill-rule="evenodd"/><path stroke="#000000" stroke-width="1.0" stroke-linejoin="round" stroke-linecap="round" d="m821.30005 425.72205l24.814697 6.791748l-24.814697 107.485596" fill-rule="evenodd"/><path fill="#000000" fill-opacity="0.0" d="m924.0833 501.86295l-35.13092 30.692596" fill-rule="evenodd"/><path stroke="#000000" stroke-width="1.0" stroke-linejoin="round" stroke-linecap="round" d="m924.0833 501.86295l-35.13092 30.692596" fill-rule="evenodd"/><path fill="#000000" fill-opacity="0.0" d="m928.6548 526.80853l-23.77002 7.967346" fill-rule="evenodd"/><path stroke="#000000" stroke-width="1.0" stroke-linejoin="round" stroke-linecap="round" d="m928.6548 526.80853l-23.77002 7.967346" fill-rule="evenodd"/><path fill="#4e1d16" d="m804.64233 304.6459c4.229309 0 9.41156 0.9689331 15.74292 3.4728088c26.904114 10.577942 27.033875 31.736176 28.340332 39.180023c1.3064575 7.444977 17.36969 23.50824 11.49292 31.997925c0 0 -11.62262 -2.4866333 -26.380615 -2.4866333c-8.182007 0 -17.32721 0.7645874 -25.990234 3.139862c-2.7507324 0.7703247 -5.588623 1.1055603 -8.446106 1.1055603c-10.709961 0 -21.696655 -4.714966 -29.42865 -8.942017c3.9171143 -9.533264 3.918274 -14.887665 3.918274 -14.888824l0 0c-1.4373779 3.526764 -5.8779297 9.142914 -8.358826 12.407928c-3.6576538 -2.2203064 -5.8779297 -3.9182434 -5.8779297 -3.9182434c0 0 10.970581 -13.974976 13.583496 -27.165863c2.4016724 -11.550354 3.701233 -23.201721 10.389709 -23.201721c0.94940186 0 2.0067139 0.23535156 3.192627 0.7381897c0 0 3.2902832 -11.438995 17.822083 -11.438995z" fill-rule="evenodd"/><path fill="#000000" fill-opacity="0.0" d="m780.0295 365.12207l2.0894165 -14.496216c0.78411865 -5.093811 5.61615 -8.489685 10.579102 -7.444977l6.6608887 1.3064575" fill-rule="evenodd"/><path stroke="#ffffff" stroke-width="3.8818897637795273" stroke-linejoin="round" stroke-linecap="round" d="m780.0295 365.12207l2.0894165 -14.496216c0.78411865 -5.093811 5.61615 -8.489685 10.579102 -7.444977l6.6608887 1.3064575" fill-rule="evenodd"/><path fill="#4e1d16" d="m849.11804 346.18527c22.463501 12.929138 17.893188 34.60971 17.893188 34.60971l-4.0490723 -1.3064575c5.61615 -16.586761 -13.844116 -30.691467 -13.844116 -30.691467l0 -2.611786z" fill-rule="evenodd"/><path fill="#4e1d16" d="m775.58887 332.2103l1.4373779 1.9596863c-11.101501 15.280304 -24.292358 18.414429 -24.292358 18.414429l-1.0447388 -3.5256042c13.320618 -1.4373474 23.89972 -16.84851 23.89972 -16.84851z" fill-rule="evenodd"/><path fill="#e4976d" d="m823.5204 353.23764l-0.1217041 0.03100586l-0.009216309 -0.03100586zm-0.1217041 0.03100586l6.520813 22.563416c0 0 -9.660706 12.88089 -21.874573 12.88089c-2.545227 0 -5.2006226 -0.55908203 -7.903076 -1.9103088l-0.3914795 -27.557343l23.648315 -5.976654z" fill-rule="evenodd"/><path fill="#000000" fill-opacity="0.0377" d="m816.0754 355.06647l1.4373169 8.881165c0 0 1.5636597 22.979004 -15.170044 22.979004c-0.7003174 0 -1.4338989 -0.04019165 -2.2008057 -0.12399292l-0.3914795 -27.557343l16.325012 -4.178833z" fill-rule="evenodd"/><path fill="#e4976d" d="m794.1342 322.28442c-0.002319336 0.0057373047 -0.0068969727 0.012634277 -0.011474609 0.02178955l0 0c0.0034179688 -0.006866455 0.0079956055 -0.013763428 0.011474609 -0.02178955zm-0.011474609 0.02178955c-1.2858276 2.2352295 0.011474609 7.945526 0.011474609 7.945526c6.0076294 0.9138489 14.757935 0.9138489 14.757935 0.9138489c0 -4.178833 5.87677 -5.2235413 5.8779297 -5.2235413l0 0c-4.3097534 20.374115 12.146179 21.810303 12.146179 21.810303c0 0 -9.437988 24.143097 -28.615845 24.143097c-1.7427368 0 -3.5669556 -0.19976807 -5.4715576 -0.6348572c-8.620544 -2.0894165 -9.142883 -13.059998 -8.620544 -19.459137c0.2617798 -2.7426453 0.6532593 -4.571472 0.6532593 -4.571472c0.13085938 -0.52233887 0.13085938 -1.0447083 0.26171875 -1.5670471c1.1755981 -7.444977 0.52233887 -15.542053 0.52233887 -15.542053l0 0l5.4852905 0.13085938c-0.5120239 -3.5806885 2.7346191 -7.537964 2.9918213 -7.945526z" fill-rule="evenodd"/><path fill="#d47c56" d="m811.3742 347.62146c2.7426147 0 4.8320312 1.5670776 4.8320312 3.395874c0 1.8288269 -2.0894165 3.2650146 -4.8320312 3.2650146c-2.7426758 0 -4.9629517 -1.4361877 -4.9629517 -3.2650146c0 -1.8287964 2.2202759 -3.395874 4.9629517 -3.395874z" fill-rule="evenodd"/><path fill="#d47c56" d="m786.2989 345.53204c2.6117554 0.1308899 4.8320312 1.697937 4.701172 3.395874c0 1.8288269 -2.2202759 3.2650146 -4.9629517 3.2650146c-0.64746094 0 -1.2960815 -0.12857056 -1.8161621 -0.3857422l0 0c-0.0045776367 0.0413208 -0.008056641 0.08267212 -0.012634277 0.12399292l0 -0.12973022c0.0045776367 0.001159668 0.008056641 0.0034484863 0.012634277 0.0057373047l0 0c0.26062012 -2.6772156 0.640625 -4.5772095 0.640625 -4.5772095c0.13085938 -0.52233887 0.13085938 -1.0447083 0.26171875 -1.5670471c0.3914795 -0.1308899 0.782959 -0.1308899 1.1755981 -0.1308899z" fill-rule="evenodd"/><path fill="#fefefe" d="m807.2711 340.3177c1.989563 0 4.205261 0.61535645 6.192505 2.6026c-0.19519043 0.19515991 -2.2077026 2.5715942 -5.3326416 2.5715942c-1.0630493 0 -2.2558594 -0.2755432 -3.548523 -1.0045471c-1.0447388 -0.65322876 -1.9585571 -1.4361877 -3.003296 -2.480896c0 0 1.1755981 -0.78408813 2.8735352 -1.3064575c0.8392334 -0.22155762 1.7989502 -0.3822937 2.8184204 -0.3822937z" fill-rule="evenodd"/><path fill="#4e1d16" d="m807.18274 340.3177c1.9631348 0 4.2075195 0.61535645 6.280884 2.6026c-0.19519043 0.19515991 -2.2800293 2.5715942 -5.44281 2.5715942c-1.0757446 0 -2.2754517 -0.2755432 -3.5681152 -1.0045471c-0.13085938 -0.78408813 -0.26171875 -1.697937 -0.26171875 -2.6117554c0.13085938 -0.39263916 0.13085938 -0.78411865 0.26171875 -1.1755981c0.79559326 -0.22155762 1.7255249 -0.3822937 2.7300415 -0.3822937z" fill-rule="evenodd"/><path fill="#fefefe" d="m791.28705 338.95612c1.4075317 0 2.9343872 0.5522156 4.415344 2.2662354c-0.2008667 0.19973755 -1.8552246 2.8493958 -4.378601 2.8493958c-0.772583 0 -1.6256104 -0.24795532 -2.5440063 -0.89086914c-0.6532593 -0.52233887 -1.4362183 -1.3052979 -2.3511963 -2.350006c0 0 0.914978 -0.78411865 2.220337 -1.3064575c0.7909546 -0.31570435 1.687561 -0.56829834 2.6381226 -0.56829834z" fill-rule="evenodd"/><path fill="#4e1d16" d="m791.1447 338.87003c1.4453735 0 3.026245 0.57974243 4.557678 2.3523254c-0.2008667 0.20089722 -1.8701172 2.7966003 -4.411865 2.7966003c-0.76342773 0 -1.6060791 -0.2341919 -2.5107422 -0.83807373c-0.13085938 -0.782959 -0.26062012 -1.697937 -0.26062012 -2.6117554c0.12976074 -0.3914795 0.12976074 -0.782959 0.12976074 -1.1755981c0.75079346 -0.29962158 1.5968628 -0.52349854 2.4957886 -0.52349854z" fill-rule="evenodd"/><path fill="#000000" fill-opacity="0.0" d="m820.2554 359.2453c0 0 -7.967346 13.713226 -23.24768 12.668518" fill-rule="evenodd"/><path stroke="#000000" stroke-width="1.0" stroke-linejoin="round" stroke-linecap="round" d="m820.2554 359.2453c0 0 -7.967346 13.713226 -23.24768 12.668518" fill-rule="evenodd"/><path fill="#000000" fill-opacity="0.0" d="m811.3742 336.78177c0 0 -2.6118164 -2.8735352 -6.269409 -0.78411865" fill-rule="evenodd"/><path stroke="#000000" stroke-width="1.0" stroke-linejoin="round" stroke-linecap="round" d="m811.3742 336.78177c0 0 -2.6118164 -2.8735352 -6.269409 -0.78411865" fill-rule="evenodd"/><path fill="#000000" fill-opacity="0.0" d="m794.1342 335.60617c0 0 -2.6118164 -2.8735352 -6.13739 -0.65322876" fill-rule="evenodd"/><path stroke="#000000" stroke-width="1.0" stroke-linejoin="round" stroke-linecap="round" d="m794.1342 335.60617c0 0 -2.6118164 -2.8735352 -6.13739 -0.65322876" fill-rule="evenodd"/><path fill="#000000" fill-opacity="0.0" d="m798.0524 345.14056c0 0 -2.0894165 3.7873535 -3.7873535 3.5256042c-1.8287964 -0.3914795 -0.13085938 5.8779297 4.8320312 5.7470703" fill-rule="evenodd"/><path stroke="#000000" stroke-width="1.0" stroke-linejoin="round" stroke-linecap="round" d="m798.0524 345.14056c0 0 -2.0894165 3.7873535 -3.7873535 3.5256042c-1.8287964 -0.3914795 -0.13085938 5.8779297 4.8320312 5.7470703" fill-rule="evenodd"/><path fill="#000000" fill-opacity="0.0" d="m809.023 357.8091c0 0 -1.8276367 2.7426453 -5.87677 2.7426453" fill-rule="evenodd"/><path stroke="#000000" stroke-width="1.0" stroke-linejoin="round" stroke-linecap="round" d="m809.023 357.8091c0 0 -1.8276367 2.7426453 -5.87677 2.7426453" fill-rule="evenodd"/><path fill="#000000" fill-opacity="0.0" d="m810.4603 358.59207c0 0 -1.5681763 -0.26062012 -1.9596558 -1.8276672" fill-rule="evenodd"/><path stroke="#000000" stroke-width="1.0" stroke-linejoin="round" stroke-linecap="round" d="m810.4603 358.59207c0 0 -1.5681763 -0.26062012 -1.9596558 -1.8276672" fill-rule="evenodd"/><path fill="#e4976d" d="m829.85864 345.0453c3.2099 0 5.996155 1.7082825 6.7217407 4.404999c0.91381836 3.395874 -1.697937 7.1832275 -6.0076904 8.358826c-0.7944336 0.1986084 -1.5888672 0.2927246 -2.3603516 0.2927246c-3.2890625 0 -6.171814 -1.7220459 -6.9122925 -4.4727173c-0.91381836 -3.3947449 1.697937 -7.052368 6.0076904 -8.227936c0.8598633 -0.24108887 1.7197266 -0.355896 2.5509033 -0.355896z" fill-rule="evenodd"/><path fill="#000000" fill-opacity="0.0" d="m832.40155 348.92792c0 0 -6.269409 -0.65322876 -6.791748 5.354431" fill-rule="evenodd"/><path stroke="#000000" stroke-width="1.0" stroke-linejoin="round" stroke-linecap="round" d="m832.40155 348.92792c0 0 -6.269409 -0.65322876 -6.791748 5.354431" fill-rule="evenodd"/><path fill="#000000" fill-opacity="0.0" d="m831.22595 375.57028c0 0 -5.7470703 16.326172 -6.791748 24.945587c-1.5670776 12.015289 -10.579102 12.799408 -20.112366 12.406769" fill-rule="evenodd"/><path stroke="#6978b1" stroke-width="7.464566929133858" stroke-linejoin="round" stroke-linecap="round" d="m831.22595 375.57028c0 0 -5.7470703 16.326172 -6.791748 24.945587c-1.5670776 12.015289 -10.579102 12.799408 -20.112366 12.406769" fill-rule="evenodd"/><path fill="#000000" fill-opacity="0.0" d="m780.0295 365.12207c0 0 -1.1755981 17.23999 -3.5255737 25.598785c-3.395935 11.62384 4.701172 15.933533 13.582336 19.329407" fill-rule="evenodd"/><path stroke="#6978b1" stroke-width="7.464566929133858" stroke-linejoin="round" stroke-linecap="round" d="m780.0295 365.12207c0 0 -1.1755981 17.23999 -3.5255737 25.598785c-3.395935 11.62384 4.701172 15.933533 13.582336 19.329407" fill-rule="evenodd"/><path fill="#000000" fill-opacity="0.0" d="m825.74066 393.4635c0 0 -11.101501 5.6161804 -25.728516 2.611786" fill-rule="evenodd"/><path stroke="#6978b1" stroke-width="7.464566929133858" stroke-linejoin="round" stroke-linecap="round" d="m825.74066 393.4635c0 0 -11.101501 5.6161804 -25.728516 2.611786" fill-rule="evenodd"/><path fill="#000000" fill-opacity="0.0" d="m778.0709 383.66852c0 0 7.9661865 9.533234 22.593262 12.537659" fill-rule="evenodd"/><path stroke="#6978b1" stroke-width="7.464566929133858" stroke-linejoin="round" stroke-linecap="round" d="m778.0709 383.66852c0 0 7.9661865 9.533234 22.593262 12.537659" fill-rule="evenodd"/><path fill="#6978b1" d="m788.25745 407.43735l9.403503 1.9596863l9.403503 1.9585571l-0.65319824 2.7426453c0 0.52233887 -0.3914795 1.1755676 -0.91381836 1.5670471l-7.1832275 5.8779297l-3.0044556 -0.65322876l-3.0032349 -0.65322876l-4.4405518 -8.227936c-0.2617798 -0.5223694 -0.2617798 -1.1755981 -0.13092041 -1.8288269l0.5223999 -2.7426453z" fill-rule="evenodd"/><path fill="#000000" fill-opacity="0.0" d="m796.3545 414.49088c0 0 -16.325012 99.25766 -60.729736 97.42883c-47.14734 -1.9585571 -35.26294 -160.90237 -35.26294 -160.90237" fill-rule="evenodd"/><path stroke="#6978b1" stroke-width="7.464566929133858" stroke-linejoin="round" stroke-linecap="round" d="m796.3545 414.49088c0 0 -16.325012 99.25766 -60.729736 97.42883c-47.14734 -1.9585571 -35.26294 -160.90237 -35.26294 -160.90237" fill-rule="evenodd"/><path fill="#000000" d="m700.5191 332.91632c1.1135864 0 2.2421265 0.11022949 3.3695068 0.33868408c9.141724 1.9596863 14.888794 10.970581 12.929138 20.113525c-1.7002563 7.8203735 -8.6137085 13.181671 -16.385864 13.181671c-1.1836548 0 -2.3879395 -0.1239624 -3.595642 -0.3822937c-9.012085 -1.8287964 -14.888855 -10.840851 -12.930298 -19.982635c1.7139893 -7.8835144 8.82605 -13.268951 16.61316 -13.268951z" fill-rule="evenodd"/><path fill="#4e1d16" d="m700.3618 336.91263c7.053528 0 12.799438 5.7459106 12.799438 12.798248c0 7.053528 -5.7459106 12.799408 -12.799438 12.799408c-7.052368 0 -12.798218 -5.74588 -12.798218 -12.799408c0 -7.0523376 5.7458496 -12.798248 12.798218 -12.798248z" fill-rule="evenodd"/><path fill="#b3c2f5" d="m700.3618 344.35648c3.0043945 0 5.355591 2.4820251 5.355591 5.3544006c0 3.0043945 -2.3511963 5.355591 -5.355591 5.355591c-2.8723755 0 -5.35437 -2.3511963 -5.35437 -5.355591c0 -2.8723755 2.4819946 -5.3544006 5.35437 -5.3544006z" fill-rule="evenodd"/><path fill="#e4976d" d="m682.5111 354.4006c0.34552002 0 0.68078613 0.0034484863 1.0033569 0.012634277c0 0 8.881165 1.0447083 9.925903 6.1385193c0.72094727 3.0411377 -3.1708984 3.630066 -6.2911987 3.630066c-1.9711914 0 -3.6347046 -0.2341919 -3.6347046 -0.2341919l0 0c0 0 9.794983 4.3096924 8.358826 7.9661865c-0.491333 1.2054443 -2.1410522 1.6015015 -4.1019287 1.6015015c-3.7735596 0 -8.69635 -1.4706421 -8.697449 -1.4706421l0 0c0.0010986328 0 8.227905 3.2650146 7.1832275 7.705597c-0.28356934 1.2398682 -1.8552246 1.6921997 -3.9951782 1.6921997c-5.748169 0 -15.594849 -3.2592468 -15.594849 -3.2592468l4.178833 -22.9859c0 0 6.826172 -0.7967224 11.665161 -0.7967224z" fill-rule="evenodd"/><path fill="#000000" fill-opacity="0.0" d="m670.9768 355.06647c0 0 7.7056274 -0.78411865 12.537659 -0.65322876c0 0 8.881165 1.0447083 9.925903 6.1385193c1.1755981 4.962921 -9.925903 3.395874 -9.925903 3.395874c0 0 9.794983 4.3096924 8.358826 7.9661865c-1.4373169 3.526764 -12.799377 0.13085938 -12.799377 0.13085938c0 0 8.227905 3.2650146 7.1832275 7.705597c-1.0447388 4.5703125 -19.590027 -1.5670471 -19.590027 -1.5670471" fill-rule="evenodd"/><path stroke="#000000" stroke-width="1.0" stroke-linejoin="round" stroke-linecap="round" d="m670.9768 355.06647c0 0 7.7056274 -0.78411865 12.537659 -0.65322876c0 0 8.881165 1.0447083 9.925903 6.1385193c1.1755981 4.962921 -9.925903 3.395874 -9.925903 3.395874c0 0 9.794983 4.3096924 8.358826 7.9661865c-1.4373169 3.526764 -12.799377 0.13085938 -12.799377 0.13085938c0 0 8.227905 3.2650146 7.1832275 7.705597c-1.0447388 4.5703125 -19.590027 -1.5670471 -19.590027 -1.5670471" fill-rule="evenodd"/><path fill="#000000" fill-opacity="0.0" d="m669.9321 379.09705c0 0 -2.4820557 2.3511658 -4.9629517 2.7426453" fill-rule="evenodd"/><path stroke="#000000" stroke-width="1.0" stroke-linejoin="round" stroke-linecap="round" d="m669.9321 379.09705c0 0 -2.4820557 2.3511658 -4.9629517 2.7426453" fill-rule="evenodd"/></g></svg>