<svg version="1.1" viewBox="0.0 0.0 960.0 540.0" fill="none" stroke="none" stroke-linecap="square" stroke-miterlimit="10" xmlns:xlink="http://www.w3.org/1999/xlink" xmlns="http://www.w3.org/2000/svg"><clipPath id="g1d1656d8614_0_932.0"><path d="m0 0l960.0 0l0 540.0l-960.0 0l0 -540.0z" clip-rule="nonzero"/></clipPath><g clip-path="url(#g1d1656d8614_0_932.0)"><path fill="#f3e2d9" d="m0 0l960.0 0l0 540.0l-960.0 0z" fill-rule="evenodd"/><path fill="#e06f3e" d="m0 0.062992126l960.0 0l0 539.874l-960.0 0zm13.836971 13.836971l0 512.2001l932.32605 0l0 -512.2001z" fill-rule="evenodd"/><path fill="#000000" fill-opacity="0.0" d="m341.46982 214.68236l457.38583 0l0 158.67717l-457.38583 0z" fill-rule="evenodd"/><path fill="#000000" d="m676.2488 178.41656l0 9.796875l-16.125 0l0 50.6875l-12.125 0l0 -50.6875l-16.125 0l0 -9.796875l44.375 0zm35.875732 11.78125q5.453125 0 9.703125 2.390625q4.25 2.375 6.625 7.015625q2.390625 4.640625 2.390625 11.140625l0 28.15625l-12.125 0l0 -26.515625q0 -5.71875 -2.875 -8.796875q-2.859375 -3.078125 -7.796875 -3.078125q-5.015625 0 -7.921875 3.078125q-2.90625 3.078125 -2.90625 8.796875l0 26.515625l-12.125 0l0 -64.125l12.125 0l0 22.09375q2.34375 -3.109375 6.234375 -4.890625q3.90625 -1.78125 8.671875 -1.78125zm74.873535 23.65625q0 2.609375 -0.34375 4.6875l-35.09375 0q0.421875 5.1875 3.625 8.140625q3.21875 2.953125 7.890625 2.953125q6.765625 0 9.625 -5.8125l13.078125 0q-2.078125 6.9375 -7.96875 11.40625q-5.890625 4.453125 -14.46875 4.453125q-6.9375 0 -12.4375 -3.078125q-5.5 -3.078125 -8.578125 -8.703125q-3.078125 -5.640625 -3.078125 -13.0q0 -7.453125 3.03125 -13.078125q3.03125 -5.640625 8.484375 -8.671875q5.46875 -3.03125 12.578125 -3.03125q6.84375 0 12.25 2.953125q5.421875 2.9375 8.40625 8.359375q3.0 5.40625 3.0 12.421875zm-12.5625 -3.46875q-0.09375 -4.671875 -3.390625 -7.484375q-3.28125 -2.828125 -8.046875 -2.828125q-4.515625 0 -7.59375 2.734375q-3.078125 2.734375 -3.765625 7.578125l22.796875 0z" fill-rule="nonzero"/><path fill="#e06f3e" d="m457.00458 333.5103q-6.328125 0 -11.390625 -2.15625q-5.0625 -2.171875 -8.015625 -6.25q-2.953125 -4.078125 -3.03125 -9.625l13.0 0q0.25 3.734375 2.625 5.90625q2.390625 2.15625 6.5625 2.15625q4.234375 0 6.65625 -2.03125q2.4375 -2.046875 2.4375 -5.328125q0 -2.6875 -1.65625 -4.421875q-1.640625 -1.734375 -4.109375 -2.734375q-2.46875 -1.0 -6.796875 -2.203125q-5.890625 -1.734375 -9.578125 -3.421875q-3.6875 -1.703125 -6.328125 -5.125q-2.640625 -3.421875 -2.640625 -9.140625q0 -5.375 2.6875 -9.359375q2.6875 -3.984375 7.53125 -6.109375q4.859375 -2.125 11.09375 -2.125q9.359375 0 15.203125 4.5625q5.859375 4.546875 6.46875 12.6875l-13.34375 0q-0.171875 -3.125 -2.65625 -5.15625q-2.46875 -2.03125 -6.53125 -2.03125q-3.5625 0 -5.6875 1.828125q-2.109375 1.8125 -2.109375 5.28125q0 2.421875 1.59375 4.03125q1.609375 1.59375 3.984375 2.59375q2.390625 1.0 6.71875 2.296875q5.890625 1.734375 9.609375 3.46875q3.734375 1.734375 6.421875 5.203125q2.6875 3.453125 2.6875 9.09375q0 4.84375 -2.515625 9.015625q-2.515625 4.15625 -7.375 6.625q-4.84375 2.46875 -11.515625 2.46875zm53.211212 0.171875q-6.9375 0 -12.484375 -3.078125q-5.546875 -3.078125 -8.703125 -8.703125q-3.15625 -5.640625 -3.15625 -13.0q0 -7.375 3.25 -13.0q3.25 -5.640625 8.875 -8.703125q5.625 -3.078125 12.5625 -3.078125q6.9374695 0 12.5624695 3.078125q5.640625 3.0625 8.890625 8.703125q3.25 5.625 3.25 13.0q0 7.359375 -3.34375 13.0q-3.328125 5.625 -9.015625 8.703125q-5.671875 3.078125 -12.6874695 3.078125zm0 -10.578125q3.2968445 0 6.1874695 -1.59375q2.90625 -1.609375 4.640625 -4.8125q1.734375 -3.203125 1.734375 -7.796875q0 -6.84375 -3.59375 -10.53125q-3.59375 -3.6875 -8.7968445 -3.6875q-5.203125 0 -8.71875 3.6875q-3.5 3.6875 -3.5 10.53125q0 6.84375 3.421875 10.53125q3.421875 3.671875 8.625 3.671875zm46.099213 -54.328125l0 64.125l-12.125 0l0 -64.125l12.125 0zm57.277954 16.125l0 48.0l-12.21875 0l0 -6.0625q-2.328125 3.109375 -6.109375 4.890625q-3.765625 1.78125 -8.1875 1.78125q-5.625 0 -9.96875 -2.375q-4.328125 -2.390625 -6.796875 -7.03125q-2.46875 -4.640625 -2.46875 -11.046875l0 -28.15625l12.125 0l0 26.421875q0 5.71875 2.859375 8.796875q2.859375 3.078125 7.8125 3.078125q5.015625 0 7.875 -3.078125q2.859375 -3.078125 2.859375 -8.796875l0 -26.421875l12.21875 0zm26.092346 9.953125l0 23.234375q0 2.421875 1.15625 3.515625q1.171875 1.078125 3.953125 1.078125l5.625 0l0 10.21875l-7.625 0q-15.328125 0 -15.328125 -14.90625l0 -23.140625l-5.71875 0l0 -9.953125l5.71875 0l0 -11.875l12.21875 0l0 11.875l10.734375 0l0 9.953125l-10.734375 0zm25.638245 -15.6875q-3.203125 0 -5.328125 -2.03125q-2.125 -2.03125 -2.125 -5.0625q0 -3.03125 2.125 -5.0625q2.125 -2.046875 5.328125 -2.046875q3.21875 0 5.328125 2.046875q2.125 2.03125 2.125 5.0625q0 3.03125 -2.125 5.0625q-2.109375 2.03125 -5.328125 2.03125zm5.984375 5.734375l0 48.0l-12.125 0l0 -48.0l12.125 0zm33.277954 48.78125q-6.9375 0 -12.484375 -3.078125q-5.546875 -3.078125 -8.703125 -8.703125q-3.15625 -5.640625 -3.15625 -13.0q0 -7.375 3.25 -13.0q3.25 -5.640625 8.875 -8.703125q5.625 -3.078125 12.5625 -3.078125q6.9375 0 12.5625 3.078125q5.640625 3.0625 8.890625 8.703125q3.25 5.625 3.25 13.0q0 7.359375 -3.34375 13.0q-3.328125 5.625 -9.015625 8.703125q-5.671875 3.078125 -12.6875 3.078125zm0 -10.578125q3.296875 0 6.1875 -1.59375q2.90625 -1.609375 4.640625 -4.8125q1.734375 -3.203125 1.734375 -7.796875q0 -6.84375 -3.59375 -10.53125q-3.59375 -3.6875 -8.796875 -3.6875q-5.203125 0 -8.71875 3.6875q-3.5 3.6875 -3.5 10.53125q0 6.84375 3.421875 10.53125q3.421875 3.671875 8.625 3.671875zm60.568054 -38.90625q8.578125 0 13.859375 5.421875q5.296875 5.40625 5.296875 15.125l0 28.15625l-12.125 0l0 -26.515625q0 -5.71875 -2.875 -8.796875q-2.859375 -3.078125 -7.796875 -3.078125q-5.015625 0 -7.921875 3.078125q-2.90625 3.078125 -2.90625 8.796875l0 26.515625l-12.125 0l0 -48.0l12.125 0l0 5.96875q2.421875 -3.109375 6.1875 -4.890625q3.78125 -1.78125 8.28125 -1.78125z" fill-rule="nonzero"/><path fill="#000000" fill-opacity="0.0" d="m614.28345 56.93899l173.44885 0l0 96.15747l-173.44885 0z" fill-rule="evenodd"/><path fill="#e06f3e" d="m683.0549 103.7396q0 -13.84375 5.875 -21.765625q5.875 -7.921875 18.125 -7.921875q12.15625 0 18.078125 7.96875q5.921875 7.953125 5.921875 21.71875q0 13.84375 -5.921875 21.8125q-5.921875 7.9531326 -18.078125 7.9531326q-12.25 0 -18.125 -7.9531326q-5.875 -7.96875 -5.875 -21.8125zm30.484375 0q0 -6.40625 -1.28125 -9.640625q-1.28125 -3.234375 -5.203125 -3.234375q-4.0 0 -5.28125 3.234375q-1.28125 3.234375 -1.28125 9.640625q0 6.484375 1.28125 9.71875q1.28125 3.234375 5.28125 3.234375q3.921875 0 5.203125 -3.234375q1.28125 -3.234375 1.28125 -9.71875zm22.14746 15.921875q10.71875 -8.0 16.953125 -14.515625q6.25 -6.53125 6.25 -12.203125q0 -1.921875 -0.84375 -2.953125q-0.828125 -1.046875 -2.1875 -1.046875q-1.609375 0 -2.53125 1.640625q-0.921875 1.640625 -0.671875 5.0l-17.203125 0q0.234375 -7.453125 3.234375 -12.25q3.0 -4.796875 7.796875 -7.03125q4.8125 -2.25 10.5625 -2.25q10.25 0 15.0 4.921875q4.765625 4.921875 4.765625 12.609375q0 8.078125 -5.15625 15.15625q-5.15625 7.078125 -12.921875 11.953125l18.3125 0l0 14.328133l-41.359375 0l0 -13.359383z" fill-rule="nonzero"/><path fill="#ffffff" fill-opacity="0.4277" d="m341.4601 421.8511c-12.90863 20.027405 -36.525574 22.941528 -36.525574 22.941528l-0.4791565 25.425415c22.903015 2.5229797 37.00473 17.91513 37.00473 17.91513l0 -66.282074z" fill-rule="evenodd"/><path fill="#e06f3e" d="m222.16286 326.76987c-4.566925 0 -3.3542938 20.643463 -0.17602539 45.912415c1.2810822 10.170166 2.914215 21.132416 4.5962524 31.791534c4.909195 31.263458 10.483368 60.04306 10.483368 60.04306l48.06508 -11.852142l-19.675873 -29.405457c-3.315155 -9.945251 -6.454315 -19.137512 -9.378326 -27.537659c-4.596237 -13.094086 -8.801331 -24.369293 -12.6054535 -33.73758c-8.879578 -21.983185 -15.734848 -33.82556 -20.868958 -35.155518c-0.14668274 -0.039093018 -0.29338074 -0.058654785 -0.44006348 -0.058654785z" fill-rule="evenodd"/><path fill="#fabd53" d="m243.47188 361.98404l-18.746857 8.576202l-2.7381897 2.1220398l-5.31015 4.1071777l9.906403 27.684357l4.557129 12.732269l24.937119 -21.484467c-4.596237 -13.094086 -8.801331 -24.369293 -12.6054535 -33.73758z" fill-rule="evenodd"/><path fill="#000000" fill-opacity="0.0377" d="m223.97202 355.48102l0 0c-9.632568 64.512085 18.707733 105.671906 18.707733 105.671906c0 0 7.7843018 -19.85138 6.27829 -37.893646c-1.4571075 -18.03247 -24.976242 -67.77826 -24.986023 -67.77826z" fill-rule="evenodd"/><path fill="#000000" fill-opacity="0.0" d="m265.32312 423.25928l-5.6230774 15.255249" fill-rule="evenodd"/><path stroke="#000000" stroke-width="1.0" stroke-linejoin="round" stroke-linecap="round" d="m265.32312 423.25928l-5.6230774 15.255249" fill-rule="evenodd"/><path fill="#d0956f" d="m273.94406 464.8298l2.1612244 15.079224c0 0 2.650177 0.479187 5.779541 0.479187c3.94104 0 8.644867 -0.76275635 9.8281555 -4.2440796c2.1221008 -6.229248 0.9779358 -9.544312 0.9779358 -9.544312l-18.746857 -1.7700195z" fill-rule="evenodd"/><path fill="#fabd53" d="m102.33752 464.51688c0 0 -0.04889679 0.13693237 -0.13690948 0.40093994c-1.1050568 3.579132 -10.385574 34.402557 -15.255653 61.940216c-0.84101105 4.5178833 -1.4962234 8.937988 -2.0340881 13.133179l166.60934 0c0 0 -4.6353607 -25.816528 -8.840454 -47.97577c-2.2101135 -11.578339 -4.3322144 -22.149445 -5.574173 -27.498566z" fill-rule="evenodd"/><path fill="#000000" fill-opacity="0.0" d="m101.18356 539.9912c0 0 1.9069595 -20.20337 5.5252914 -32.896545" fill-rule="evenodd"/><path stroke="#ffffff" stroke-width="1.0" stroke-linejoin="round" stroke-linecap="round" d="m101.18356 539.9912c0 0 1.9069595 -20.20337 5.5252914 -32.896545" fill-rule="evenodd"/><path fill="#000000" fill-opacity="0.0377" d="m103.79463 464.5658l-1.5940247 0.35202026c-1.1050568 3.6280212 -10.385574 34.402557 -15.294769 61.940216c4.2833176 0.14666748 8.478622 0.2053833 12.585915 0.2053833c94.536156 0 143.18799 -35.047974 143.18799 -35.047974c-2.2101135 -11.578339 -4.3322144 -22.149445 -5.6132965 -27.449646z" fill-rule="evenodd"/><path fill="#000000" fill-opacity="0.0377" d="m178.16594 524.8729l0 15.118286l11.148361 0c-1.6429138 -7.295105 -11.148361 -15.118286 -11.148361 -15.118286z" fill-rule="evenodd"/><path fill="#000000" fill-opacity="0.0" d="m178.16594 524.8729l19.41185 -4.420166" fill-rule="evenodd"/><path stroke="#000000" stroke-width="1.0" stroke-linejoin="round" stroke-linecap="round" d="m178.16594 524.8729l19.41185 -4.420166" fill-rule="evenodd"/><path fill="#4e1d16" d="m144.75998 295.02722c-1.4473419 0 -2.4350433 0.28359985 -2.7577667 0.93878174l-2.307907 13.260315l34.75551 3.980072l0.5769806 -9.456299c0 0 -22.20871 -8.72287 -30.266815 -8.72287z" fill-rule="evenodd"/><path fill="#e06f3e" d="m166.6264 234.55386c-8.175461 0 -24.0961 3.618225 -27.724213 9.329163c-4.3322144 6.7572937 -3.8432465 18.306305 -10.659393 24.320374c-6.8063736 5.96521 -5.173233 12.556244 -5.173233 12.556244l76.102234 -21.670258c-0.9290314 -4.156082 -7.344223 -5.613144 -10.923431 -6.806183c-11.451523 -3.716034 -14.815598 -17.72934 -21.621964 -17.72934z" fill-rule="evenodd"/><path fill="#4e1d16" d="m167.62389 234.5343c-0.80189514 0 -1.6037903 0.17602539 -2.4154663 0.5476227c-7.0704193 3.2270813 -11.050568 17.778229 -9.329422 32.319595l31.039383 -6.141205c0 0 -9.280518 -26.726013 -19.294495 -26.726013z" fill-rule="evenodd"/><path fill="#fabd53" d="m170.32297 234.5343c-0.80189514 0 -1.6037903 0.17602539 -2.4154816 0.5476227c-7.070404 3.2270813 -11.050568 17.778229 -9.329407 32.319595l31.039383 -6.141205c0 0 -9.280518 -26.726013 -19.294495 -26.726013z" fill-rule="evenodd"/><path fill="#4e1d16" d="m184.43445 253.93585c-7.3148956 0 -16.702988 1.3983917 -26.648499 4.224518c-21.044968 5.9749756 -36.574448 16.096252 -34.716385 22.599274c0.97792053 3.3933105 6.581436 5.1242065 14.72757 5.1242065c7.334442 0 16.72255 -1.398407 26.66806 -4.2440796c20.996078 -5.96521 36.515778 -16.047363 34.657715 -22.550385c-0.94859314 -3.4226532 -6.542328 -5.153534 -14.688461 -5.153534z" fill-rule="evenodd"/><path fill="#e06f3e" d="m171.33054 242.32762l-4.9874268 3.4519958c0 0 1.8189392 7.138672 5.8382263 7.138672c0.12712097 0 0.2542572 -0.009780884 0.39115906 -0.019561768c4.3322296 -0.48895264 4.156189 -7.872101 4.156189 -7.872101l-5.3981476 -2.6990051z" fill-rule="evenodd"/><path fill="#000000" fill-opacity="0.0" d="m129.08382 267.40152c0 0 5.310135 -5.2121887 17.602676 -8.977112" fill-rule="evenodd"/><path stroke="#000000" stroke-width="1.0" stroke-linejoin="round" stroke-linecap="round" d="m129.08382 267.40152c0 0 5.310135 -5.2121887 17.602676 -8.977112" fill-rule="evenodd"/><path fill="#000000" fill-opacity="0.0" d="m142.5303 259.84238c0 0 0.40093994 -8.273041 3.0022278 -15.079239" fill-rule="evenodd"/><path stroke="#000000" stroke-width="1.0" stroke-linejoin="round" stroke-linecap="round" d="m142.5303 259.84238c0 0 0.40093994 -8.273041 3.0022278 -15.079239" fill-rule="evenodd"/><path fill="#000000" fill-opacity="0.0" d="m139.16623 247.63817c0 0 -2.7381897 8.713089 -2.2101135 14.639175" fill-rule="evenodd"/><path stroke="#000000" stroke-width="1.0" stroke-miterlimit="4.5215" stroke-linecap="butt" d="m139.16623 247.63817c0 0 -2.7381897 8.713089 -2.2101135 14.639175" fill-rule="evenodd"/><path fill="#46221d" d="m180.14136 254.50304c-3.1880493 0 -7.1877594 0.43026733 -12.145859 1.2223663c-17.113708 2.6990051 -33.024567 11.676117 -33.024567 11.676117c2.2492218 4.2049866 3.3151703 4.2049866 3.3151703 4.2049866c-2.4350433 16.663422 10.258438 26.16861 10.258438 26.16861l32.760544 -22.100555c1.6820374 2.395874 3.7161255 3.1586304 5.6328583 3.1586304c1.6135712 0 3.1489258 -0.5378418 4.3224335 -1.0854797c6.3663025 -3.0510254 4.8114014 -8.977112 4.8114014 -8.977112l0 0c-0.15646362 0.20535278 -0.49874878 0.29336548 -0.9290314 0.29336548c-1.5842438 0 -4.420227 -1.183258 -4.283325 -2.366516c0.85079956 -8.673981 -1.623352 -12.194412 -10.718063 -12.194412z" fill-rule="evenodd"/><path fill="#000000" fill-opacity="0.0" d="m139.51828 268.9955c0 0 -4.547348 9.681213 1.9460754 17.905365" fill-rule="evenodd"/><path stroke="#ffffff" stroke-width="0.29658792650918636" stroke-linejoin="round" stroke-linecap="round" d="m139.51828 268.9955c0 0 -4.547348 9.681213 1.9460754 17.905365" fill-rule="evenodd"/><path fill="#000000" fill-opacity="0.0" d="m183.07513 257.63232c0 0 2.6990814 4.068054 -1.8971863 8.224121" fill-rule="evenodd"/><path stroke="#ffffff" stroke-width="0.29658792650918636" stroke-linejoin="round" stroke-linecap="round" d="m183.07513 257.63232c0 0 2.6990814 4.068054 -1.8971863 8.224121" fill-rule="evenodd"/><path fill="#d0956f" d="m150.4026 286.90088l-3.7161102 19.372192c0 0 5.857773 8.761993 15.333878 8.761993c2.3959198 0 5.0167694 -0.55740356 7.833191 -1.9558105l1.5451355 -20.829285l-20.996094 -5.3490906z" fill-rule="evenodd"/><path fill="#000000" fill-opacity="0.0377" d="m156.89604 288.58286l-1.2810822 7.8232117l0.04888916 0c0 0 -2.4839325 16.800323 11.901367 16.800323c0.71388245 0 1.4766693 -0.039123535 2.2883453 -0.12713623l1.5451355 -20.829285l-14.502655 -3.6671143z" fill-rule="evenodd"/><path fill="#d0956f" d="m161.10112 260.9865l0 0c1.0561676 9.602966 -8.488403 10.307068 -8.488403 10.307068l2.8751068 10.170166l-8.185242 4.2440796c0 0 7.569153 16.282043 22.668335 16.282043c1.8580627 0 3.8432465 -0.24447632 5.945801 -0.8018799c14.981827 -4.028961 8.703537 -19.63623 8.703537 -19.63623c-1.3202057 -6.9430847 -0.70410156 -12.644257 -0.70410156 -12.644257c0.88012695 -4.684143 -2.3470306 -5.8380737 -2.3470306 -5.8380737c-0.3422699 -0.19555664 -0.7432251 -0.2738037 -1.1930695 -0.2738037c-2.1221008 0 -5.319916 1.8091125 -8.977356 1.9558105c-0.06846619 0 -0.146698 0 -0.22492981 0c-4.430008 0 -10.072647 -3.7551575 -10.072647 -3.764923z" fill-rule="evenodd"/><path fill="#be7b58" d="m161.10112 281.99182c-2.386139 0 -4.3322144 1.2810364 -4.3322144 2.9239197c0 1.584198 1.9460754 2.9141235 4.3322144 2.9141235c2.386139 0 4.3322144 -1.3299255 4.3322144 -2.9141235c0 -1.6428833 -1.9460754 -2.9239197 -4.3322144 -2.9239197z" fill-rule="evenodd"/><path fill="#be7b58" d="m183.78902 280.06534c-0.27381897 0 -0.5574188 0.019561768 -0.8410187 0.06845093c-2.3470154 0.31292725 -4.0681763 1.9069214 -3.8530273 3.500885c0.2347107 1.4081726 1.8091583 2.3273926 3.7650146 2.3273926c0.3129425 0 0.63565063 -0.029327393 0.9681549 -0.07821655c0.6649933 -0.088012695 1.2810822 -0.2640381 1.8091583 -0.5280762c-0.39117432 -2.2589417 -1.0170441 -3.804016 -1.0170441 -3.804016c-0.088012695 -0.48895264 -0.17602539 -0.96813965 -0.2640381 -1.4570923c-0.18580627 -0.01953125 -0.37161255 -0.029327393 -0.5671997 -0.029327393z" fill-rule="evenodd"/><path fill="#fdfdfd" d="m164.651 275.45944c-1.71138 0 -3.6281128 0.5378418 -5.3590393 2.249176c0 0 0 0.039093018 0 0.039093018c0.12713623 0.19558716 1.9362946 2.2980652 4.713608 2.2980652c0.95835876 0 2.0340881 -0.25424194 3.197815 -0.9289856c0.8410187 -0.479187 1.7211456 -1.1930542 2.650177 -2.2100525c0 0 -1.0561523 -0.61608887 -2.6110535 -1.0561523c-0.753006 -0.22491455 -1.6429291 -0.3911438 -2.591507 -0.3911438z" fill-rule="evenodd"/><path fill="#46221d" d="m164.651 275.45944c-1.71138 0 -3.6281128 0.5378418 -5.3590393 2.249176l0 0.039093018c0.12713623 0.16625977 1.9460754 2.2882996 4.7331696 2.2882996c0.95835876 0 2.0243073 -0.24447632 3.1782532 -0.91922c0.17602539 -0.70410156 0.2640381 -1.4961853 0.21514893 -2.2980652c-0.039123535 -0.35205078 -0.088012695 -0.664978 -0.17602539 -0.96813965c-0.753006 -0.22491455 -1.6429291 -0.3911438 -2.591507 -0.3911438z" fill-rule="evenodd"/><path fill="#fdfdfd" d="m178.92873 274.19794c-1.2615204 0 -2.6306305 0.48895264 -3.9019318 2.0046997c0 0 0 0.039123535 0 0.039123535c0.09779358 0.20535278 1.5353546 2.4838562 3.7650146 2.4838562c0.69433594 0 1.4668884 -0.22491455 2.2981262 -0.8018799c0.6552124 -0.44006348 1.3691101 -1.105011 2.0732117 -2.034027c0 0 -0.79211426 -0.70410156 -1.9460754 -1.1930237c-0.67477417 -0.28359985 -1.4571075 -0.49874878 -2.2883453 -0.49874878z" fill-rule="evenodd"/><path fill="#46221d" d="m178.97762 274.18817c-1.2615204 0 -2.659958 0.48895264 -3.950821 2.0144653l0 0.039123535c0.13691711 0.20535278 1.5549011 2.4838562 3.7650146 2.4838562c0.69433594 0 1.4668884 -0.22491455 2.2981262 -0.8018799c0.17604065 -0.70407104 0.26405334 -1.4570618 0.21514893 -2.249176c0 -0.3618164 -0.039108276 -0.6649475 -0.088012695 -1.0169983c-0.6454315 -0.2640381 -1.4082184 -0.46939087 -2.2394562 -0.46939087z" fill-rule="evenodd"/><path fill="#000000" fill-opacity="0.0" d="m152.82787 293.66794c0 0 7.960327 9.857239 20.741821 7.9992065" fill-rule="evenodd"/><path stroke="#000000" stroke-width="1.0" stroke-linejoin="round" stroke-linecap="round" d="m152.82787 293.66794c0 0 7.960327 9.857239 20.741821 7.9992065" fill-rule="evenodd"/><path fill="#000000" fill-opacity="0.0" d="m150.08968 285.97186l6.0142365 -2.9630432" fill-rule="evenodd"/><path stroke="#000000" stroke-width="1.0" stroke-linejoin="round" stroke-linecap="round" d="m150.08968 285.97186l6.0142365 -2.9630432" fill-rule="evenodd"/><path fill="#000000" fill-opacity="0.0" d="m161.10112 272.3106c0 0 2.2981262 -2.5621033 5.525284 -0.664978" fill-rule="evenodd"/><path stroke="#000000" stroke-width="1.0" stroke-linejoin="round" stroke-linecap="round" d="m161.10112 272.3106c0 0 2.2981262 -2.5621033 5.525284 -0.664978" fill-rule="evenodd"/><path fill="#000000" fill-opacity="0.0" d="m176.35678 271.29358c0 0 2.2981262 -2.5621033 5.525284 -0.664978" fill-rule="evenodd"/><path stroke="#000000" stroke-width="1.0" stroke-linejoin="round" stroke-linecap="round" d="m176.35678 271.29358c0 0 2.2981262 -2.5621033 5.525284 -0.664978" fill-rule="evenodd"/><path fill="#000000" fill-opacity="0.0" d="m171.3987 272.3106c0 0 3.6280975 0 5.6621857 11.979279c0 0 -2.0340881 1.105011 -5.6621857 1.105011" fill-rule="evenodd"/><path stroke="#000000" stroke-width="1.0" stroke-linejoin="round" stroke-linecap="round" d="m171.3987 272.3106c0 0 3.6280975 0 5.6621857 11.979279c0 0 -2.0340881 1.105011 -5.6621857 1.105011" fill-rule="evenodd"/><path fill="#000000" fill-opacity="0.0" d="m164.72923 289.6879c0 0 2.1221008 3.27594 5.437271 2.6989746" fill-rule="evenodd"/><path stroke="#000000" stroke-width="1.0" stroke-linejoin="round" stroke-linecap="round" d="m164.72923 289.6879c0 0 2.1221008 3.27594 5.437271 2.6989746" fill-rule="evenodd"/><path fill="#000000" fill-opacity="0.0" d="m163.17433 290.7049c0 0 1.77005 -0.9779053 1.5549011 -2.8750305" fill-rule="evenodd"/><path stroke="#000000" stroke-width="1.0" stroke-linejoin="round" stroke-linecap="round" d="m163.17433 290.7049c0 0 1.77005 -0.9779053 1.5549011 -2.8750305" fill-rule="evenodd"/><path fill="#d0956f" d="m144.75998 279.63507c-2.8457794 0 -5.319931 1.5353088 -5.9849243 3.950714c-0.80189514 3.0021667 1.5451355 6.2781067 5.2612457 7.2951355c0.753006 0.20535278 1.506012 0.30316162 2.2394562 0.30316162c2.855545 0 5.310135 -1.4961853 5.984909 -3.9311829c0.8312378 -3.0021362 -1.506012 -6.2781067 -5.222122 -7.2951355c-0.77256775 -0.21511841 -1.5353546 -0.32269287 -2.2785645 -0.32269287z" fill-rule="evenodd"/><path fill="#000000" fill-opacity="0.0" d="m142.5303 283.00882c0 0 5.4861603 -0.48895264 6.0142365 4.821045" fill-rule="evenodd"/><path stroke="#000000" stroke-width="1.0" stroke-linejoin="round" stroke-linecap="round" d="m142.5303 283.00882c0 0 5.4861603 -0.48895264 6.0142365 4.821045" fill-rule="evenodd"/><path fill="#e06f3e" d="m138.41522 309.04987l-17.891525 65.48999l-13.539276 49.34485l-1.250534 4.371216l-17.497658 60.532013c0 0 48.278572 18.325867 92.32305 18.325867c0.71881104 0 1.4376221 -0.009796143 2.156433 -0.019561768l0.9846802 -5.613159c0 0 41.267685 -2.1611633 65.31343 -12.693146l-0.049224854 0l-17.940765 -71.582306l-3.3872833 -13.43634l-3.072174 -33.209503l-2.1761322 -43.73169l-53.073944 -13.749268l-30.899078 -4.028961z" fill-rule="evenodd"/><path fill="#fabd53" d="m175.0268 303.7501c0 0 -1.1050568 1.3690491 -6.0142517 1.8971252l-0.79211426 11.588104l6.0142517 0.21514893l0.79211426 -13.700378z" fill-rule="evenodd"/><path fill="#fabd53" d="m142.00221 295.966l-2.8359833 13.08429l24.008102 9.867035l1.5940094 -13.749298c-22.414062 -4.7819214 -22.766129 -9.202026 -22.766129 -9.202026z" fill-rule="evenodd"/><path fill="#fabd53" d="m224.72502 370.56024l-103.32771 3.9800415l-13.446487 49.34485l-1.2419662 4.371216l124.43136 -11.050262l-3.3640594 -13.397247l-3.0511322 -33.248596z" fill-rule="evenodd"/><path fill="#000000" fill-opacity="0.0377" d="m128.87778 348.40063l-20.027939 69.59717l20.076828 2.7478943l5.0852203 -22.951324c8.664429 -26.00238 -5.1341095 -49.393738 -5.1341095 -49.393738z" fill-rule="evenodd"/><path fill="#000000" fill-opacity="0.0" d="m163.97623 312.01334l-0.80189514 6.9039917l13.886551 3.755127c0 0 21.269897 97.8096 6.1511536 184.42221" fill-rule="evenodd"/><path stroke="#000000" stroke-width="1.0" stroke-linejoin="round" stroke-linecap="round" d="m163.97623 312.01334l-0.80189514 6.9039917l13.886551 3.755127c0 0 21.269897 97.8096 6.1511536 184.42221" fill-rule="evenodd"/><path fill="#000000" fill-opacity="0.0" d="m227.77615 403.80884l-20.115952 0" fill-rule="evenodd"/><path stroke="#000000" stroke-width="1.0" stroke-linejoin="round" stroke-linecap="round" d="m227.77615 403.80884l-20.115952 0" fill-rule="evenodd"/><path fill="#4e1d16" d="m233.99184 428.79456l-132.06918 13.348328l-7.804535 28.613373l148.56067 -9.602966l-8.686951 -32.358734z" fill-rule="evenodd"/><path fill="#b3c2f5" d="m205.71413 430.56418l0.088012695 1.1050415l0.52809143 6.5812683l0.17602539 2.386078l0.36183167 4.3809814l0.088012695 1.2810669l0.088012695 1.0169983l0.17602539 2.3469849l0.12713623 1.9851379l0.088012695 0.9289856l0.22491455 2.9630432l0 0.088012695l0.6161041 7.784088l0.04888916 0.7529907l-4.772278 0.40093994l-3.3249512 0.26400757l0 -0.04888916l-9.505447 0.7529907l-2.8751068 0.22491455l-24.135223 1.8971252l-0.088012695 -1.3690491l-0.13691711 -1.7210999l-0.40093994 -4.64505l-1.7211609 -22.599274l-0.088012695 -1.1441345l-0.17602539 -2.170929l26.795197 -2.0731506l0.70410156 -0.04888916l0.9290314 -0.088012695l2.4741516 -0.17602539l0.36183167 -0.039123535l4.5962524 -0.3618164l1.9460754 -0.12713623l1.5940247 -0.13690186l3.7552338 -0.2640381l1.4571075 -0.12713623zm11.275497 -7.304901l-2.2981262 0.18579102l-1.9460754 0.12713623l-14.365738 1.1050415l-2.659958 0.22491455l-1.6331482 0.12710571l-4.2442017 0.31292725l-1.3690948 0.13693237l-1.1930695 0.08798218l-1.9069519 0.12713623l-36.52556 2.8750305l0.6649933 8.801117l0.22492981 2.386078l1.7700348 22.72638l0.12713623 2.034027l0.22492981 2.5230103l0.61608887 7.911194l34.980423 -2.7381287l4.6842804 -0.35202026l9.104492 -0.7138672l12.830399 -0.96813965l3.4422913 -0.31292725l3.0511322 -0.21511841l-0.39117432 -5.085083l0 -0.048919678l-0.13690186 -1.8971252l-1.0170441 -12.830048l-0.039123535 -0.7431946l-0.88990784 -11.637024l-0.5769806 -6.9332886l-0.5280762 -6.8551025l0 -0.3618164z" fill-rule="evenodd"/><path fill="#b3c2f5" d="m215.65964 444.4015l-26.345337 1.8091125l0.30316162 4.5961304l26.355118 -1.7602234l-0.3129425 -4.6450195z" fill-rule="evenodd"/><path fill="#4e1d16" d="m191.21149 421.41104l-1.9460754 5.5251465l22.991043 1.8091125l14.551544 21.709381l10.923447 -1.1930237l-19.724777 -25.552551l-26.795181 -2.2980652z" fill-rule="evenodd"/><path fill="#4e1d16" d="m268.1743 440.54855c-0.019561768 0 -0.04888916 0 -0.06845093 0c-2.6990662 0.13690186 -4.469116 8.185028 -3.931244 17.91513c0.51828 9.681213 3.0902405 17.416412 5.7599792 17.416412c0.029327393 0 0.04888916 0 0.06845093 0c2.7479858 -0.17602539 4.469116 -8.175262 3.9801636 -17.954254c-0.51831055 -9.64209 -3.1391602 -17.377289 -5.808899 -17.377289z" fill-rule="evenodd"/><path fill="#4e1d16" d="m192.61969 449.72125c-0.088012695 0 -0.17602539 0.009796143 -0.2542572 0.02935791c-2.5719452 0.52804565 -3.139145 8.488159 -1.290863 17.778198c1.838501 8.957581 5.241684 15.900665 7.774521 15.900665c0.09779358 0 0.18580627 -0.009765625 0.27381897 -0.029327393c2.6110535 -0.5280762 3.188034 -8.48819 1.290863 -17.778229c-1.7993927 -8.986908 -5.251465 -15.900665 -7.7940826 -15.900665z" fill-rule="evenodd"/><path fill="#ffffff" d="m214.55458 450.50357c-0.21513367 0.039123535 -0.44006348 0.088012695 -0.65519714 0.088012695c-0.5769806 0.088012695 -1.1539612 0.17602539 -1.7309418 0.2640381c-0.39115906 0.088012695 -0.753006 0.12713623 -1.144165 0.17602539l-0.13691711 0.04888916l-0.12712097 0c0 0.039123535 -0.04890442 0.039123535 -0.088012695 0.039123535c-0.4889679 0.088012695 -1.0170441 0.13690186 -1.506012 0.22491455c-0.62586975 0.088012695 -1.1930695 0.17602539 -1.8189392 0.30316162c-0.8801422 0.13690186 -1.7602692 0.26400757 -2.6501923 0.40093994c-0.61608887 0.13690186 -1.1930695 0.22491455 -1.8091583 0.31292725c-0.4889679 0.088012695 -1.0170441 0.17599487 -1.506012 0.26400757c-1.6820221 0.2640381 -3.3151703 0.57696533 -5.036316 0.8410034c-2.0340881 0.35205078 -4.1170654 0.7529907 -6.2391663 1.1050415c-0.5769806 0.12710571 -1.1539612 0.21511841 -1.77005 0.3031311c-7.9994354 1.5059814 -16.44873 3.1390686 -25.250061 5.0459595c-3.7943573 0.79211426 -7.6473846 1.6331177 -11.578659 2.5621033c-2.923996 0.664978 -5.8871155 1.329956 -8.889343 2.034027c-5.437271 1.329956 -10.962555 2.6990051 -16.58564 4.2049866c-8.87957 2.2980652 -17.993843 4.8601685 -27.186356 7.6471863c-2.1709976 0.664978 -4.3419952 1.3201599 -6.552109 1.9851379c-19.851906 6.238983 -40.231895 13.534119 -60.347843 22.110321c-20.164845 8.576172 -38.82368 17.905365 -55.937393 27.948395l0 11.578308l31.704376 0c27.284151 -14.189331 55.927616 -25.55249 83.65183 -34.617645c8.7133255 -2.8261414 17.289742 -5.437134 25.739029 -7.872101c25.289177 -7.207123 49.170143 -12.605133 69.59904 -16.487396c2.8262024 -0.57696533 5.6132965 -1.1050415 8.312363 -1.5939636c2.1612244 -0.40093994 4.283325 -0.7529907 6.3663025 -1.1050415c0 -0.019561768 0 -0.019561768 0.009780884 -0.019561768c0.009780884 0 0.039123535 0.019561768 0.039123535 0.019561768c4.8114014 -0.8410034 9.417435 -1.5939636 13.700745 -2.2980652l0.088012695 0c1.0659485 -0.17602539 2.1221008 -0.31292725 3.139145 -0.48895264l0 -0.04888916l-0.8410187 -5.613159l-0.8410187 -5.349121l-0.21513367 -1.6819763l-1.9069672 -12.331329z" fill-rule="evenodd"/><path fill="#b3c2f5" d="m304.93454 444.79263c-0.17602539 0 -0.35205078 0.04888916 -0.5280762 0.09780884c-3.383606 -0.058685303 -6.708557 -0.088012695 -9.965057 -0.088012695c-48.45627 0 -82.331635 6.072754 -83.866974 6.31723l4.557129 24.936462c0.37161255 -0.07824707 32.96591 -5.9260864 79.10449 -5.9260864c3.3347168 0 6.7476807 0.029327393 10.21933 0.088012695c0.009765625 0 0.01953125 0 0.029327393 0c2.4154663 0 4.4789124 -5.6424866 4.606018 -12.595367c0.13693237 -7.0310974 -1.7211304 -12.781158 -4.156189 -12.830048z" fill-rule="evenodd"/><path fill="#6978b1" d="m216.19751 446.2986c-0.029342651 0 -0.058685303 0 -0.088012695 0l-0.04890442 0c-10.346466 0.8410034 -22.374954 3.2270508 -23.607147 3.4519958c0.058685303 -0.009796143 0.11735535 -0.009796143 0.18580627 -0.009796143c2.5426178 0 5.9555817 6.952881 7.774521 15.8811035c1.8482819 9.329163 1.3201904 17.250153 -1.290863 17.778229c3.0511322 -0.6258545 13.671417 -2.170929 20.878723 -2.7870178c2.6501923 -0.22491455 3.002243 -8.185028 2.2101135 -17.641327c-0.7432251 -9.309601 -3.4325104 -16.673187 -6.0142365 -16.673187z" fill-rule="evenodd"/><path fill="#4e1d16" d="m192.89351 421.36215l-6.855255 5.133972l17.289734 26.52066c1.1050568 1.7015381 2.9533386 2.6305542 4.840744 2.6305542c1.2028503 0 2.4252472 -0.37161255 3.471634 -1.1636963c2.6110687 -1.9460449 3.0902405 -5.6620483 1.0561676 -8.224152l-19.803024 -24.897339z" fill-rule="evenodd"/><path fill="#6978b1" d="m270.02258 475.8801c0 0 -0.009796143 0 -0.019561768 0c0.009765625 0 0.019561768 0 0.019561768 0zm11.695984 -35.673798c-6.8943787 0 -12.683685 0.28356934 -13.524719 0.34225464c2.6990967 0 5.261261 7.7449646 5.789337 17.377289c0.48895264 9.75943 -1.2321777 17.787994 -3.9606018 17.954254l0 0c1.3397522 -0.06845093 3.9899292 -0.11734009 7.1584167 -0.11734009c4.5473633 0 10.170441 0.09777832 14.531982 0.38137817c0.02935791 0 0.058685303 0.009765625 0.088012695 0.009765625c2.650177 0 4.2148743 -8.028564 4.8211975 -17.690216c0.57696533 -9.690979 -1.105072 -17.739105 -3.8041382 -17.954254l-0.039123535 0c-3.6281128 -0.22491455 -7.490906 -0.3031311 -11.060364 -0.3031311z" fill-rule="evenodd"/><path fill="#e06f3e" d="m191.21149 421.36215l-6.8552704 5.133972l17.250626 26.52066c1.1050568 1.7015381 2.9533386 2.6305542 4.8407288 2.6305542c1.2028503 0 2.4154816 -0.37161255 3.4716492 -1.1636963c2.650177 -1.9460449 3.139145 -5.6620483 1.1050568 -8.224152l-0.04890442 0l-19.763885 -24.897339z" fill-rule="evenodd"/><path fill="#fabd53" d="m206.55515 446.2595c-1.77005 0 -3.2271576 1.4081726 -3.2271576 3.2270813c0 1.769989 1.4571075 3.1781616 3.2271576 3.1781616c1.77005 0 3.2271576 -1.4081726 3.2271576 -3.1781616c0 -1.8189087 -1.4571075 -3.2270813 -3.2271576 -3.2270813z" fill-rule="evenodd"/><path fill="#4e1d16" d="m132.13493 407.9258l-11.891579 53.67694c1.1930695 0.18579102 2.347023 0.28359985 3.4618607 0.28359985c13.612732 0 21.475266 -14.199127 23.108398 -48.572327l-14.67868 -5.388214z" fill-rule="evenodd"/><path fill="#d0956f" d="m194.17459 382.20703c-0.4302826 0 -0.8214569 0.04888916 -1.1539459 0.15646362c-3.618332 1.1930237 -16.487839 11.187164 -16.487839 11.187164c0 0 -21.132996 3.2759705 -42.31488 4.9090576l-10.170441 45.980896c0 0 19.450958 -2.8750305 52.886276 -10.649353l0.039108276 0c1.9460754 0.64541626 3.7747955 0.91922 5.4861755 0.91922c9.300079 0 14.854691 -8.175232 14.854691 -8.175232l0 0c0 0 -2.0340881 6.2781067 1.8482819 6.2781067c0.625885 0 1.3984375 -0.15646362 2.3568115 -0.52804565c3.3151703 -1.329956 15.519684 -11.451233 14.9427185 -14.150238c-0.52809143 -2.6990051 -3.139145 -6.053192 -3.139145 -6.053192c0 0 4.3322144 -6.855072 3.1782532 -9.0260315c-1.144165 -2.1220398 -6.3663025 -7.246216 -6.3663025 -7.246216c0 0 1.6429291 -3.980072 -1.0170441 -6.551941c-2.2003326 -2.1220398 -10.718063 -7.050659 -14.9427185 -7.050659z" fill-rule="evenodd"/><path fill="#000000" fill-opacity="0.0" d="m201.02986 419.41614c0 0 -3.188034 8.752197 -10.170441 13.270111" fill-rule="evenodd"/><path stroke="#000000" stroke-width="1.0" stroke-linejoin="round" stroke-linecap="round" d="m201.02986 419.41614c0 0 -3.188034 8.752197 -10.170441 13.270111" fill-rule="evenodd"/><path fill="#000000" fill-opacity="0.0" d="m198.85887 423.83624l4.9971924 -1.9851379" fill-rule="evenodd"/><path stroke="#000000" stroke-width="1.0" stroke-linejoin="round" stroke-linecap="round" d="m198.85887 423.83624l4.9971924 -1.9851379" fill-rule="evenodd"/><path fill="#000000" fill-opacity="0.0" d="m196.78566 397.61874c0 0 5.789322 1.5059509 7.6473846 2.5621033c1.8091736 1.105011 8.8893585 11.9010315 8.8893585 11.9010315" fill-rule="evenodd"/><path stroke="#000000" stroke-width="1.0" stroke-linejoin="round" stroke-linecap="round" d="m196.78566 397.61874c0 0 5.789322 1.5059509 7.6473846 2.5621033c1.8091736 1.105011 8.8893585 11.9010315 8.8893585 11.9010315" fill-rule="evenodd"/><path fill="#000000" fill-opacity="0.0" d="m151.10672 395.6336c0 0 -5.31015 7.11911 -4.1073 12.292206" fill-rule="evenodd"/><path stroke="#000000" stroke-width="1.0" stroke-linejoin="round" stroke-linecap="round" d="m151.10672 395.6336c0 0 -5.31015 7.11911 -4.1073 12.292206" fill-rule="evenodd"/><path fill="#000000" fill-opacity="0.0" d="m141.82619 396.33768c0 0 -5.310135 7.11911 -4.1170654 12.243317" fill-rule="evenodd"/><path stroke="#000000" stroke-width="1.0" stroke-linejoin="round" stroke-linecap="round" d="m141.82619 396.33768c0 0 -5.310135 7.11911 -4.1170654 12.243317" fill-rule="evenodd"/><path fill="#000000" fill-opacity="0.0" d="m198.81975 389.08167c0 0 3.8041382 0.3618164 5.3003693 1.1930237c1.2810822 0.7138672 6.0142365 5.5349426 6.0142365 5.5349426" fill-rule="evenodd"/><path stroke="#000000" stroke-width="1.0" stroke-linejoin="round" stroke-linecap="round" d="m198.81975 389.08167c0 0 3.8041382 0.3618164 5.3003693 1.1930237c1.2810822 0.7138672 6.0142365 5.5349426 6.0142365 5.5349426" fill-rule="evenodd"/><path fill="#e06f3e" d="m139.16623 309.0503c0 0 -49.83513 7.080017 -65.65798 15.431274c-3.0511322 1.6428833 -12.869514 15.079224 -23.480015 32.808563c-6.992176 11.725006 -14.326626 25.337402 -20.301756 38.607513c-7.6865025 17.201263 -13.084658 33.864685 -12.38055 45.227875c1.1539536 18.824585 33.71891 22.931763 61.90275 22.931763c21.807762 0 40.994682 -2.4545288 40.994682 -2.4545288l13.974571 -63.143036l-19.587868 0.96813965l6.76725 -24.887573l17.76892 -65.48999z" fill-rule="evenodd"/><path fill="#000000" fill-opacity="0.0" d="m134.21793 398.45972l-55.976517 3.315094" fill-rule="evenodd"/><path stroke="#000000" stroke-width="1.0" stroke-linejoin="round" stroke-linecap="round" d="m134.21793 398.45972l-55.976517 3.315094" fill-rule="evenodd"/><path fill="#fabd53" d="m50.06735 357.29013c-7.031292 11.725006 -14.365742 25.337402 -20.291975 38.607513l84.85468 3.5302124l6.76725 -24.887573l-0.04889679 0l-71.28107 -17.250153z" fill-rule="evenodd"/><path fill="#000000" fill-opacity="0.0" d="m93.53618 386.56845l14.67868 9.065155" fill-rule="evenodd"/><path stroke="#000000" stroke-width="1.0" stroke-linejoin="round" stroke-linecap="round" d="m93.53618 386.56845l14.67868 9.065155" fill-rule="evenodd"/><path fill="#000000" fill-opacity="0.0" d="m84.44896 328.23285c0 0 20.591568 -4.3418274 33.030342 14.260925" fill-rule="evenodd"/><path stroke="#000000" stroke-width="1.0" stroke-linejoin="round" stroke-linecap="round" d="m84.44896 328.23285c0 0 20.591568 -4.3418274 33.030342 14.260925" fill-rule="evenodd"/><path fill="#000000" fill-opacity="0.0" d="m105.74071 400.44485l-14.67868 64.07202" fill-rule="evenodd"/><path stroke="#000000" stroke-width="1.0" stroke-linejoin="round" stroke-linecap="round" d="m105.74071 400.44485l-14.67868 64.07202" fill-rule="evenodd"/><path fill="#ffffff" d="m118.414635 404.32712c-1.6527023 0 -3.1782608 2.1122742 -3.5205383 4.87973c-0.35205078 2.8750305 0.753006 5.349121 2.4350357 5.56427c0.07823181 0.009765625 0.15647125 0.01953125 0.23470306 0.01953125c1.6429138 0 3.1782608 -2.092682 3.5205383 -4.8308105c0.35205078 -2.8750305 -0.753006 -5.3980103 -2.4741592 -5.622925c-0.06845093 0 -0.13690948 -0.009796143 -0.19557953 -0.009796143z" fill-rule="evenodd"/><path fill="#d0956f" d="m265.40677 458.493c-0.17602539 0 -0.35205078 0.019561768 -0.5280762 0.058685303c-4.0681763 0.79211426 -4.733185 7.383148 -4.733185 7.383148c0 0 -1.476654 -4.821045 -5.075424 -4.821045c-0.029342651 0 -0.06845093 0 -0.09779358 0c-3.6281128 0.12713623 -5.525284 8.4001465 -2.6990814 14.365356c1.9460754 4.136505 4.077957 6.620392 7.637619 6.620392c1.6135559 0 3.530304 -0.51831055 5.847992 -1.6233215c0 0 2.9924622 2.503418 6.454315 2.503418c1.5549011 0 3.2173767 -0.49871826 4.7331543 -1.9655762c0 0 2.347046 -1.4668579 3.012024 -5.534912c0 0 -1.4179993 -15.519287 -4.6451416 -15.6073c-0.048919678 0 -0.088012695 0 -0.13693237 0c-3.1782532 0 -4.684265 4.5374756 -4.5962524 6.415039c0 0 -1.4962158 -7.7938843 -5.173218 -7.7938843z" fill-rule="evenodd"/><path fill="#fabd53" d="m880.02545 415.73953c-6.4887085 0 -13.008789 1.0658264 -19.246704 3.1974182c-0.2821045 0 -0.56427 0.15673828 -0.9717407 0.282135c-0.2821045 0.15673828 -0.7210083 0.282135 -1.0031128 0.4388733c-0.564209 0.12536621 -1.0030518 0.40750122 -1.4105835 0.5642395l-3.981018 27.334808l-6.3632812 43.384583l-3.416809 23.259644l-3.8242798 25.767456l80.21564 0l-3.385437 -23.667175l-3.5421753 -24.231445l-6.3946533 -43.071106l-4.2317505 -28.776764c-7.1470337 -3.0093384 -14.795532 -4.482666 -22.444092 -4.482666z" fill-rule="evenodd"/><path fill="#e06f3e" d="m871.7186 446.45984c-6.300598 0 -12.538574 0.31347656 -18.306335 1.097168l-6.3632812 43.384583c7.460449 -1.7241211 16.174744 -2.3510437 24.983093 -2.3510437c15.798645 0 31.78534 2.0375671 41.063843 3.4795227l-6.3946533 -43.071106c-9.37262 -1.2538757 -22.255981 -2.5391235 -34.982666 -2.5391235z" fill-rule="evenodd"/><path fill="#e06f3e" d="m867.9884 512.9473c-6.0184937 0 -12.037048 0.18811035 -17.83612 0.6583252c-2.256958 0.15673828 -4.388489 0.31347656 -6.5200806 0.59558105l-3.8242798 25.767456l80.21564 0l-3.385437 -23.667175c-13.572998 -1.661438 -31.22107 -3.354187 -48.64972 -3.354187z" fill-rule="evenodd"/><path fill="#ffffff" fill-opacity="0.3459" d="m864.1955 417.93384c-1.128479 0.282135 -2.256958 0.5956116 -3.416748 1.0031128c-0.2821045 0.15673828 -0.56427 0.282135 -0.9717407 0.282135c-0.2821045 0.15673828 -0.7210083 0.282135 -1.0031128 0.4388733c-0.564209 0.2821045 -1.0030518 0.40750122 -1.4105835 0.5642395l-3.981018 27.334808l-6.3632812 43.384583l-3.5421753 23.259644l-3.6989136 25.767456l6.3947144 0l3.1032715 -20.689209l0.8463745 -5.673828l3.1346436 -21.66095l0.2821045 -2.2883606l6.3633423 -42.789l0.8463745 -5.673828l3.416748 -23.259674z" fill-rule="evenodd"/><path fill="#000000" fill-opacity="0.0" d="m507.42783 161.9534l275.11813 0" fill-rule="evenodd"/><path stroke="#000000" stroke-width="1.0" stroke-linejoin="round" stroke-linecap="butt" d="m507.42783 161.9534l275.11813 0" fill-rule="evenodd"/></g></svg>